<svg width="98" height="97" viewBox="0 0 98 97" fill="none" xmlns="http://www.w3.org/2000/svg">
<path d="M71.4458 4.28348L68.9681 0L66.4904 4.28348L64.0127 8.58796H66.5744V62.0895H71.3618V8.58796H73.9235L71.4458 4.28348Z" fill="url(#paint0_linear_3_195)"/>
<path d="M81.6074 20.1153L79.1297 15.8318L76.652 20.1153L74.1743 24.3988H76.736V68.9554H81.5234V24.3988H84.0851L81.6074 20.1153Z" fill="url(#paint1_linear_3_195)"/>
<path d="M61.4092 13.0398V50.4783L14.1019 76.5781L12.4431 75.0663V40.0635L61.4092 13.0398Z" fill="url(#paint2_linear_3_195)"/>
<path d="M59.4353 16.3569V49.323L59.3513 49.365L47.1728 56.0841L14.3958 74.184V41.2389L17.1674 39.7061L29.3459 32.9869L31.0047 32.063L35.4982 29.5853L59.4353 16.3569Z" fill="url(#paint3_linear_3_195)"/>
<path d="M90.6583 66.6881L45.8497 94.3417L42.5951 94.2367L17.8811 80.5254L18.1331 80.2734L14.1016 76.5779L61.4089 50.457L66.0493 53.0397L69.1569 54.7615L74.4063 57.6592L77.4929 59.381L82.7423 62.2996L85.8289 64.0214L90.6583 66.6881Z" fill="url(#paint4_linear_3_195)"/>
<path d="M16.4966 77.5031L61.4102 52.7051L86.7751 66.7944L44.3392 92.9782L16.4966 77.5031Z" fill="url(#paint5_linear_3_195)"/>
<path d="M53.0522 77.8375L66.8266 69.5225L74.9736 74.0369L61.3673 82.4359L53.0522 77.8375Z" fill="url(#paint6_linear_3_195)"/>
<path d="M42.5959 94.237L40.5801 94.174L17.189 81.1976L17.8819 80.5256L42.5959 94.237Z" fill="url(#paint7_linear_3_195)"/>
<path d="M90.6594 66.6887V67.9066L47.5096 94.3844L45.8508 94.3424L90.6594 66.6887Z" fill="url(#paint8_linear_3_195)"/>
<path style="mix-blend-mode:screen" d="M59.3507 49.3653L47.1721 56.0845L17.1667 39.7065L29.3453 32.9873L59.3507 49.3653Z" fill="url(#paint9_linear_3_195)"/>
<path style="mix-blend-mode:screen" d="M59.4362 42.6466V46.8881V47.602L31.0056 32.0639L35.4991 29.5862L59.4362 42.6466Z" fill="url(#paint10_linear_3_195)"/>
<path d="M46.3331 92.8718C26.7635 92.8718 10.9104 77.0187 10.9104 57.4701C10.9104 37.9004 26.7635 22.0474 46.3331 22.0474C46.921 22.0474 47.488 22.0683 48.0759 22.0893L53.4513 19.1287C51.1415 18.6878 48.7688 18.4778 46.3331 18.4778C24.7897 18.4778 7.34082 35.9267 7.34082 57.4701C7.34082 78.9925 24.7897 96.4414 46.3331 96.4414C61.3043 96.4414 74.3017 88.0004 80.8319 75.6119L73.5668 80.0634C67.0786 87.8954 57.2938 92.8718 46.3331 92.8718Z" fill="url(#paint11_linear_3_195)"/>
<defs>
<linearGradient id="paint0_linear_3_195" x1="263.53" y1="-21.2377" x2="263.53" y2="61.7067" gradientUnits="userSpaceOnUse">
<stop stop-color="#FFAD4B"/>
<stop offset="1" stop-color="#77007C"/>
</linearGradient>
<linearGradient id="paint1_linear_3_195" x1="221.629" y1="11.3518" x2="221.629" y2="74.3471" gradientUnits="userSpaceOnUse">
<stop stop-color="#FFAD4B"/>
<stop offset="1" stop-color="#77007C"/>
</linearGradient>
<linearGradient id="paint2_linear_3_195" x1="12.437" y1="13.039" x2="61.4046" y2="13.039" gradientUnits="userSpaceOnUse">
<stop stop-color="#461885"/>
<stop offset="1" stop-color="#AA51E0"/>
</linearGradient>
<linearGradient id="paint3_linear_3_195" x1="95.6389" y1="52.7848" x2="44.7532" y2="103.159" gradientUnits="userSpaceOnUse">
<stop stop-color="#FFAD4B"/>
<stop offset="1" stop-color="#77007C"/>
</linearGradient>
<linearGradient id="paint4_linear_3_195" x1="14.0993" y1="50.4587" x2="90.6539" y2="50.4587" gradientUnits="userSpaceOnUse">
<stop stop-color="#461885"/>
<stop offset="1" stop-color="#AA51E0"/>
</linearGradient>
<linearGradient id="paint5_linear_3_195" x1="92.1538" y1="69.9474" x2="49.7063" y2="103.681" gradientUnits="userSpaceOnUse">
<stop stop-color="#AA51E0"/>
<stop offset="1" stop-color="#461885"/>
</linearGradient>
<linearGradient id="paint6_linear_3_195" x1="48.9189" y1="55.1333" x2="77.8049" y2="77.1213" gradientUnits="userSpaceOnUse">
<stop stop-color="#AA51E0"/>
<stop offset="1" stop-color="#461885"/>
</linearGradient>
<linearGradient id="paint7_linear_3_195" x1="26.1836" y1="95.1483" x2="26.1836" y2="81.8394" gradientUnits="userSpaceOnUse">
<stop stop-color="#AA51E0"/>
<stop offset="1" stop-color="#461885"/>
</linearGradient>
<linearGradient id="paint8_linear_3_195" x1="72.9273" y1="64.4149" x2="94.494" y2="77.0609" gradientUnits="userSpaceOnUse">
<stop stop-color="#461885"/>
<stop offset="1" stop-color="#AA51E0"/>
</linearGradient>
<linearGradient id="paint9_linear_3_195" x1="18.4596" y1="18.6059" x2="65.7449" y2="44.6129" gradientUnits="userSpaceOnUse">
<stop stop-color="#FFAD4B"/>
<stop offset="1" stop-color="#77007C" stop-opacity="0"/>
</linearGradient>
<linearGradient id="paint10_linear_3_195" x1="32.0903" y1="19.2136" x2="65.1167" y2="37.378" gradientUnits="userSpaceOnUse">
<stop stop-color="#FFAD4B"/>
<stop offset="1" stop-color="#77007C" stop-opacity="0"/>
</linearGradient>
<linearGradient id="paint11_linear_3_195" x1="7.34523" y1="18.4698" x2="80.8319" y2="18.4698" gradientUnits="userSpaceOnUse">
<stop stop-color="#FFAD4B"/>
<stop offset="1" stop-color="#77007C"/>
</linearGradient>
</defs>
</svg>
