<svg width="604" height="341" viewBox="0 0 604 341" fill="none" xmlns="http://www.w3.org/2000/svg">
<rect width="604" height="341" rx="14" fill="#1A1C3A" fill-opacity="0.64"/>
<rect x="0.5" y="0.5" width="603" height="340" rx="13.5" stroke="white" stroke-opacity="0.1"/>
<line x1="77.5" y1="341" x2="77.5" y2="1" stroke="white" stroke-opacity="0.1"/>
<path d="M40.7439 46V44.08H44.6239V33.28L40.7239 36.18V33.84L44.0639 31.4H46.7839V44.08H49.9239V46H40.7439Z" fill="white"/>
<path d="M112.852 48.2L119.892 29.4H122.132L115.092 48.2H112.852ZM103.852 48.2L110.892 29.4H113.132L106.092 48.2H103.852ZM138.597 46V31.4H141.317L145.577 43.54C145.55 43.1533 145.517 42.6933 145.477 42.16C145.437 41.6267 145.403 41.0733 145.377 40.5C145.363 39.9267 145.357 39.4067 145.357 38.94V31.4H147.357V46H144.637L140.397 33.86C140.423 34.2067 140.45 34.64 140.477 35.16C140.517 35.68 140.543 36.22 140.557 36.78C140.583 37.34 140.597 37.86 140.597 38.34V46H138.597ZM154.969 46.2C154.075 46.2 153.289 46.0267 152.609 45.68C151.942 45.32 151.429 44.82 151.069 44.18C150.709 43.54 150.529 42.7933 150.529 41.94V39.06C150.529 38.1933 150.709 37.4467 151.069 36.82C151.429 36.18 151.942 35.6867 152.609 35.34C153.289 34.98 154.075 34.8 154.969 34.8C155.875 34.8 156.662 34.98 157.329 35.34C157.995 35.6867 158.509 36.18 158.869 36.82C159.229 37.4467 159.409 38.1933 159.409 39.06V41.02H152.609V41.94C152.609 42.7533 152.809 43.3733 153.209 43.8C153.622 44.2267 154.215 44.44 154.989 44.44C155.615 44.44 156.122 44.3333 156.509 44.12C156.895 43.8933 157.135 43.5667 157.229 43.14H159.369C159.209 44.0733 158.729 44.82 157.929 45.38C157.129 45.9267 156.142 46.2 154.969 46.2ZM157.329 39.72V39.04C157.329 38.24 157.129 37.62 156.729 37.18C156.329 36.74 155.742 36.52 154.969 36.52C154.209 36.52 153.622 36.74 153.209 37.18C152.809 37.62 152.609 38.2467 152.609 39.06V39.56L157.489 39.54L157.329 39.72ZM161.821 46L165.681 40.32L162.061 35H164.541L166.481 38.04C166.574 38.2 166.668 38.3733 166.761 38.56C166.854 38.7333 166.928 38.88 166.981 39C167.021 38.88 167.088 38.7333 167.181 38.56C167.274 38.3733 167.368 38.2 167.461 38.04L169.401 35H171.881L168.261 40.34L172.101 46H169.621L167.481 42.7C167.388 42.54 167.294 42.36 167.201 42.16C167.108 41.96 167.034 41.8 166.981 41.68C166.928 41.8 166.848 41.96 166.741 42.16C166.648 42.36 166.548 42.54 166.441 42.7L164.281 46H161.821ZM180.153 46C179.153 46 178.373 45.7267 177.813 45.18C177.253 44.6333 176.973 43.8733 176.973 42.9V36.96H173.933V35H176.973V31.9H179.133V35H183.433V36.96H179.133V42.9C179.133 43.66 179.5 44.04 180.233 44.04H183.233V46H180.153ZM201.558 46.2C200.411 46.2 199.518 45.8867 198.878 45.26C198.238 44.6333 197.918 43.7667 197.918 42.66V40.48C197.918 39.68 198.118 39.02 198.518 38.5C198.931 37.9667 199.511 37.6133 200.258 37.44L200.058 37.62C199.644 37.06 199.338 36.5267 199.138 36.02C198.938 35.5 198.838 34.9867 198.838 34.48C198.838 33.8267 198.991 33.2533 199.298 32.76C199.604 32.2667 200.038 31.8867 200.598 31.62C201.158 31.34 201.811 31.2 202.558 31.2C203.344 31.2 204.024 31.3467 204.598 31.64C205.184 31.9333 205.638 32.34 205.958 32.86C206.278 33.38 206.438 34.0067 206.438 34.74H204.358C204.358 34.38 204.284 34.0733 204.138 33.82C203.991 33.5533 203.784 33.3533 203.518 33.22C203.251 33.0867 202.931 33.02 202.558 33.02C202.224 33.02 201.924 33.0867 201.658 33.22C201.404 33.34 201.211 33.52 201.078 33.76C200.944 33.9867 200.878 34.2667 200.878 34.6C200.878 34.92 200.951 35.2733 201.098 35.66C201.258 36.0467 201.471 36.4267 201.738 36.8L204.838 41.12L206.098 38.8H208.258L206.058 42.82L208.338 46H206.098L204.998 44.48C204.038 45.6267 202.891 46.2 201.558 46.2ZM201.718 44.36C202.131 44.36 202.524 44.2333 202.898 43.98C203.284 43.7267 203.611 43.3733 203.878 42.92L201.038 38.98C200.691 39.06 200.431 39.2333 200.258 39.5C200.098 39.7533 200.018 40.08 200.018 40.48V42.66C200.018 43.1933 200.164 43.6133 200.458 43.92C200.764 44.2133 201.184 44.36 201.718 44.36ZM222.882 46V44.08H225.822V33.32H222.882V31.4H230.962V33.32H228.022V44.08H230.962V46H222.882ZM238.914 37.98C238.394 37.98 237.967 37.8333 237.634 37.54C237.314 37.2467 237.154 36.86 237.154 36.38C237.154 35.9 237.314 35.52 237.634 35.24C237.967 34.9467 238.394 34.8 238.914 34.8C239.447 34.8 239.874 34.9467 240.194 35.24C240.514 35.52 240.674 35.9 240.674 36.38C240.674 36.86 240.514 37.2467 240.194 37.54C239.874 37.8333 239.447 37.98 238.914 37.98ZM238.914 46.2C238.394 46.2 237.967 46.0533 237.634 45.76C237.314 45.4667 237.154 45.0867 237.154 44.62C237.154 44.1267 237.314 43.74 237.634 43.46C237.967 43.1667 238.394 43.02 238.914 43.02C239.447 43.02 239.874 43.1667 240.194 43.46C240.514 43.74 240.674 44.1267 240.674 44.62C240.674 45.0867 240.514 45.4667 240.194 45.76C239.874 46.0533 239.447 46.2 238.914 46.2ZM261.798 46.2C260.652 46.2 259.745 45.9067 259.078 45.32C258.425 44.72 258.098 43.9067 258.098 42.88C258.098 41.84 258.445 41.0267 259.138 40.44C259.845 39.84 260.812 39.54 262.038 39.54H265.098V38.52C265.098 37.92 264.912 37.4533 264.538 37.12C264.165 36.7867 263.638 36.62 262.958 36.62C262.358 36.62 261.858 36.7533 261.458 37.02C261.058 37.2733 260.825 37.6133 260.758 38.04H258.638C258.758 37.0533 259.212 36.2667 259.998 35.68C260.798 35.0933 261.805 34.8 263.018 34.8C264.325 34.8 265.358 35.1333 266.118 35.8C266.878 36.4533 267.258 37.3467 267.258 38.48V46H265.158V43.98H264.798L265.158 43.58C265.158 44.38 264.852 45.02 264.238 45.5C263.625 45.9667 262.812 46.2 261.798 46.2ZM262.438 44.54C263.212 44.54 263.845 44.3467 264.338 43.96C264.845 43.56 265.098 43.0533 265.098 42.44V41H262.078C261.518 41 261.072 41.1533 260.738 41.46C260.418 41.7667 260.258 42.1867 260.258 42.72C260.258 43.28 260.452 43.7267 260.838 44.06C261.225 44.38 261.758 44.54 262.438 44.54ZM284.003 49.6V47.74H287.383C287.943 47.74 288.356 47.6067 288.623 47.34C288.903 47.0733 289.043 46.68 289.043 46.16V45.06L289.083 43.02H288.623L289.063 42.62C289.063 43.46 288.796 44.12 288.263 44.6C287.743 45.08 287.036 45.32 286.143 45.32C285.009 45.32 284.116 44.9467 283.463 44.2C282.809 43.4533 282.483 42.4467 282.483 41.18V38.94C282.483 37.6733 282.809 36.6667 283.463 35.92C284.116 35.1733 285.009 34.8 286.143 34.8C287.036 34.8 287.743 35.0467 288.263 35.54C288.796 36.02 289.063 36.68 289.063 37.52L288.623 37.1H289.063L289.043 35H291.183V46.2C291.183 47.2533 290.849 48.08 290.183 48.68C289.516 49.2933 288.589 49.6 287.403 49.6H284.003ZM286.843 43.46C287.523 43.46 288.056 43.2533 288.443 42.84C288.843 42.4133 289.043 41.8267 289.043 41.08V39.06C289.043 38.3133 288.843 37.7333 288.443 37.32C288.056 36.8933 287.523 36.68 286.843 36.68C286.136 36.68 285.589 36.8867 285.203 37.3C284.829 37.7 284.643 38.2867 284.643 39.06V41.08C284.643 41.84 284.829 42.4267 285.203 42.84C285.589 43.2533 286.136 43.46 286.843 43.46ZM294.915 46V35H296.995V37.1H297.515L296.855 38.4C296.855 37.2133 297.115 36.32 297.635 35.72C298.155 35.1067 298.928 34.8 299.955 34.8C301.128 34.8 302.055 35.1667 302.735 35.9C303.428 36.62 303.775 37.6133 303.775 38.88V39.62H301.555V39.06C301.555 38.2733 301.355 37.6733 300.955 37.26C300.568 36.8333 300.022 36.62 299.315 36.62C298.608 36.62 298.055 36.8333 297.655 37.26C297.268 37.6867 297.075 38.2867 297.075 39.06V46H294.915ZM310.867 46.2C309.974 46.2 309.187 46.0267 308.507 45.68C307.841 45.32 307.327 44.82 306.967 44.18C306.607 43.54 306.427 42.7933 306.427 41.94V39.06C306.427 38.1933 306.607 37.4467 306.967 36.82C307.327 36.18 307.841 35.6867 308.507 35.34C309.187 34.98 309.974 34.8 310.867 34.8C311.774 34.8 312.561 34.98 313.227 35.34C313.894 35.6867 314.407 36.18 314.767 36.82C315.127 37.4467 315.307 38.1933 315.307 39.06V41.02H308.507V41.94C308.507 42.7533 308.707 43.3733 309.107 43.8C309.521 44.2267 310.114 44.44 310.887 44.44C311.514 44.44 312.021 44.3333 312.407 44.12C312.794 43.8933 313.034 43.5667 313.127 43.14H315.267C315.107 44.0733 314.627 44.82 313.827 45.38C313.027 45.9267 312.041 46.2 310.867 46.2ZM313.227 39.72V39.04C313.227 38.24 313.027 37.62 312.627 37.18C312.227 36.74 311.641 36.52 310.867 36.52C310.107 36.52 309.521 36.74 309.107 37.18C308.707 37.62 308.507 38.2467 308.507 39.06V39.56L313.387 39.54L313.227 39.72ZM321.759 46.2C320.613 46.2 319.706 45.9067 319.039 45.32C318.386 44.72 318.059 43.9067 318.059 42.88C318.059 41.84 318.406 41.0267 319.099 40.44C319.806 39.84 320.773 39.54 321.999 39.54H325.059V38.52C325.059 37.92 324.873 37.4533 324.499 37.12C324.126 36.7867 323.599 36.62 322.919 36.62C322.319 36.62 321.819 36.7533 321.419 37.02C321.019 37.2733 320.786 37.6133 320.719 38.04H318.599C318.719 37.0533 319.173 36.2667 319.959 35.68C320.759 35.0933 321.766 34.8 322.979 34.8C324.286 34.8 325.319 35.1333 326.079 35.8C326.839 36.4533 327.219 37.3467 327.219 38.48V46H325.119V43.98H324.759L325.119 43.58C325.119 44.38 324.813 45.02 324.199 45.5C323.586 45.9667 322.773 46.2 321.759 46.2ZM322.399 44.54C323.173 44.54 323.806 44.3467 324.299 43.96C324.806 43.56 325.059 43.0533 325.059 42.44V41H322.039C321.479 41 321.033 41.1533 320.699 41.46C320.379 41.7667 320.219 42.1867 320.219 42.72C320.219 43.28 320.413 43.7267 320.799 44.06C321.186 44.38 321.719 44.54 322.399 44.54ZM336.052 46C335.052 46 334.272 45.7267 333.712 45.18C333.152 44.6333 332.872 43.8733 332.872 42.9V36.96H329.832V35H332.872V31.9H335.032V35H339.332V36.96H335.032V42.9C335.032 43.66 335.398 44.04 336.132 44.04H339.132V46H336.052ZM360.036 46C359.036 46 358.256 45.7267 357.696 45.18C357.136 44.6333 356.856 43.8733 356.856 42.9V36.96H353.816V35H356.856V31.9H359.016V35H363.316V36.96H359.016V42.9C359.016 43.66 359.383 44.04 360.116 44.04H363.116V46H360.036ZM370.828 46.2C369.935 46.2 369.148 46.0267 368.468 45.68C367.801 45.32 367.288 44.82 366.928 44.18C366.568 43.54 366.388 42.7933 366.388 41.94V39.06C366.388 38.1933 366.568 37.4467 366.928 36.82C367.288 36.18 367.801 35.6867 368.468 35.34C369.148 34.98 369.935 34.8 370.828 34.8C371.735 34.8 372.521 34.98 373.188 35.34C373.855 35.6867 374.368 36.18 374.728 36.82C375.088 37.4467 375.268 38.1933 375.268 39.06V41.02H368.468V41.94C368.468 42.7533 368.668 43.3733 369.068 43.8C369.481 44.2267 370.075 44.44 370.848 44.44C371.475 44.44 371.981 44.3333 372.368 44.12C372.755 43.8933 372.995 43.5667 373.088 43.14H375.228C375.068 44.0733 374.588 44.82 373.788 45.38C372.988 45.9267 372.001 46.2 370.828 46.2ZM373.188 39.72V39.04C373.188 38.24 372.988 37.62 372.588 37.18C372.188 36.74 371.601 36.52 370.828 36.52C370.068 36.52 369.481 36.74 369.068 37.18C368.668 37.62 368.468 38.2467 368.468 39.06V39.56L373.348 39.54L373.188 39.72ZM381.72 46.2C380.574 46.2 379.667 45.9067 379 45.32C378.347 44.72 378.02 43.9067 378.02 42.88C378.02 41.84 378.367 41.0267 379.06 40.44C379.767 39.84 380.734 39.54 381.96 39.54H385.02V38.52C385.02 37.92 384.834 37.4533 384.46 37.12C384.087 36.7867 383.56 36.62 382.88 36.62C382.28 36.62 381.78 36.7533 381.38 37.02C380.98 37.2733 380.747 37.6133 380.68 38.04H378.56C378.68 37.0533 379.134 36.2667 379.92 35.68C380.72 35.0933 381.727 34.8 382.94 34.8C384.247 34.8 385.28 35.1333 386.04 35.8C386.8 36.4533 387.18 37.3467 387.18 38.48V46H385.08V43.98H384.72L385.08 43.58C385.08 44.38 384.774 45.02 384.16 45.5C383.547 45.9667 382.734 46.2 381.72 46.2ZM382.36 44.54C383.134 44.54 383.767 44.3467 384.26 43.96C384.767 43.56 385.02 43.0533 385.02 42.44V41H382C381.44 41 380.994 41.1533 380.66 41.46C380.34 41.7667 380.18 42.1867 380.18 42.72C380.18 43.28 380.374 43.7267 380.76 44.06C381.147 44.38 381.68 44.54 382.36 44.54ZM389.993 46V35H391.793V36.4H392.193L391.893 36.82C391.893 36.2067 392.059 35.72 392.393 35.36C392.726 34.9867 393.173 34.8 393.733 34.8C394.333 34.8 394.793 35.0333 395.113 35.5C395.446 35.9667 395.613 36.6067 395.613 37.42L395.133 36.4H395.893L395.573 36.82C395.573 36.2067 395.739 35.72 396.073 35.36C396.419 34.9867 396.879 34.8 397.453 34.8C398.133 34.8 398.666 35.06 399.053 35.58C399.439 36.0867 399.633 36.7667 399.633 37.62V46H397.713V37.68C397.713 37.2667 397.619 36.9467 397.433 36.72C397.259 36.4933 397.006 36.38 396.673 36.38C396.339 36.38 396.079 36.4933 395.893 36.72C395.719 36.9333 395.633 37.2467 395.633 37.66V46H394.013V37.68C394.013 37.2533 393.919 36.9333 393.733 36.72C393.546 36.4933 393.279 36.38 392.933 36.38C392.599 36.38 392.346 36.4933 392.173 36.72C392.013 36.9333 391.933 37.2467 391.933 37.66V46H389.993Z" fill="#5A5C76"/>
<path d="M40.7039 90V87.86L45.2239 83.2C45.9172 82.48 46.4239 81.8333 46.7439 81.26C47.0772 80.6733 47.2439 80.0933 47.2439 79.52C47.2439 78.7733 47.0372 78.1867 46.6239 77.76C46.2239 77.3333 45.6706 77.12 44.9639 77.12C44.1906 77.12 43.5772 77.3467 43.1239 77.8C42.6839 78.24 42.4639 78.8467 42.4639 79.62H40.3039C40.3306 78.7133 40.5372 77.9333 40.9239 77.28C41.3106 76.6133 41.8506 76.1 42.5439 75.74C43.2372 75.38 44.0506 75.2 44.9839 75.2C45.8772 75.2 46.6572 75.3733 47.3239 75.72C47.9906 76.0667 48.5039 76.5533 48.8639 77.18C49.2239 77.8067 49.4039 78.5467 49.4039 79.4C49.4039 80.2667 49.1772 81.1133 48.7239 81.94C48.2839 82.7667 47.5572 83.6867 46.5439 84.7L43.2439 88.04H49.6239V90H40.7039Z" fill="white"/>
<path d="M102.62 90V88.04H106.48V80.96H103.12V79H108.58V88.04H112.12V90H102.62ZM107.32 77.1C106.853 77.1 106.48 76.98 106.2 76.74C105.92 76.4867 105.78 76.1533 105.78 75.74C105.78 75.3133 105.92 74.98 106.2 74.74C106.48 74.4867 106.853 74.36 107.32 74.36C107.787 74.36 108.16 74.4867 108.44 74.74C108.72 74.98 108.86 75.3133 108.86 75.74C108.86 76.1533 108.72 76.4867 108.44 76.74C108.16 76.98 107.787 77.1 107.32 77.1ZM114.172 90V79H115.972V80.4H116.372L116.072 80.82C116.072 80.2067 116.239 79.72 116.572 79.36C116.906 78.9867 117.352 78.8 117.912 78.8C118.512 78.8 118.972 79.0333 119.292 79.5C119.626 79.9667 119.792 80.6067 119.792 81.42L119.312 80.4H120.072L119.752 80.82C119.752 80.2067 119.919 79.72 120.252 79.36C120.599 78.9867 121.059 78.8 121.632 78.8C122.312 78.8 122.846 79.06 123.232 79.58C123.619 80.0867 123.812 80.7667 123.812 81.62V90H121.892V81.68C121.892 81.2667 121.799 80.9467 121.612 80.72C121.439 80.4933 121.186 80.38 120.852 80.38C120.519 80.38 120.259 80.4933 120.072 80.72C119.899 80.9333 119.812 81.2467 119.812 81.66V90H118.192V81.68C118.192 81.2533 118.099 80.9333 117.912 80.72C117.726 80.4933 117.459 80.38 117.112 80.38C116.779 80.38 116.526 80.4933 116.352 80.72C116.192 80.9333 116.112 81.2467 116.112 81.66V90H114.172ZM126.664 93.6V79H128.804V81.1H129.264L128.804 81.6C128.804 80.7333 129.071 80.0533 129.604 79.56C130.151 79.0533 130.878 78.8 131.784 78.8C132.891 78.8 133.771 79.1733 134.424 79.92C135.091 80.6533 135.424 81.66 135.424 82.94V86.04C135.424 86.8933 135.271 87.6333 134.964 88.26C134.671 88.8733 134.251 89.3533 133.704 89.7C133.171 90.0333 132.531 90.2 131.784 90.2C130.891 90.2 130.171 89.9533 129.624 89.46C129.078 88.9533 128.804 88.2667 128.804 87.4L129.264 87.9H128.764L128.824 90.46V93.6H126.664ZM131.044 88.32C131.751 88.32 132.298 88.12 132.684 87.72C133.084 87.3067 133.284 86.7133 133.284 85.94V83.06C133.284 82.2867 133.084 81.7 132.684 81.3C132.298 80.8867 131.751 80.68 131.044 80.68C130.364 80.68 129.824 80.8933 129.424 81.32C129.024 81.7333 128.824 82.3133 128.824 83.06V85.94C128.824 86.6867 129.024 87.2733 129.424 87.7C129.824 88.1133 130.364 88.32 131.044 88.32ZM142.977 90.18C142.07 90.18 141.283 90.0067 140.617 89.66C139.95 89.3133 139.437 88.82 139.077 88.18C138.717 87.54 138.537 86.7867 138.537 85.92V83.08C138.537 82.2 138.717 81.4467 139.077 80.82C139.437 80.18 139.95 79.6867 140.617 79.34C141.283 78.9933 142.07 78.82 142.977 78.82C143.883 78.82 144.67 78.9933 145.337 79.34C146.003 79.6867 146.517 80.18 146.877 80.82C147.237 81.4467 147.417 82.2 147.417 83.08V85.92C147.417 86.7867 147.237 87.54 146.877 88.18C146.517 88.82 146.003 89.3133 145.337 89.66C144.67 90.0067 143.883 90.18 142.977 90.18ZM142.977 88.28C143.71 88.28 144.277 88.08 144.677 87.68C145.077 87.2667 145.277 86.68 145.277 85.92V83.08C145.277 82.3067 145.077 81.72 144.677 81.32C144.277 80.92 143.71 80.72 142.977 80.72C142.257 80.72 141.69 80.92 141.277 81.32C140.877 81.72 140.677 82.3067 140.677 83.08V85.92C140.677 86.68 140.877 87.2667 141.277 87.68C141.69 88.08 142.257 88.28 142.977 88.28ZM151.009 90V79H153.089V81.1H153.609L152.949 82.4C152.949 81.2133 153.209 80.32 153.729 79.72C154.249 79.1067 155.022 78.8 156.049 78.8C157.222 78.8 158.149 79.1667 158.829 79.9C159.522 80.62 159.869 81.6133 159.869 82.88V83.62H157.649V83.06C157.649 82.2733 157.449 81.6733 157.049 81.26C156.662 80.8333 156.115 80.62 155.409 80.62C154.702 80.62 154.149 80.8333 153.749 81.26C153.362 81.6867 153.169 82.2867 153.169 83.06V90H151.009ZM168.161 90C167.161 90 166.381 89.7267 165.821 89.18C165.261 88.6333 164.981 87.8733 164.981 86.9V80.96H161.941V79H164.981V75.9H167.141V79H171.441V80.96H167.141V86.9C167.141 87.66 167.508 88.04 168.241 88.04H171.241V90H168.161ZM249.166 90V82.12H246.046V80.16H249.166V78.38C249.166 77.46 249.46 76.7333 250.046 76.2C250.633 75.6667 251.433 75.4 252.446 75.4H255.666V77.32H252.486C252.113 77.32 251.82 77.4133 251.606 77.6C251.406 77.7867 251.306 78.0533 251.306 78.4V80.16H255.666V82.12H251.306V90H249.166ZM258.938 90V79H261.018V81.1H261.538L260.878 82.4C260.878 81.2133 261.138 80.32 261.658 79.72C262.178 79.1067 262.952 78.8 263.978 78.8C265.152 78.8 266.078 79.1667 266.758 79.9C267.452 80.62 267.798 81.6133 267.798 82.88V83.62H265.578V83.06C265.578 82.2733 265.378 81.6733 264.978 81.26C264.592 80.8333 264.045 80.62 263.338 80.62C262.632 80.62 262.078 80.8333 261.678 81.26C261.292 81.6867 261.098 82.2867 261.098 83.06V90H258.938ZM274.891 90.18C273.984 90.18 273.197 90.0067 272.531 89.66C271.864 89.3133 271.351 88.82 270.991 88.18C270.631 87.54 270.451 86.7867 270.451 85.92V83.08C270.451 82.2 270.631 81.4467 270.991 80.82C271.351 80.18 271.864 79.6867 272.531 79.34C273.197 78.9933 273.984 78.82 274.891 78.82C275.797 78.82 276.584 78.9933 277.251 79.34C277.917 79.6867 278.431 80.18 278.791 80.82C279.151 81.4467 279.331 82.2 279.331 83.08V85.92C279.331 86.7867 279.151 87.54 278.791 88.18C278.431 88.82 277.917 89.3133 277.251 89.66C276.584 90.0067 275.797 90.18 274.891 90.18ZM274.891 88.28C275.624 88.28 276.191 88.08 276.591 87.68C276.991 87.2667 277.191 86.68 277.191 85.92V83.08C277.191 82.3067 276.991 81.72 276.591 81.32C276.191 80.92 275.624 80.72 274.891 80.72C274.171 80.72 273.604 80.92 273.191 81.32C272.791 81.72 272.591 82.3067 272.591 83.08V85.92C272.591 86.68 272.791 87.2667 273.191 87.68C273.604 88.08 274.171 88.28 274.891 88.28ZM282.063 90V79H283.863V80.4H284.263L283.963 80.82C283.963 80.2067 284.129 79.72 284.463 79.36C284.796 78.9867 285.243 78.8 285.803 78.8C286.403 78.8 286.863 79.0333 287.183 79.5C287.516 79.9667 287.683 80.6067 287.683 81.42L287.203 80.4H287.963L287.643 80.82C287.643 80.2067 287.809 79.72 288.143 79.36C288.489 78.9867 288.949 78.8 289.523 78.8C290.203 78.8 290.736 79.06 291.123 79.58C291.509 80.0867 291.703 80.7667 291.703 81.62V90H289.783V81.68C289.783 81.2667 289.689 80.9467 289.503 80.72C289.329 80.4933 289.076 80.38 288.743 80.38C288.409 80.38 288.149 80.4933 287.963 80.72C287.789 80.9333 287.703 81.2467 287.703 81.66V90H286.083V81.68C286.083 81.2533 285.989 80.9333 285.803 80.72C285.616 80.4933 285.349 80.38 285.003 80.38C284.669 80.38 284.416 80.4933 284.243 80.72C284.083 80.9333 284.003 81.2467 284.003 81.66V90H282.063Z" fill="#D87086"/>
<path d="M186.565 90V75.4H189.285L193.545 87.54C193.519 87.1533 193.485 86.6933 193.445 86.16C193.405 85.6267 193.372 85.0733 193.345 84.5C193.332 83.9267 193.325 83.4067 193.325 82.94V75.4H195.325V90H192.605L188.365 77.86C188.392 78.2067 188.419 78.64 188.445 79.16C188.485 79.68 188.512 80.22 188.525 80.78C188.552 81.34 188.565 81.86 188.565 82.34V90H186.565ZM202.938 90.2C202.044 90.2 201.258 90.0267 200.578 89.68C199.911 89.32 199.398 88.82 199.038 88.18C198.678 87.54 198.498 86.7933 198.498 85.94V83.06C198.498 82.1933 198.678 81.4467 199.038 80.82C199.398 80.18 199.911 79.6867 200.578 79.34C201.258 78.98 202.044 78.8 202.938 78.8C203.844 78.8 204.631 78.98 205.298 79.34C205.964 79.6867 206.478 80.18 206.838 80.82C207.198 81.4467 207.378 82.1933 207.378 83.06V85.02H200.578V85.94C200.578 86.7533 200.778 87.3733 201.178 87.8C201.591 88.2267 202.184 88.44 202.958 88.44C203.584 88.44 204.091 88.3333 204.478 88.12C204.864 87.8933 205.104 87.5667 205.198 87.14H207.338C207.178 88.0733 206.698 88.82 205.898 89.38C205.098 89.9267 204.111 90.2 202.938 90.2ZM205.298 83.72V83.04C205.298 82.24 205.098 81.62 204.698 81.18C204.298 80.74 203.711 80.52 202.938 80.52C202.178 80.52 201.591 80.74 201.178 81.18C200.778 81.62 200.578 82.2467 200.578 83.06V83.56L205.458 83.54L205.298 83.72ZM209.79 90L213.65 84.32L210.03 79H212.51L214.45 82.04C214.543 82.2 214.636 82.3733 214.73 82.56C214.823 82.7333 214.896 82.88 214.95 83C214.99 82.88 215.056 82.7333 215.15 82.56C215.243 82.3733 215.336 82.2 215.43 82.04L217.37 79H219.85L216.23 84.34L220.07 90H217.59L215.45 86.7C215.356 86.54 215.263 86.36 215.17 86.16C215.076 85.96 215.003 85.8 214.95 85.68C214.896 85.8 214.816 85.96 214.71 86.16C214.616 86.36 214.516 86.54 214.41 86.7L212.25 90H209.79ZM228.122 90C227.122 90 226.342 89.7267 225.782 89.18C225.222 88.6333 224.942 87.8733 224.942 86.9V80.96H221.902V79H224.942V75.9H227.102V79H231.402V80.96H227.102V86.9C227.102 87.66 227.469 88.04 228.202 88.04H231.202V90H228.122ZM380.08 93.2L381.68 86.98H384.56L381.96 93.2H380.08ZM382.62 81.98C382.154 81.98 381.774 81.8333 381.48 81.54C381.187 81.2333 381.04 80.8467 381.04 80.38C381.04 79.9267 381.187 79.5533 381.48 79.26C381.787 78.9533 382.167 78.8 382.62 78.8H383.02C383.474 78.8 383.847 78.9533 384.14 79.26C384.447 79.5533 384.6 79.9267 384.6 80.38C384.6 80.8467 384.454 81.2333 384.16 81.54C383.867 81.8333 383.487 81.98 383.02 81.98H382.62Z" fill="#AD8FE8"/>
<path d="M309.927 81.4L309.667 78.46V75.4H311.907V78.46L311.687 81.4H309.927ZM318.539 90V79H320.679V81.1H321.199L320.679 81.6C320.679 80.72 320.939 80.0333 321.459 79.54C321.979 79.0467 322.699 78.8 323.619 78.8C324.713 78.8 325.586 79.1533 326.239 79.86C326.893 80.5533 327.219 81.4933 327.219 82.68V90H325.059V82.92C325.059 82.2 324.866 81.6467 324.479 81.26C324.093 80.8733 323.566 80.68 322.899 80.68C322.219 80.68 321.679 80.8867 321.279 81.3C320.893 81.7 320.699 82.2867 320.699 83.06V90H318.539ZM334.852 90.2C333.958 90.2 333.172 90.0267 332.492 89.68C331.825 89.32 331.312 88.82 330.952 88.18C330.592 87.54 330.412 86.7933 330.412 85.94V83.06C330.412 82.1933 330.592 81.4467 330.952 80.82C331.312 80.18 331.825 79.6867 332.492 79.34C333.172 78.98 333.958 78.8 334.852 78.8C335.758 78.8 336.545 78.98 337.212 79.34C337.878 79.6867 338.392 80.18 338.752 80.82C339.112 81.4467 339.292 82.1933 339.292 83.06V85.02H332.492V85.94C332.492 86.7533 332.692 87.3733 333.092 87.8C333.505 88.2267 334.098 88.44 334.872 88.44C335.498 88.44 336.005 88.3333 336.392 88.12C336.778 87.8933 337.018 87.5667 337.112 87.14H339.252C339.092 88.0733 338.612 88.82 337.812 89.38C337.012 89.9267 336.025 90.2 334.852 90.2ZM337.212 83.72V83.04C337.212 82.24 337.012 81.62 336.612 81.18C336.212 80.74 335.625 80.52 334.852 80.52C334.092 80.52 333.505 80.74 333.092 81.18C332.692 81.62 332.492 82.2467 332.492 83.06V83.56L337.372 83.54L337.212 83.72ZM341.704 90L345.564 84.32L341.944 79H344.424L346.364 82.04C346.457 82.2 346.55 82.3733 346.644 82.56C346.737 82.7333 346.81 82.88 346.864 83C346.904 82.88 346.97 82.7333 347.064 82.56C347.157 82.3733 347.25 82.2 347.344 82.04L349.284 79H351.764L348.144 84.34L351.984 90H349.504L347.364 86.7C347.27 86.54 347.177 86.36 347.084 86.16C346.99 85.96 346.917 85.8 346.864 85.68C346.81 85.8 346.73 85.96 346.624 86.16C346.53 86.36 346.43 86.54 346.324 86.7L344.164 90H341.704ZM360.036 90C359.036 90 358.256 89.7267 357.696 89.18C357.136 88.6333 356.856 87.8733 356.856 86.9V80.96H353.816V79H356.856V75.9H359.016V79H363.316V80.96H359.016V86.9C359.016 87.66 359.383 88.04 360.116 88.04H363.116V90H360.036ZM369.888 81.4L369.628 78.46V75.4H371.868V78.46L371.648 81.4H369.888Z" fill="#D8956C"/>
<path d="M44.8239 134.2C43.9039 134.2 43.1039 134.027 42.4239 133.68C41.7439 133.333 41.2172 132.847 40.8439 132.22C40.4839 131.58 40.3039 130.84 40.3039 130H42.4639C42.4639 130.733 42.6706 131.307 43.0839 131.72C43.5106 132.133 44.0972 132.34 44.8439 132.34C45.6039 132.34 46.1906 132.127 46.6039 131.7C47.0172 131.273 47.2239 130.707 47.2239 130V128.92C47.2239 128.173 47.0172 127.6 46.6039 127.2C46.1906 126.787 45.6039 126.58 44.8439 126.58H43.2839V124.54L46.6839 121.3H40.9239V119.4H48.8839V121.44L44.8639 125.22V124.7C46.2506 124.7 47.3506 125.08 48.1639 125.84C48.9772 126.6 49.3839 127.62 49.3839 128.9V130C49.3839 130.84 49.1972 131.58 48.8239 132.22C48.4506 132.847 47.9172 133.333 47.2239 133.68C46.5439 134.027 45.7439 134.2 44.8239 134.2Z" fill="white"/>
<path d="M102.62 134V132.04H106.48V124.96H103.12V123H108.58V132.04H112.12V134H102.62ZM107.32 121.1C106.853 121.1 106.48 120.98 106.2 120.74C105.92 120.487 105.78 120.153 105.78 119.74C105.78 119.313 105.92 118.98 106.2 118.74C106.48 118.487 106.853 118.36 107.32 118.36C107.787 118.36 108.16 118.487 108.44 118.74C108.72 118.98 108.86 119.313 108.86 119.74C108.86 120.153 108.72 120.487 108.44 120.74C108.16 120.98 107.787 121.1 107.32 121.1ZM114.172 134V123H115.972V124.4H116.372L116.072 124.82C116.072 124.207 116.239 123.72 116.572 123.36C116.906 122.987 117.352 122.8 117.912 122.8C118.512 122.8 118.972 123.033 119.292 123.5C119.626 123.967 119.792 124.607 119.792 125.42L119.312 124.4H120.072L119.752 124.82C119.752 124.207 119.919 123.72 120.252 123.36C120.599 122.987 121.059 122.8 121.632 122.8C122.312 122.8 122.846 123.06 123.232 123.58C123.619 124.087 123.812 124.767 123.812 125.62V134H121.892V125.68C121.892 125.267 121.799 124.947 121.612 124.72C121.439 124.493 121.186 124.38 120.852 124.38C120.519 124.38 120.259 124.493 120.072 124.72C119.899 124.933 119.812 125.247 119.812 125.66V134H118.192V125.68C118.192 125.253 118.099 124.933 117.912 124.72C117.726 124.493 117.459 124.38 117.112 124.38C116.779 124.38 116.526 124.493 116.352 124.72C116.192 124.933 116.112 125.247 116.112 125.66V134H114.172ZM126.664 137.6V123H128.804V125.1H129.264L128.804 125.6C128.804 124.733 129.071 124.053 129.604 123.56C130.151 123.053 130.878 122.8 131.784 122.8C132.891 122.8 133.771 123.173 134.424 123.92C135.091 124.653 135.424 125.66 135.424 126.94V130.04C135.424 130.893 135.271 131.633 134.964 132.26C134.671 132.873 134.251 133.353 133.704 133.7C133.171 134.033 132.531 134.2 131.784 134.2C130.891 134.2 130.171 133.953 129.624 133.46C129.078 132.953 128.804 132.267 128.804 131.4L129.264 131.9H128.764L128.824 134.46V137.6H126.664ZM131.044 132.32C131.751 132.32 132.298 132.12 132.684 131.72C133.084 131.307 133.284 130.713 133.284 129.94V127.06C133.284 126.287 133.084 125.7 132.684 125.3C132.298 124.887 131.751 124.68 131.044 124.68C130.364 124.68 129.824 124.893 129.424 125.32C129.024 125.733 128.824 126.313 128.824 127.06V129.94C128.824 130.687 129.024 131.273 129.424 131.7C129.824 132.113 130.364 132.32 131.044 132.32ZM142.977 134.18C142.07 134.18 141.283 134.007 140.617 133.66C139.95 133.313 139.437 132.82 139.077 132.18C138.717 131.54 138.537 130.787 138.537 129.92V127.08C138.537 126.2 138.717 125.447 139.077 124.82C139.437 124.18 139.95 123.687 140.617 123.34C141.283 122.993 142.07 122.82 142.977 122.82C143.883 122.82 144.67 122.993 145.337 123.34C146.003 123.687 146.517 124.18 146.877 124.82C147.237 125.447 147.417 126.2 147.417 127.08V129.92C147.417 130.787 147.237 131.54 146.877 132.18C146.517 132.82 146.003 133.313 145.337 133.66C144.67 134.007 143.883 134.18 142.977 134.18ZM142.977 132.28C143.71 132.28 144.277 132.08 144.677 131.68C145.077 131.267 145.277 130.68 145.277 129.92V127.08C145.277 126.307 145.077 125.72 144.677 125.32C144.277 124.92 143.71 124.72 142.977 124.72C142.257 124.72 141.69 124.92 141.277 125.32C140.877 125.72 140.677 126.307 140.677 127.08V129.92C140.677 130.68 140.877 131.267 141.277 131.68C141.69 132.08 142.257 132.28 142.977 132.28ZM151.009 134V123H153.089V125.1H153.609L152.949 126.4C152.949 125.213 153.209 124.32 153.729 123.72C154.249 123.107 155.022 122.8 156.049 122.8C157.222 122.8 158.149 123.167 158.829 123.9C159.522 124.62 159.869 125.613 159.869 126.88V127.62H157.649V127.06C157.649 126.273 157.449 125.673 157.049 125.26C156.662 124.833 156.115 124.62 155.409 124.62C154.702 124.62 154.149 124.833 153.749 125.26C153.362 125.687 153.169 126.287 153.169 127.06V134H151.009ZM168.161 134C167.161 134 166.381 133.727 165.821 133.18C165.261 132.633 164.981 131.873 164.981 130.9V124.96H161.941V123H164.981V119.9H167.141V123H171.441V124.96H167.141V130.9C167.141 131.66 167.508 132.04 168.241 132.04H171.241V134H168.161ZM261.158 134V126.12H258.038V124.16H261.158V122.38C261.158 121.46 261.452 120.733 262.038 120.2C262.625 119.667 263.425 119.4 264.438 119.4H267.658V121.32H264.478C264.105 121.32 263.812 121.413 263.598 121.6C263.398 121.787 263.298 122.053 263.298 122.4V124.16H267.658V126.12H263.298V134H261.158ZM270.931 134V123H273.011V125.1H273.531L272.871 126.4C272.871 125.213 273.131 124.32 273.651 123.72C274.171 123.107 274.944 122.8 275.971 122.8C277.144 122.8 278.071 123.167 278.751 123.9C279.444 124.62 279.791 125.613 279.791 126.88V127.62H277.571V127.06C277.571 126.273 277.371 125.673 276.971 125.26C276.584 124.833 276.037 124.62 275.331 124.62C274.624 124.62 274.071 124.833 273.671 125.26C273.284 125.687 273.091 126.287 273.091 127.06V134H270.931ZM286.883 134.18C285.976 134.18 285.189 134.007 284.523 133.66C283.856 133.313 283.343 132.82 282.983 132.18C282.623 131.54 282.443 130.787 282.443 129.92V127.08C282.443 126.2 282.623 125.447 282.983 124.82C283.343 124.18 283.856 123.687 284.523 123.34C285.189 122.993 285.976 122.82 286.883 122.82C287.789 122.82 288.576 122.993 289.243 123.34C289.909 123.687 290.423 124.18 290.783 124.82C291.143 125.447 291.323 126.2 291.323 127.08V129.92C291.323 130.787 291.143 131.54 290.783 132.18C290.423 132.82 289.909 133.313 289.243 133.66C288.576 134.007 287.789 134.18 286.883 134.18ZM286.883 132.28C287.616 132.28 288.183 132.08 288.583 131.68C288.983 131.267 289.183 130.68 289.183 129.92V127.08C289.183 126.307 288.983 125.72 288.583 125.32C288.183 124.92 287.616 124.72 286.883 124.72C286.163 124.72 285.596 124.92 285.183 125.32C284.783 125.72 284.583 126.307 284.583 127.08V129.92C284.583 130.68 284.783 131.267 285.183 131.68C285.596 132.08 286.163 132.28 286.883 132.28ZM294.055 134V123H295.855V124.4H296.255L295.955 124.82C295.955 124.207 296.122 123.72 296.455 123.36C296.788 122.987 297.235 122.8 297.795 122.8C298.395 122.8 298.855 123.033 299.175 123.5C299.508 123.967 299.675 124.607 299.675 125.42L299.195 124.4H299.955L299.635 124.82C299.635 124.207 299.802 123.72 300.135 123.36C300.482 122.987 300.942 122.8 301.515 122.8C302.195 122.8 302.728 123.06 303.115 123.58C303.502 124.087 303.695 124.767 303.695 125.62V134H301.775V125.68C301.775 125.267 301.682 124.947 301.495 124.72C301.322 124.493 301.068 124.38 300.735 124.38C300.402 124.38 300.142 124.493 299.955 124.72C299.782 124.933 299.695 125.247 299.695 125.66V134H298.075V125.68C298.075 125.253 297.982 124.933 297.795 124.72C297.608 124.493 297.342 124.38 296.995 124.38C296.662 124.38 296.408 124.493 296.235 124.72C296.075 124.933 295.995 125.247 295.995 125.66V134H294.055Z" fill="#D87086"/>
<path d="M186.625 134V119.4H191.205C192.125 119.4 192.925 119.58 193.605 119.94C194.285 120.287 194.812 120.78 195.185 121.42C195.572 122.06 195.765 122.813 195.765 123.68C195.765 124.653 195.512 125.5 195.005 126.22C194.512 126.927 193.839 127.427 192.985 127.72L195.965 134H193.505L190.845 128H188.785V134H186.625ZM188.785 126.1H191.205C191.925 126.1 192.499 125.887 192.925 125.46C193.352 125.02 193.565 124.44 193.565 123.72C193.565 122.973 193.352 122.387 192.925 121.96C192.499 121.533 191.925 121.32 191.205 121.32H188.785V126.1ZM202.938 134.2C202.044 134.2 201.258 134.027 200.578 133.68C199.911 133.32 199.398 132.82 199.038 132.18C198.678 131.54 198.498 130.793 198.498 129.94V127.06C198.498 126.193 198.678 125.447 199.038 124.82C199.398 124.18 199.911 123.687 200.578 123.34C201.258 122.98 202.044 122.8 202.938 122.8C203.844 122.8 204.631 122.98 205.298 123.34C205.964 123.687 206.478 124.18 206.838 124.82C207.198 125.447 207.378 126.193 207.378 127.06V129.02H200.578V129.94C200.578 130.753 200.778 131.373 201.178 131.8C201.591 132.227 202.184 132.44 202.958 132.44C203.584 132.44 204.091 132.333 204.478 132.12C204.864 131.893 205.104 131.567 205.198 131.14H207.338C207.178 132.073 206.698 132.82 205.898 133.38C205.098 133.927 204.111 134.2 202.938 134.2ZM205.298 127.72V127.04C205.298 126.24 205.098 125.62 204.698 125.18C204.298 124.74 203.711 124.52 202.938 124.52C202.178 124.52 201.591 124.74 201.178 125.18C200.778 125.62 200.578 126.247 200.578 127.06V127.56L205.458 127.54L205.298 127.72ZM213.83 134.2C212.683 134.2 211.776 133.907 211.11 133.32C210.456 132.72 210.13 131.907 210.13 130.88C210.13 129.84 210.476 129.027 211.17 128.44C211.876 127.84 212.843 127.54 214.07 127.54H217.13V126.52C217.13 125.92 216.943 125.453 216.57 125.12C216.196 124.787 215.67 124.62 214.99 124.62C214.39 124.62 213.89 124.753 213.49 125.02C213.09 125.273 212.856 125.613 212.79 126.04H210.67C210.79 125.053 211.243 124.267 212.03 123.68C212.83 123.093 213.836 122.8 215.05 122.8C216.356 122.8 217.39 123.133 218.15 123.8C218.91 124.453 219.29 125.347 219.29 126.48V134H217.19V131.98H216.83L217.19 131.58C217.19 132.38 216.883 133.02 216.27 133.5C215.656 133.967 214.843 134.2 213.83 134.2ZM214.47 132.54C215.243 132.54 215.876 132.347 216.37 131.96C216.876 131.56 217.13 131.053 217.13 130.44V129H214.11C213.55 129 213.103 129.153 212.77 129.46C212.45 129.767 212.29 130.187 212.29 130.72C212.29 131.28 212.483 131.727 212.87 132.06C213.256 132.38 213.79 132.54 214.47 132.54ZM227.002 134.2C226.095 134.2 225.295 134.033 224.602 133.7C223.922 133.353 223.395 132.86 223.022 132.22C222.662 131.567 222.482 130.807 222.482 129.94V127.06C222.482 126.18 222.662 125.42 223.022 124.78C223.395 124.14 223.922 123.653 224.602 123.32C225.295 122.973 226.095 122.8 227.002 122.8C228.322 122.8 229.382 123.147 230.182 123.84C230.982 124.533 231.402 125.48 231.442 126.68H229.282C229.242 126.053 229.022 125.567 228.622 125.22C228.222 124.873 227.682 124.7 227.002 124.7C226.269 124.7 225.689 124.907 225.262 125.32C224.835 125.72 224.622 126.293 224.622 127.04V129.94C224.622 130.687 224.835 131.267 225.262 131.68C225.689 132.093 226.269 132.3 227.002 132.3C227.682 132.3 228.222 132.127 228.622 131.78C229.022 131.433 229.242 130.947 229.282 130.32H231.442C231.402 131.52 230.982 132.467 230.182 133.16C229.382 133.853 228.322 134.2 227.002 134.2ZM240.114 134C239.114 134 238.334 133.727 237.774 133.18C237.214 132.633 236.934 131.873 236.934 130.9V124.96H233.894V123H236.934V119.9H239.094V123H243.394V124.96H239.094V130.9C239.094 131.66 239.461 132.04 240.194 132.04H243.194V134H240.114ZM404.065 137.2L405.665 130.98H408.545L405.945 137.2H404.065ZM406.605 125.98C406.138 125.98 405.758 125.833 405.465 125.54C405.171 125.233 405.025 124.847 405.025 124.38C405.025 123.927 405.171 123.553 405.465 123.26C405.771 122.953 406.151 122.8 406.605 122.8H407.005C407.458 122.8 407.831 122.953 408.125 123.26C408.431 123.553 408.585 123.927 408.585 124.38C408.585 124.847 408.438 125.233 408.145 125.54C407.851 125.833 407.471 125.98 407.005 125.98H406.605Z" fill="#AD8FE8"/>
<path d="M321.919 125.4L321.659 122.46V119.4H323.899V122.46L323.679 125.4H321.919ZM330.892 134V123H332.972V125.1H333.492L332.832 126.4C332.832 125.213 333.092 124.32 333.612 123.72C334.132 123.107 334.905 122.8 335.932 122.8C337.105 122.8 338.032 123.167 338.712 123.9C339.405 124.62 339.752 125.613 339.752 126.88V127.62H337.532V127.06C337.532 126.273 337.332 125.673 336.932 125.26C336.545 124.833 335.998 124.62 335.292 124.62C334.585 124.62 334.032 124.833 333.632 125.26C333.245 125.687 333.052 126.287 333.052 127.06V134H330.892ZM346.844 134.2C345.95 134.2 345.164 134.027 344.484 133.68C343.817 133.32 343.304 132.82 342.944 132.18C342.584 131.54 342.404 130.793 342.404 129.94V127.06C342.404 126.193 342.584 125.447 342.944 124.82C343.304 124.18 343.817 123.687 344.484 123.34C345.164 122.98 345.95 122.8 346.844 122.8C347.75 122.8 348.537 122.98 349.204 123.34C349.87 123.687 350.384 124.18 350.744 124.82C351.104 125.447 351.284 126.193 351.284 127.06V129.02H344.484V129.94C344.484 130.753 344.684 131.373 345.084 131.8C345.497 132.227 346.09 132.44 346.864 132.44C347.49 132.44 347.997 132.333 348.384 132.12C348.77 131.893 349.01 131.567 349.104 131.14H351.244C351.084 132.073 350.604 132.82 349.804 133.38C349.004 133.927 348.017 134.2 346.844 134.2ZM349.204 127.72V127.04C349.204 126.24 349.004 125.62 348.604 125.18C348.204 124.74 347.617 124.52 346.844 124.52C346.084 124.52 345.497 124.74 345.084 125.18C344.684 125.62 344.484 126.247 344.484 127.06V127.56L349.364 127.54L349.204 127.72ZM357.736 134.2C356.589 134.2 355.683 133.907 355.016 133.32C354.363 132.72 354.036 131.907 354.036 130.88C354.036 129.84 354.383 129.027 355.076 128.44C355.783 127.84 356.749 127.54 357.976 127.54H361.036V126.52C361.036 125.92 360.849 125.453 360.476 125.12C360.103 124.787 359.576 124.62 358.896 124.62C358.296 124.62 357.796 124.753 357.396 125.02C356.996 125.273 356.763 125.613 356.696 126.04H354.576C354.696 125.053 355.149 124.267 355.936 123.68C356.736 123.093 357.743 122.8 358.956 122.8C360.263 122.8 361.296 123.133 362.056 123.8C362.816 124.453 363.196 125.347 363.196 126.48V134H361.096V131.98H360.736L361.096 131.58C361.096 132.38 360.789 133.02 360.176 133.5C359.563 133.967 358.749 134.2 357.736 134.2ZM358.376 132.54C359.149 132.54 359.783 132.347 360.276 131.96C360.783 131.56 361.036 131.053 361.036 130.44V129H358.016C357.456 129 357.009 129.153 356.676 129.46C356.356 129.767 356.196 130.187 356.196 130.72C356.196 131.28 356.389 131.727 356.776 132.06C357.163 132.38 357.696 132.54 358.376 132.54ZM370.908 134.2C370.001 134.2 369.201 134.033 368.508 133.7C367.828 133.353 367.301 132.86 366.928 132.22C366.568 131.567 366.388 130.807 366.388 129.94V127.06C366.388 126.18 366.568 125.42 366.928 124.78C367.301 124.14 367.828 123.653 368.508 123.32C369.201 122.973 370.001 122.8 370.908 122.8C372.228 122.8 373.288 123.147 374.088 123.84C374.888 124.533 375.308 125.48 375.348 126.68H373.188C373.148 126.053 372.928 125.567 372.528 125.22C372.128 124.873 371.588 124.7 370.908 124.7C370.175 124.7 369.595 124.907 369.168 125.32C368.741 125.72 368.528 126.293 368.528 127.04V129.94C368.528 130.687 368.741 131.267 369.168 131.68C369.595 132.093 370.175 132.3 370.908 132.3C371.588 132.3 372.128 132.127 372.528 131.78C372.928 131.433 373.148 130.947 373.188 130.32H375.348C375.308 131.52 374.888 132.467 374.088 133.16C373.288 133.853 372.228 134.2 370.908 134.2ZM384.02 134C383.02 134 382.24 133.727 381.68 133.18C381.12 132.633 380.84 131.873 380.84 130.9V124.96H377.8V123H380.84V119.9H383V123H387.3V124.96H383V130.9C383 131.66 383.367 132.04 384.1 132.04H387.1V134H384.02ZM393.873 125.4L393.613 122.46V119.4H395.853V122.46L395.633 125.4H393.873Z" fill="#D8956C"/>
<path d="M47.0039 178V174.96H40.4639V171.72L46.1439 163.4H48.5439L42.5439 172.24V173.02H47.0039V169.6H49.1439V178H47.0039Z" fill="white"/>
<path d="M44.9639 222.2C43.6972 222.2 42.6706 221.88 41.8839 221.24C41.0972 220.587 40.6572 219.713 40.5639 218.62H42.7039C42.7706 219.153 42.9972 219.567 43.3839 219.86C43.7706 220.153 44.3039 220.3 44.9839 220.3C45.7439 220.3 46.3172 220.1 46.7039 219.7C47.1039 219.287 47.3039 218.713 47.3039 217.98V216.56C47.3039 215.813 47.1106 215.24 46.7239 214.84C46.3372 214.427 45.7639 214.22 45.0039 214.22C44.5239 214.22 44.1106 214.333 43.7639 214.56C43.4172 214.773 43.1639 215.073 43.0039 215.46H40.8639L40.9639 207.4H48.9239V209.36H43.0239L42.9839 213.9H43.5439L42.9639 214.42C42.9639 213.793 43.2106 213.3 43.7039 212.94C44.1972 212.58 44.8572 212.4 45.6839 212.4C46.8706 212.4 47.7906 212.767 48.4439 213.5C49.1106 214.22 49.4439 215.24 49.4439 216.56V217.98C49.4439 219.273 49.0506 220.3 48.2639 221.06C47.4772 221.82 46.3772 222.2 44.9639 222.2Z" fill="white"/>
<path d="M107.08 215.2C106.173 215.2 105.373 215.033 104.68 214.7C104 214.353 103.473 213.86 103.1 213.22C102.74 212.567 102.56 211.807 102.56 210.94V208.06C102.56 207.18 102.74 206.42 103.1 205.78C103.473 205.14 104 204.653 104.68 204.32C105.373 203.973 106.173 203.8 107.08 203.8C108.4 203.8 109.46 204.147 110.26 204.84C111.06 205.533 111.48 206.48 111.52 207.68H109.36C109.32 207.053 109.1 206.567 108.7 206.22C108.3 205.873 107.76 205.7 107.08 205.7C106.347 205.7 105.767 205.907 105.34 206.32C104.913 206.72 104.7 207.293 104.7 208.04V210.94C104.7 211.687 104.913 212.267 105.34 212.68C105.767 213.093 106.347 213.3 107.08 213.3C107.76 213.3 108.3 213.127 108.7 212.78C109.1 212.433 109.32 211.947 109.36 211.32H111.52C111.48 212.52 111.06 213.467 110.26 214.16C109.46 214.853 108.4 215.2 107.08 215.2ZM118.992 215.18C118.086 215.18 117.299 215.007 116.632 214.66C115.966 214.313 115.452 213.82 115.092 213.18C114.732 212.54 114.552 211.787 114.552 210.92V208.08C114.552 207.2 114.732 206.447 115.092 205.82C115.452 205.18 115.966 204.687 116.632 204.34C117.299 203.993 118.086 203.82 118.992 203.82C119.899 203.82 120.686 203.993 121.352 204.34C122.019 204.687 122.532 205.18 122.892 205.82C123.252 206.447 123.432 207.2 123.432 208.08V210.92C123.432 211.787 123.252 212.54 122.892 213.18C122.532 213.82 122.019 214.313 121.352 214.66C120.686 215.007 119.899 215.18 118.992 215.18ZM118.992 213.28C119.726 213.28 120.292 213.08 120.692 212.68C121.092 212.267 121.292 211.68 121.292 210.92V208.08C121.292 207.307 121.092 206.72 120.692 206.32C120.292 205.92 119.726 205.72 118.992 205.72C118.272 205.72 117.706 205.92 117.292 206.32C116.892 206.72 116.692 207.307 116.692 208.08V210.92C116.692 211.68 116.892 212.267 117.292 212.68C117.706 213.08 118.272 213.28 118.992 213.28ZM126.664 215V204H128.804V206.1H129.324L128.804 206.6C128.804 205.72 129.064 205.033 129.584 204.54C130.104 204.047 130.824 203.8 131.744 203.8C132.838 203.8 133.711 204.153 134.364 204.86C135.018 205.553 135.344 206.493 135.344 207.68V215H133.184V207.92C133.184 207.2 132.991 206.647 132.604 206.26C132.218 205.873 131.691 205.68 131.024 205.68C130.344 205.68 129.804 205.887 129.404 206.3C129.018 206.7 128.824 207.287 128.824 208.06V215H126.664ZM142.597 215.18C141.81 215.18 141.117 215.053 140.517 214.8C139.93 214.547 139.463 214.2 139.117 213.76C138.783 213.307 138.59 212.773 138.537 212.16H140.697C140.75 212.52 140.943 212.813 141.277 213.04C141.61 213.253 142.05 213.36 142.597 213.36H143.457C144.11 213.36 144.603 213.227 144.937 212.96C145.27 212.693 145.437 212.34 145.437 211.9C145.437 211.473 145.283 211.14 144.977 210.9C144.683 210.647 144.243 210.48 143.657 210.4L142.237 210.18C141.063 209.993 140.197 209.66 139.637 209.18C139.09 208.687 138.817 207.96 138.817 207C138.817 205.987 139.143 205.207 139.797 204.66C140.463 204.1 141.443 203.82 142.737 203.82H143.497C144.643 203.82 145.557 204.087 146.237 204.62C146.93 205.14 147.323 205.84 147.417 206.72H145.257C145.203 206.4 145.023 206.14 144.717 205.94C144.423 205.74 144.017 205.64 143.497 205.64H142.737C142.11 205.64 141.65 205.76 141.357 206C141.077 206.227 140.937 206.567 140.937 207.02C140.937 207.42 141.063 207.72 141.317 207.92C141.57 208.12 141.963 208.26 142.497 208.34L143.957 208.58C145.197 208.753 146.103 209.1 146.677 209.62C147.263 210.127 147.557 210.867 147.557 211.84C147.557 212.893 147.21 213.713 146.517 214.3C145.837 214.887 144.817 215.18 143.457 215.18H142.597ZM156.169 215C155.169 215 154.389 214.727 153.829 214.18C153.269 213.633 152.989 212.873 152.989 211.9V205.96H149.949V204H152.989V200.9H155.149V204H159.449V205.96H155.149V211.9C155.149 212.66 155.515 213.04 156.249 213.04H159.249V215H156.169Z" fill="#D87086"/>
<path d="M178.173 215.2C177.066 215.2 176.18 214.827 175.513 214.08C174.846 213.333 174.513 212.327 174.513 211.06V207.96C174.513 206.68 174.846 205.667 175.513 204.92C176.18 204.173 177.066 203.8 178.173 203.8C179.08 203.8 179.8 204.053 180.333 204.56C180.866 205.053 181.133 205.733 181.133 206.6L180.673 206.1H181.173L181.113 203.54V200.4H183.273V215H181.133V212.9H180.673L181.133 212.4C181.133 213.267 180.866 213.953 180.333 214.46C179.8 214.953 179.08 215.2 178.173 215.2ZM178.913 213.32C179.593 213.32 180.126 213.113 180.513 212.7C180.913 212.273 181.113 211.687 181.113 210.94V208.06C181.113 207.313 180.913 206.733 180.513 206.32C180.126 205.893 179.593 205.68 178.913 205.68C178.206 205.68 177.653 205.887 177.253 206.3C176.853 206.7 176.653 207.287 176.653 208.06V210.94C176.653 211.713 176.853 212.307 177.253 212.72C177.653 213.12 178.206 213.32 178.913 213.32ZM186.985 215V204H189.065V206.1H189.585L188.925 207.4C188.925 206.213 189.185 205.32 189.705 204.72C190.225 204.107 190.999 203.8 192.025 203.8C193.199 203.8 194.125 204.167 194.805 204.9C195.499 205.62 195.845 206.613 195.845 207.88V208.62H193.625V208.06C193.625 207.273 193.425 206.673 193.025 206.26C192.639 205.833 192.092 205.62 191.385 205.62C190.679 205.62 190.125 205.833 189.725 206.26C189.339 206.687 189.145 207.287 189.145 208.06V215H186.985ZM202.938 215.2C202.044 215.2 201.258 215.027 200.578 214.68C199.911 214.32 199.398 213.82 199.038 213.18C198.678 212.54 198.498 211.793 198.498 210.94V208.06C198.498 207.193 198.678 206.447 199.038 205.82C199.398 205.18 199.911 204.687 200.578 204.34C201.258 203.98 202.044 203.8 202.938 203.8C203.844 203.8 204.631 203.98 205.298 204.34C205.964 204.687 206.478 205.18 206.838 205.82C207.198 206.447 207.378 207.193 207.378 208.06V210.02H200.578V210.94C200.578 211.753 200.778 212.373 201.178 212.8C201.591 213.227 202.184 213.44 202.958 213.44C203.584 213.44 204.091 213.333 204.478 213.12C204.864 212.893 205.104 212.567 205.198 212.14H207.338C207.178 213.073 206.698 213.82 205.898 214.38C205.098 214.927 204.111 215.2 202.938 215.2ZM205.298 208.72V208.04C205.298 207.24 205.098 206.62 204.698 206.18C204.298 205.74 203.711 205.52 202.938 205.52C202.178 205.52 201.591 205.74 201.178 206.18C200.778 206.62 200.578 207.247 200.578 208.06V208.56L205.458 208.54L205.298 208.72ZM213.83 215.2C212.683 215.2 211.776 214.907 211.11 214.32C210.456 213.72 210.13 212.907 210.13 211.88C210.13 210.84 210.476 210.027 211.17 209.44C211.876 208.84 212.843 208.54 214.07 208.54H217.13V207.52C217.13 206.92 216.943 206.453 216.57 206.12C216.196 205.787 215.67 205.62 214.99 205.62C214.39 205.62 213.89 205.753 213.49 206.02C213.09 206.273 212.856 206.613 212.79 207.04H210.67C210.79 206.053 211.243 205.267 212.03 204.68C212.83 204.093 213.836 203.8 215.05 203.8C216.356 203.8 217.39 204.133 218.15 204.8C218.91 205.453 219.29 206.347 219.29 207.48V215H217.19V212.98H216.83L217.19 212.58C217.19 213.38 216.883 214.02 216.27 214.5C215.656 214.967 214.843 215.2 213.83 215.2ZM214.47 213.54C215.243 213.54 215.876 213.347 216.37 212.96C216.876 212.56 217.13 212.053 217.13 211.44V210H214.11C213.55 210 213.103 210.153 212.77 210.46C212.45 210.767 212.29 211.187 212.29 211.72C212.29 212.28 212.483 212.727 212.87 213.06C213.256 213.38 213.79 213.54 214.47 213.54ZM222.102 215V204H223.902V205.4H224.302L224.002 205.82C224.002 205.207 224.169 204.72 224.502 204.36C224.835 203.987 225.282 203.8 225.842 203.8C226.442 203.8 226.902 204.033 227.222 204.5C227.555 204.967 227.722 205.607 227.722 206.42L227.242 205.4H228.002L227.682 205.82C227.682 205.207 227.849 204.72 228.182 204.36C228.529 203.987 228.989 203.8 229.562 203.8C230.242 203.8 230.775 204.06 231.162 204.58C231.549 205.087 231.742 205.767 231.742 206.62V215H229.822V206.68C229.822 206.267 229.729 205.947 229.542 205.72C229.369 205.493 229.115 205.38 228.782 205.38C228.449 205.38 228.189 205.493 228.002 205.72C227.829 205.933 227.742 206.247 227.742 206.66V215H226.122V206.68C226.122 206.253 226.029 205.933 225.842 205.72C225.655 205.493 225.389 205.38 225.042 205.38C224.709 205.38 224.455 205.493 224.282 205.72C224.122 205.933 224.042 206.247 224.042 206.66V215H222.102ZM246.586 206.94V205H255.226V206.94H246.586ZM246.586 211.8V209.86H255.226V211.8H246.586Z" fill="white"/>
<path d="M273.951 206.4L273.691 203.46V200.4H275.931V203.46L275.711 206.4H273.951ZM285.803 215V202.38H281.903V200.38H291.863V202.38H287.963V215H285.803ZM298.855 215.2C297.535 215.2 296.482 214.82 295.695 214.06C294.908 213.287 294.515 212.24 294.515 210.92V204H296.675V210.92C296.675 211.68 296.868 212.273 297.255 212.7C297.642 213.113 298.175 213.32 298.855 213.32C299.548 213.32 300.088 213.113 300.475 212.7C300.875 212.273 301.075 211.68 301.075 210.92V204H303.235V210.92C303.235 212.24 302.835 213.287 302.035 214.06C301.248 214.82 300.188 215.2 298.855 215.2ZM306.907 215V204H308.987V206.1H309.507L308.847 207.4C308.847 206.213 309.107 205.32 309.627 204.72C310.147 204.107 310.921 203.8 311.947 203.8C313.121 203.8 314.047 204.167 314.727 204.9C315.421 205.62 315.767 206.613 315.767 207.88V208.62H313.547V208.06C313.547 207.273 313.347 206.673 312.947 206.26C312.561 205.833 312.014 205.62 311.307 205.62C310.601 205.62 310.047 205.833 309.647 206.26C309.261 206.687 309.067 207.287 309.067 208.06V215H306.907ZM318.539 215V204H320.679V206.1H321.199L320.679 206.6C320.679 205.72 320.939 205.033 321.459 204.54C321.979 204.047 322.699 203.8 323.619 203.8C324.713 203.8 325.586 204.153 326.239 204.86C326.893 205.553 327.219 206.493 327.219 207.68V215H325.059V207.92C325.059 207.2 324.866 206.647 324.479 206.26C324.093 205.873 323.566 205.68 322.899 205.68C322.219 205.68 321.679 205.887 321.279 206.3C320.893 206.7 320.699 207.287 320.699 208.06V215H318.539ZM330.472 215V213.04H334.332V205.96H330.972V204H336.432V213.04H339.972V215H330.472ZM335.172 202.1C334.705 202.1 334.332 201.98 334.052 201.74C333.772 201.487 333.632 201.153 333.632 200.74C333.632 200.313 333.772 199.98 334.052 199.74C334.332 199.487 334.705 199.36 335.172 199.36C335.638 199.36 336.012 199.487 336.292 199.74C336.572 199.98 336.712 200.313 336.712 200.74C336.712 201.153 336.572 201.487 336.292 201.74C336.012 201.98 335.638 202.1 335.172 202.1ZM342.524 215V204H344.664V206.1H345.184L344.664 206.6C344.664 205.72 344.924 205.033 345.444 204.54C345.964 204.047 346.684 203.8 347.604 203.8C348.697 203.8 349.57 204.153 350.224 204.86C350.877 205.553 351.204 206.493 351.204 207.68V215H349.044V207.92C349.044 207.2 348.85 206.647 348.464 206.26C348.077 205.873 347.55 205.68 346.884 205.68C346.204 205.68 345.664 205.887 345.264 206.3C344.877 206.7 344.684 207.287 344.684 208.06V215H342.524ZM355.956 218.6V216.74H359.336C359.896 216.74 360.309 216.607 360.576 216.34C360.856 216.073 360.996 215.68 360.996 215.16V214.06L361.036 212.02H360.576L361.016 211.62C361.016 212.46 360.749 213.12 360.216 213.6C359.696 214.08 358.989 214.32 358.096 214.32C356.963 214.32 356.069 213.947 355.416 213.2C354.763 212.453 354.436 211.447 354.436 210.18V207.94C354.436 206.673 354.763 205.667 355.416 204.92C356.069 204.173 356.963 203.8 358.096 203.8C358.989 203.8 359.696 204.047 360.216 204.54C360.749 205.02 361.016 205.68 361.016 206.52L360.576 206.1H361.016L360.996 204H363.136V215.2C363.136 216.253 362.803 217.08 362.136 217.68C361.469 218.293 360.543 218.6 359.356 218.6H355.956ZM358.796 212.46C359.476 212.46 360.009 212.253 360.396 211.84C360.796 211.413 360.996 210.827 360.996 210.08V208.06C360.996 207.313 360.796 206.733 360.396 206.32C360.009 205.893 359.476 205.68 358.796 205.68C358.089 205.68 357.543 205.887 357.156 206.3C356.783 206.7 356.596 207.287 356.596 208.06V210.08C356.596 210.84 356.783 211.427 357.156 211.84C357.543 212.253 358.089 212.46 358.796 212.46ZM378.44 215V213.04H382.3V205.96H378.94V204H384.4V213.04H387.94V215H378.44ZM383.14 202.1C382.674 202.1 382.3 201.98 382.02 201.74C381.74 201.487 381.6 201.153 381.6 200.74C381.6 200.313 381.74 199.98 382.02 199.74C382.3 199.487 382.674 199.36 383.14 199.36C383.607 199.36 383.98 199.487 384.26 199.74C384.54 199.98 384.68 200.313 384.68 200.74C384.68 201.153 384.54 201.487 384.26 201.74C383.98 201.98 383.607 202.1 383.14 202.1ZM394.033 215.2C392.926 215.2 392.039 214.827 391.373 214.08C390.706 213.333 390.373 212.327 390.373 211.06V207.96C390.373 206.68 390.706 205.667 391.373 204.92C392.039 204.173 392.926 203.8 394.033 203.8C394.939 203.8 395.659 204.053 396.193 204.56C396.726 205.053 396.993 205.733 396.993 206.6L396.533 206.1H397.033L396.973 203.54V200.4H399.133V215H396.993V212.9H396.533L396.993 212.4C396.993 213.267 396.726 213.953 396.193 214.46C395.659 214.953 394.939 215.2 394.033 215.2ZM394.773 213.32C395.453 213.32 395.986 213.113 396.373 212.7C396.773 212.273 396.973 211.687 396.973 210.94V208.06C396.973 207.313 396.773 206.733 396.373 206.32C395.986 205.893 395.453 205.68 394.773 205.68C394.066 205.68 393.513 205.887 393.113 206.3C392.713 206.7 392.513 207.287 392.513 208.06V210.94C392.513 211.713 392.713 212.307 393.113 212.72C393.513 213.12 394.066 213.32 394.773 213.32ZM406.805 215.2C405.911 215.2 405.125 215.027 404.445 214.68C403.778 214.32 403.265 213.82 402.905 213.18C402.545 212.54 402.365 211.793 402.365 210.94V208.06C402.365 207.193 402.545 206.447 402.905 205.82C403.265 205.18 403.778 204.687 404.445 204.34C405.125 203.98 405.911 203.8 406.805 203.8C407.711 203.8 408.498 203.98 409.165 204.34C409.831 204.687 410.345 205.18 410.705 205.82C411.065 206.447 411.245 207.193 411.245 208.06V210.02H404.445V210.94C404.445 211.753 404.645 212.373 405.045 212.8C405.458 213.227 406.051 213.44 406.825 213.44C407.451 213.44 407.958 213.333 408.345 213.12C408.731 212.893 408.971 212.567 409.065 212.14H411.205C411.045 213.073 410.565 213.82 409.765 214.38C408.965 214.927 407.978 215.2 406.805 215.2ZM409.165 208.72V208.04C409.165 207.24 408.965 206.62 408.565 206.18C408.165 205.74 407.578 205.52 406.805 205.52C406.045 205.52 405.458 205.74 405.045 206.18C404.645 206.62 404.445 207.247 404.445 208.06V208.56L409.325 208.54L409.165 208.72ZM417.697 215.2C416.55 215.2 415.644 214.907 414.977 214.32C414.324 213.72 413.997 212.907 413.997 211.88C413.997 210.84 414.344 210.027 415.037 209.44C415.744 208.84 416.71 208.54 417.937 208.54H420.997V207.52C420.997 206.92 420.81 206.453 420.437 206.12C420.064 205.787 419.537 205.62 418.857 205.62C418.257 205.62 417.757 205.753 417.357 206.02C416.957 206.273 416.724 206.613 416.657 207.04H414.537C414.657 206.053 415.11 205.267 415.897 204.68C416.697 204.093 417.704 203.8 418.917 203.8C420.224 203.8 421.257 204.133 422.017 204.8C422.777 205.453 423.157 206.347 423.157 207.48V215H421.057V212.98H420.697L421.057 212.58C421.057 213.38 420.75 214.02 420.137 214.5C419.524 214.967 418.71 215.2 417.697 215.2ZM418.337 213.54C419.11 213.54 419.744 213.347 420.237 212.96C420.744 212.56 420.997 212.053 420.997 211.44V210H417.977C417.417 210 416.97 210.153 416.637 210.46C416.317 210.767 416.157 211.187 416.157 211.72C416.157 212.28 416.35 212.727 416.737 213.06C417.124 213.38 417.657 213.54 418.337 213.54ZM430.409 215.18C429.622 215.18 428.929 215.053 428.329 214.8C427.742 214.547 427.276 214.2 426.929 213.76C426.596 213.307 426.402 212.773 426.349 212.16H428.509C428.562 212.52 428.756 212.813 429.089 213.04C429.422 213.253 429.862 213.36 430.409 213.36H431.269C431.922 213.36 432.416 213.227 432.749 212.96C433.082 212.693 433.249 212.34 433.249 211.9C433.249 211.473 433.096 211.14 432.789 210.9C432.496 210.647 432.056 210.48 431.469 210.4L430.049 210.18C428.876 209.993 428.009 209.66 427.449 209.18C426.902 208.687 426.629 207.96 426.629 207C426.629 205.987 426.956 205.207 427.609 204.66C428.276 204.1 429.256 203.82 430.549 203.82H431.309C432.456 203.82 433.369 204.087 434.049 204.62C434.742 205.14 435.136 205.84 435.229 206.72H433.069C433.016 206.4 432.836 206.14 432.529 205.94C432.236 205.74 431.829 205.64 431.309 205.64H430.549C429.922 205.64 429.462 205.76 429.169 206C428.889 206.227 428.749 206.567 428.749 207.02C428.749 207.42 428.876 207.72 429.129 207.92C429.382 208.12 429.776 208.26 430.309 208.34L431.769 208.58C433.009 208.753 433.916 209.1 434.489 209.62C435.076 210.127 435.369 210.867 435.369 211.84C435.369 212.893 435.022 213.713 434.329 214.3C433.649 214.887 432.629 215.18 431.269 215.18H430.409ZM450.393 215V213.04H454.253V205.96H450.893V204H456.353V213.04H459.893V215H450.393ZM455.093 202.1C454.627 202.1 454.253 201.98 453.973 201.74C453.693 201.487 453.553 201.153 453.553 200.74C453.553 200.313 453.693 199.98 453.973 199.74C454.253 199.487 454.627 199.36 455.093 199.36C455.56 199.36 455.933 199.487 456.213 199.74C456.493 199.98 456.633 200.313 456.633 200.74C456.633 201.153 456.493 201.487 456.213 201.74C455.933 201.98 455.56 202.1 455.093 202.1ZM462.446 215V204H464.586V206.1H465.106L464.586 206.6C464.586 205.72 464.846 205.033 465.366 204.54C465.886 204.047 466.606 203.8 467.526 203.8C468.619 203.8 469.492 204.153 470.146 204.86C470.799 205.553 471.126 206.493 471.126 207.68V215H468.966V207.92C468.966 207.2 468.772 206.647 468.386 206.26C467.999 205.873 467.472 205.68 466.806 205.68C466.126 205.68 465.586 205.887 465.186 206.3C464.799 206.7 464.606 207.287 464.606 208.06V215H462.446ZM479.958 215C478.958 215 478.178 214.727 477.618 214.18C477.058 213.633 476.778 212.873 476.778 211.9V205.96H473.738V204H476.778V200.9H478.938V204H483.238V205.96H478.938V211.9C478.938 212.66 479.304 213.04 480.038 213.04H483.038V215H479.958ZM490.75 215.18C489.843 215.18 489.057 215.007 488.39 214.66C487.723 214.313 487.21 213.82 486.85 213.18C486.49 212.54 486.31 211.787 486.31 210.92V208.08C486.31 207.2 486.49 206.447 486.85 205.82C487.21 205.18 487.723 204.687 488.39 204.34C489.057 203.993 489.843 203.82 490.75 203.82C491.657 203.82 492.443 203.993 493.11 204.34C493.777 204.687 494.29 205.18 494.65 205.82C495.01 206.447 495.19 207.2 495.19 208.08V210.92C495.19 211.787 495.01 212.54 494.65 213.18C494.29 213.82 493.777 214.313 493.11 214.66C492.443 215.007 491.657 215.18 490.75 215.18ZM490.75 213.28C491.483 213.28 492.05 213.08 492.45 212.68C492.85 212.267 493.05 211.68 493.05 210.92V208.08C493.05 207.307 492.85 206.72 492.45 206.32C492.05 205.92 491.483 205.72 490.75 205.72C490.03 205.72 489.463 205.92 489.05 206.32C488.65 206.72 488.45 207.307 488.45 208.08V210.92C488.45 211.68 488.65 212.267 489.05 212.68C489.463 213.08 490.03 213.28 490.75 213.28ZM103.26 239L101.56 228H103.38L104.4 235.26C104.453 235.593 104.5 235.967 104.54 236.38C104.593 236.78 104.633 237.113 104.66 237.38C104.687 237.113 104.727 236.78 104.78 236.38C104.847 235.98 104.907 235.607 104.96 235.26L106.1 228H107.92L109.04 235.26C109.093 235.607 109.147 235.987 109.2 236.4C109.267 236.8 109.313 237.133 109.34 237.4C109.367 237.12 109.407 236.78 109.46 236.38C109.527 235.967 109.587 235.593 109.64 235.26L110.68 228H112.44L110.68 239H108.4L107.32 231.82C107.267 231.447 107.207 231.053 107.14 230.64C107.073 230.213 107.027 229.873 107 229.62C106.96 229.873 106.907 230.213 106.84 230.64C106.787 231.053 106.733 231.447 106.68 231.82L105.56 239H103.26ZM118.992 239.2C118.099 239.2 117.312 239.027 116.632 238.68C115.966 238.32 115.452 237.82 115.092 237.18C114.732 236.54 114.552 235.793 114.552 234.94V232.06C114.552 231.193 114.732 230.447 115.092 229.82C115.452 229.18 115.966 228.687 116.632 228.34C117.312 227.98 118.099 227.8 118.992 227.8C119.899 227.8 120.686 227.98 121.352 228.34C122.019 228.687 122.532 229.18 122.892 229.82C123.252 230.447 123.432 231.193 123.432 232.06V234.02H116.632V234.94C116.632 235.753 116.832 236.373 117.232 236.8C117.646 237.227 118.239 237.44 119.012 237.44C119.639 237.44 120.146 237.333 120.532 237.12C120.919 236.893 121.159 236.567 121.252 236.14H123.392C123.232 237.073 122.752 237.82 121.952 238.38C121.152 238.927 120.166 239.2 118.992 239.2ZM121.352 232.72V232.04C121.352 231.24 121.152 230.62 120.752 230.18C120.352 229.74 119.766 229.52 118.992 229.52C118.232 229.52 117.646 229.74 117.232 230.18C116.832 230.62 116.632 231.247 116.632 232.06V232.56L121.512 232.54L121.352 232.72ZM131.764 239.2C130.858 239.2 130.138 238.953 129.604 238.46C129.071 237.953 128.804 237.267 128.804 236.4L129.264 236.9H128.804V239H126.664V224.4H128.824V227.54L128.764 230.1H129.264L128.804 230.6C128.804 229.733 129.071 229.053 129.604 228.56C130.151 228.053 130.871 227.8 131.764 227.8C132.871 227.8 133.758 228.173 134.424 228.92C135.091 229.667 135.424 230.68 135.424 231.96V235.06C135.424 236.327 135.091 237.333 134.424 238.08C133.758 238.827 132.871 239.2 131.764 239.2ZM131.024 237.32C131.731 237.32 132.284 237.12 132.684 236.72C133.084 236.307 133.284 235.713 133.284 234.94V232.06C133.284 231.287 133.084 230.7 132.684 230.3C132.284 229.887 131.731 229.68 131.024 229.68C130.344 229.68 129.804 229.893 129.404 230.32C129.018 230.733 128.824 231.313 128.824 232.06V234.94C128.824 235.687 129.018 236.273 129.404 236.7C129.804 237.113 130.344 237.32 131.024 237.32ZM142.597 239.18C141.81 239.18 141.117 239.053 140.517 238.8C139.93 238.547 139.463 238.2 139.117 237.76C138.783 237.307 138.59 236.773 138.537 236.16H140.697C140.75 236.52 140.943 236.813 141.277 237.04C141.61 237.253 142.05 237.36 142.597 237.36H143.457C144.11 237.36 144.603 237.227 144.937 236.96C145.27 236.693 145.437 236.34 145.437 235.9C145.437 235.473 145.283 235.14 144.977 234.9C144.683 234.647 144.243 234.48 143.657 234.4L142.237 234.18C141.063 233.993 140.197 233.66 139.637 233.18C139.09 232.687 138.817 231.96 138.817 231C138.817 229.987 139.143 229.207 139.797 228.66C140.463 228.1 141.443 227.82 142.737 227.82H143.497C144.643 227.82 145.557 228.087 146.237 228.62C146.93 229.14 147.323 229.84 147.417 230.72H145.257C145.203 230.4 145.023 230.14 144.717 229.94C144.423 229.74 144.017 229.64 143.497 229.64H142.737C142.11 229.64 141.65 229.76 141.357 230C141.077 230.227 140.937 230.567 140.937 231.02C140.937 231.42 141.063 231.72 141.317 231.92C141.57 232.12 141.963 232.26 142.497 232.34L143.957 232.58C145.197 232.753 146.103 233.1 146.677 233.62C147.263 234.127 147.557 234.867 147.557 235.84C147.557 236.893 147.21 237.713 146.517 238.3C145.837 238.887 144.817 239.18 143.457 239.18H142.597ZM150.589 239V237.04H154.449V229.96H151.089V228H156.549V237.04H160.089V239H150.589ZM155.289 226.1C154.822 226.1 154.449 225.98 154.169 225.74C153.889 225.487 153.749 225.153 153.749 224.74C153.749 224.313 153.889 223.98 154.169 223.74C154.449 223.487 154.822 223.36 155.289 223.36C155.755 223.36 156.129 223.487 156.409 223.74C156.689 223.98 156.829 224.313 156.829 224.74C156.829 225.153 156.689 225.487 156.409 225.74C156.129 225.98 155.755 226.1 155.289 226.1ZM168.161 239C167.161 239 166.381 238.727 165.821 238.18C165.261 237.633 164.981 236.873 164.981 235.9V229.96H161.941V228H164.981V224.9H167.141V228H171.441V229.96H167.141V235.9C167.141 236.66 167.508 237.04 168.241 237.04H171.241V239H168.161ZM178.953 239.2C178.06 239.2 177.273 239.027 176.593 238.68C175.926 238.32 175.413 237.82 175.053 237.18C174.693 236.54 174.513 235.793 174.513 234.94V232.06C174.513 231.193 174.693 230.447 175.053 229.82C175.413 229.18 175.926 228.687 176.593 228.34C177.273 227.98 178.06 227.8 178.953 227.8C179.86 227.8 180.646 227.98 181.313 228.34C181.98 228.687 182.493 229.18 182.853 229.82C183.213 230.447 183.393 231.193 183.393 232.06V234.02H176.593V234.94C176.593 235.753 176.793 236.373 177.193 236.8C177.606 237.227 178.2 237.44 178.973 237.44C179.6 237.44 180.106 237.333 180.493 237.12C180.88 236.893 181.12 236.567 181.213 236.14H183.353C183.193 237.073 182.713 237.82 181.913 238.38C181.113 238.927 180.126 239.2 178.953 239.2ZM181.313 232.72V232.04C181.313 231.24 181.113 230.62 180.713 230.18C180.313 229.74 179.726 229.52 178.953 229.52C178.193 229.52 177.606 229.74 177.193 230.18C176.793 230.62 176.593 231.247 176.593 232.06V232.56L181.473 232.54L181.313 232.72ZM190.565 239.18C189.779 239.18 189.085 239.053 188.485 238.8C187.899 238.547 187.432 238.2 187.085 237.76C186.752 237.307 186.559 236.773 186.505 236.16H188.665C188.719 236.52 188.912 236.813 189.245 237.04C189.579 237.253 190.019 237.36 190.565 237.36H191.425C192.079 237.36 192.572 237.227 192.905 236.96C193.239 236.693 193.405 236.34 193.405 235.9C193.405 235.473 193.252 235.14 192.945 234.9C192.652 234.647 192.212 234.48 191.625 234.4L190.205 234.18C189.032 233.993 188.165 233.66 187.605 233.18C187.059 232.687 186.785 231.96 186.785 231C186.785 229.987 187.112 229.207 187.765 228.66C188.432 228.1 189.412 227.82 190.705 227.82H191.465C192.612 227.82 193.525 228.087 194.205 228.62C194.899 229.14 195.292 229.84 195.385 230.72H193.225C193.172 230.4 192.992 230.14 192.685 229.94C192.392 229.74 191.985 229.64 191.465 229.64H190.705C190.079 229.64 189.619 229.76 189.325 230C189.045 230.227 188.905 230.567 188.905 231.02C188.905 231.42 189.032 231.72 189.285 231.92C189.539 232.12 189.932 232.26 190.465 232.34L191.925 232.58C193.165 232.753 194.072 233.1 194.645 233.62C195.232 234.127 195.525 234.867 195.525 235.84C195.525 236.893 195.179 237.713 194.485 238.3C193.805 238.887 192.785 239.18 191.425 239.18H190.565ZM201.998 230.4L201.738 227.46V224.4H203.978V227.46L203.758 230.4H201.998Z" fill="#D8956C"/>
<path d="M212.19 242.2L213.79 235.98H216.67L214.07 242.2H212.19ZM214.73 230.98C214.263 230.98 213.883 230.833 213.59 230.54C213.296 230.233 213.15 229.847 213.15 229.38C213.15 228.927 213.296 228.553 213.59 228.26C213.896 227.953 214.276 227.8 214.73 227.8H215.13C215.583 227.8 215.956 227.953 216.25 228.26C216.556 228.553 216.71 228.927 216.71 229.38C216.71 229.847 216.563 230.233 216.27 230.54C215.976 230.833 215.596 230.98 215.13 230.98H214.73Z" fill="#AD8FE8"/>
<path d="M45.0239 266.2C44.0639 266.2 43.2239 266 42.5039 265.6C41.7839 265.2 41.2239 264.64 40.8239 263.92C40.4239 263.187 40.2239 262.347 40.2239 261.4C40.2239 260.68 40.3306 259.96 40.5439 259.24C40.7706 258.507 41.0906 257.807 41.5039 257.14L45.0639 251.4H47.4639L43.2239 258.12L43.3239 258.18C43.5906 257.793 43.9439 257.5 44.3839 257.3C44.8372 257.087 45.3372 256.98 45.8839 256.98C46.6706 256.98 47.3572 257.167 47.9439 257.54C48.5306 257.913 48.9839 258.44 49.3039 259.12C49.6239 259.787 49.7839 260.58 49.7839 261.5C49.7839 262.433 49.5839 263.253 49.1839 263.96C48.7839 264.667 48.2306 265.22 47.5239 265.62C46.8172 266.007 45.9839 266.2 45.0239 266.2ZM45.0039 264.34C45.8039 264.34 46.4439 264.08 46.9239 263.56C47.4039 263.04 47.6439 262.353 47.6439 261.5C47.6439 260.647 47.4039 259.96 46.9239 259.44C46.4439 258.92 45.8039 258.66 45.0039 258.66C44.2039 258.66 43.5639 258.92 43.0839 259.44C42.6039 259.96 42.3639 260.647 42.3639 261.5C42.3639 262.353 42.6039 263.04 43.0839 263.56C43.5639 264.08 44.2039 264.34 45.0039 264.34Z" fill="white"/>
<path d="M42.4039 310L47.6439 297.38H42.5439V299.52H40.4039V295.4H49.7839V297.48L44.7239 310H42.4039Z" fill="white"/>
<path d="M107 310.2C106.107 310.2 105.32 310.027 104.64 309.68C103.973 309.32 103.46 308.82 103.1 308.18C102.74 307.54 102.56 306.793 102.56 305.94V303.06C102.56 302.193 102.74 301.447 103.1 300.82C103.46 300.18 103.973 299.687 104.64 299.34C105.32 298.98 106.107 298.8 107 298.8C107.907 298.8 108.693 298.98 109.36 299.34C110.027 299.687 110.54 300.18 110.9 300.82C111.26 301.447 111.44 302.193 111.44 303.06V305.02H104.64V305.94C104.64 306.753 104.84 307.373 105.24 307.8C105.653 308.227 106.247 308.44 107.02 308.44C107.647 308.44 108.153 308.333 108.54 308.12C108.927 307.893 109.167 307.567 109.26 307.14H111.4C111.24 308.073 110.76 308.82 109.96 309.38C109.16 309.927 108.173 310.2 107 310.2ZM109.36 303.72V303.04C109.36 302.24 109.16 301.62 108.76 301.18C108.36 300.74 107.773 300.52 107 300.52C106.24 300.52 105.653 300.74 105.24 301.18C104.84 301.62 104.64 302.247 104.64 303.06V303.56L109.52 303.54L109.36 303.72ZM113.852 310L117.712 304.32L114.092 299H116.572L118.512 302.04C118.606 302.2 118.699 302.373 118.792 302.56C118.886 302.733 118.959 302.88 119.012 303C119.052 302.88 119.119 302.733 119.212 302.56C119.306 302.373 119.399 302.2 119.492 302.04L121.432 299H123.912L120.292 304.34L124.132 310H121.652L119.512 306.7C119.419 306.54 119.326 306.36 119.232 306.16C119.139 305.96 119.066 305.8 119.012 305.68C118.959 305.8 118.879 305.96 118.772 306.16C118.679 306.36 118.579 306.54 118.472 306.7L116.312 310H113.852ZM126.664 313.6V299H128.804V301.1H129.264L128.804 301.6C128.804 300.733 129.071 300.053 129.604 299.56C130.151 299.053 130.878 298.8 131.784 298.8C132.891 298.8 133.771 299.173 134.424 299.92C135.091 300.653 135.424 301.66 135.424 302.94V306.04C135.424 306.893 135.271 307.633 134.964 308.26C134.671 308.873 134.251 309.353 133.704 309.7C133.171 310.033 132.531 310.2 131.784 310.2C130.891 310.2 130.171 309.953 129.624 309.46C129.078 308.953 128.804 308.267 128.804 307.4L129.264 307.9H128.764L128.824 310.46V313.6H126.664ZM131.044 308.32C131.751 308.32 132.298 308.12 132.684 307.72C133.084 307.307 133.284 306.713 133.284 305.94V303.06C133.284 302.287 133.084 301.7 132.684 301.3C132.298 300.887 131.751 300.68 131.044 300.68C130.364 300.68 129.824 300.893 129.424 301.32C129.024 301.733 128.824 302.313 128.824 303.06V305.94C128.824 306.687 129.024 307.273 129.424 307.7C129.824 308.113 130.364 308.32 131.044 308.32ZM142.977 310.18C142.07 310.18 141.283 310.007 140.617 309.66C139.95 309.313 139.437 308.82 139.077 308.18C138.717 307.54 138.537 306.787 138.537 305.92V303.08C138.537 302.2 138.717 301.447 139.077 300.82C139.437 300.18 139.95 299.687 140.617 299.34C141.283 298.993 142.07 298.82 142.977 298.82C143.883 298.82 144.67 298.993 145.337 299.34C146.003 299.687 146.517 300.18 146.877 300.82C147.237 301.447 147.417 302.2 147.417 303.08V305.92C147.417 306.787 147.237 307.54 146.877 308.18C146.517 308.82 146.003 309.313 145.337 309.66C144.67 310.007 143.883 310.18 142.977 310.18ZM142.977 308.28C143.71 308.28 144.277 308.08 144.677 307.68C145.077 307.267 145.277 306.68 145.277 305.92V303.08C145.277 302.307 145.077 301.72 144.677 301.32C144.277 300.92 143.71 300.72 142.977 300.72C142.257 300.72 141.69 300.92 141.277 301.32C140.877 301.72 140.677 302.307 140.677 303.08V305.92C140.677 306.68 140.877 307.267 141.277 307.68C141.69 308.08 142.257 308.28 142.977 308.28ZM151.009 310V299H153.089V301.1H153.609L152.949 302.4C152.949 301.213 153.209 300.32 153.729 299.72C154.249 299.107 155.022 298.8 156.049 298.8C157.222 298.8 158.149 299.167 158.829 299.9C159.522 300.62 159.869 301.613 159.869 302.88V303.62H157.649V303.06C157.649 302.273 157.449 301.673 157.049 301.26C156.662 300.833 156.115 300.62 155.409 300.62C154.702 300.62 154.149 300.833 153.749 301.26C153.362 301.687 153.169 302.287 153.169 303.06V310H151.009ZM168.161 310C167.161 310 166.381 309.727 165.821 309.18C165.261 308.633 164.981 307.873 164.981 306.9V300.96H161.941V299H164.981V295.9H167.141V299H171.441V300.96H167.141V306.9C167.141 307.66 167.508 308.04 168.241 308.04H171.241V310H168.161ZM190.165 310.2C189.059 310.2 188.172 309.827 187.505 309.08C186.839 308.333 186.505 307.327 186.505 306.06V302.96C186.505 301.68 186.839 300.667 187.505 299.92C188.172 299.173 189.059 298.8 190.165 298.8C191.072 298.8 191.792 299.053 192.325 299.56C192.859 300.053 193.125 300.733 193.125 301.6L192.665 301.1H193.165L193.105 298.54V295.4H195.265V310H193.125V307.9H192.665L193.125 307.4C193.125 308.267 192.859 308.953 192.325 309.46C191.792 309.953 191.072 310.2 190.165 310.2ZM190.905 308.32C191.585 308.32 192.119 308.113 192.505 307.7C192.905 307.273 193.105 306.687 193.105 305.94V303.06C193.105 302.313 192.905 301.733 192.505 301.32C192.119 300.893 191.585 300.68 190.905 300.68C190.199 300.68 189.645 300.887 189.245 301.3C188.845 301.7 188.645 302.287 188.645 303.06V305.94C188.645 306.713 188.845 307.307 189.245 307.72C189.645 308.12 190.199 308.32 190.905 308.32ZM202.938 310.2C202.044 310.2 201.258 310.027 200.578 309.68C199.911 309.32 199.398 308.82 199.038 308.18C198.678 307.54 198.498 306.793 198.498 305.94V303.06C198.498 302.193 198.678 301.447 199.038 300.82C199.398 300.18 199.911 299.687 200.578 299.34C201.258 298.98 202.044 298.8 202.938 298.8C203.844 298.8 204.631 298.98 205.298 299.34C205.964 299.687 206.478 300.18 206.838 300.82C207.198 301.447 207.378 302.193 207.378 303.06V305.02H200.578V305.94C200.578 306.753 200.778 307.373 201.178 307.8C201.591 308.227 202.184 308.44 202.958 308.44C203.584 308.44 204.091 308.333 204.478 308.12C204.864 307.893 205.104 307.567 205.198 307.14H207.338C207.178 308.073 206.698 308.82 205.898 309.38C205.098 309.927 204.111 310.2 202.938 310.2ZM205.298 303.72V303.04C205.298 302.24 205.098 301.62 204.698 301.18C204.298 300.74 203.711 300.52 202.938 300.52C202.178 300.52 201.591 300.74 201.178 301.18C200.778 301.62 200.578 302.247 200.578 303.06V303.56L205.458 303.54L205.298 303.72ZM213.19 310V302.12H210.07V300.16H213.19V298.38C213.19 297.46 213.483 296.733 214.07 296.2C214.656 295.667 215.456 295.4 216.47 295.4H219.69V297.32H216.51C216.136 297.32 215.843 297.413 215.63 297.6C215.43 297.787 215.33 298.053 215.33 298.4V300.16H219.69V302.12H215.33V310H213.19ZM225.822 310.2C224.675 310.2 223.769 309.907 223.102 309.32C222.449 308.72 222.122 307.907 222.122 306.88C222.122 305.84 222.469 305.027 223.162 304.44C223.869 303.84 224.835 303.54 226.062 303.54H229.122V302.52C229.122 301.92 228.935 301.453 228.562 301.12C228.189 300.787 227.662 300.62 226.982 300.62C226.382 300.62 225.882 300.753 225.482 301.02C225.082 301.273 224.849 301.613 224.782 302.04H222.662C222.782 301.053 223.235 300.267 224.022 299.68C224.822 299.093 225.829 298.8 227.042 298.8C228.349 298.8 229.382 299.133 230.142 299.8C230.902 300.453 231.282 301.347 231.282 302.48V310H229.182V307.98H228.822L229.182 307.58C229.182 308.38 228.875 309.02 228.262 309.5C227.649 309.967 226.835 310.2 225.822 310.2ZM226.462 308.54C227.235 308.54 227.869 308.347 228.362 307.96C228.869 307.56 229.122 307.053 229.122 306.44V305H226.102C225.542 305 225.095 305.153 224.762 305.46C224.442 305.767 224.282 306.187 224.282 306.72C224.282 307.28 224.475 307.727 224.862 308.06C225.249 308.38 225.782 308.54 226.462 308.54ZM238.894 310.2C237.574 310.2 236.521 309.82 235.734 309.06C234.947 308.287 234.554 307.24 234.554 305.92V299H236.714V305.92C236.714 306.68 236.907 307.273 237.294 307.7C237.681 308.113 238.214 308.32 238.894 308.32C239.587 308.32 240.127 308.113 240.514 307.7C240.914 307.273 241.114 306.68 241.114 305.92V299H243.274V305.92C243.274 307.24 242.874 308.287 242.074 309.06C241.287 309.82 240.227 310.2 238.894 310.2ZM252.486 310C251.806 310 251.213 309.867 250.706 309.6C250.2 309.32 249.8 308.927 249.506 308.42C249.226 307.913 249.086 307.327 249.086 306.66V297.36H245.486V295.4H251.246V306.66C251.246 307.087 251.366 307.427 251.606 307.68C251.846 307.92 252.173 308.04 252.586 308.04H255.986V310H252.486ZM264.098 310C263.098 310 262.318 309.727 261.758 309.18C261.198 308.633 260.918 307.873 260.918 306.9V300.96H257.878V299H260.918V295.9H263.078V299H267.378V300.96H263.078V306.9C263.078 307.66 263.445 308.04 264.178 308.04H267.178V310H264.098Z" fill="#D87086"/>
<path d="M286.103 310.2C284.996 310.2 284.109 309.827 283.443 309.08C282.776 308.333 282.443 307.327 282.443 306.06V302.96C282.443 301.68 282.776 300.667 283.443 299.92C284.109 299.173 284.996 298.8 286.103 298.8C287.009 298.8 287.729 299.053 288.263 299.56C288.796 300.053 289.063 300.733 289.063 301.6L288.603 301.1H289.103L289.043 298.54V295.4H291.203V310H289.063V307.9H288.603L289.063 307.4C289.063 308.267 288.796 308.953 288.263 309.46C287.729 309.953 287.009 310.2 286.103 310.2ZM286.843 308.32C287.523 308.32 288.056 308.113 288.443 307.7C288.843 307.273 289.043 306.687 289.043 305.94V303.06C289.043 302.313 288.843 301.733 288.443 301.32C288.056 300.893 287.523 300.68 286.843 300.68C286.136 300.68 285.583 300.887 285.183 301.3C284.783 301.7 284.583 302.287 284.583 303.06V305.94C284.583 306.713 284.783 307.307 285.183 307.72C285.583 308.12 286.136 308.32 286.843 308.32ZM294.915 310V299H296.995V301.1H297.515L296.855 302.4C296.855 301.213 297.115 300.32 297.635 299.72C298.155 299.107 298.928 298.8 299.955 298.8C301.128 298.8 302.055 299.167 302.735 299.9C303.428 300.62 303.775 301.613 303.775 302.88V303.62H301.555V303.06C301.555 302.273 301.355 301.673 300.955 301.26C300.568 300.833 300.022 300.62 299.315 300.62C298.608 300.62 298.055 300.833 297.655 301.26C297.268 301.687 297.075 302.287 297.075 303.06V310H294.915ZM310.867 310.2C309.974 310.2 309.187 310.027 308.507 309.68C307.841 309.32 307.327 308.82 306.967 308.18C306.607 307.54 306.427 306.793 306.427 305.94V303.06C306.427 302.193 306.607 301.447 306.967 300.82C307.327 300.18 307.841 299.687 308.507 299.34C309.187 298.98 309.974 298.8 310.867 298.8C311.774 298.8 312.561 298.98 313.227 299.34C313.894 299.687 314.407 300.18 314.767 300.82C315.127 301.447 315.307 302.193 315.307 303.06V305.02H308.507V305.94C308.507 306.753 308.707 307.373 309.107 307.8C309.521 308.227 310.114 308.44 310.887 308.44C311.514 308.44 312.021 308.333 312.407 308.12C312.794 307.893 313.034 307.567 313.127 307.14H315.267C315.107 308.073 314.627 308.82 313.827 309.38C313.027 309.927 312.041 310.2 310.867 310.2ZM313.227 303.72V303.04C313.227 302.24 313.027 301.62 312.627 301.18C312.227 300.74 311.641 300.52 310.867 300.52C310.107 300.52 309.521 300.74 309.107 301.18C308.707 301.62 308.507 302.247 308.507 303.06V303.56L313.387 303.54L313.227 303.72ZM321.759 310.2C320.613 310.2 319.706 309.907 319.039 309.32C318.386 308.72 318.059 307.907 318.059 306.88C318.059 305.84 318.406 305.027 319.099 304.44C319.806 303.84 320.773 303.54 321.999 303.54H325.059V302.52C325.059 301.92 324.873 301.453 324.499 301.12C324.126 300.787 323.599 300.62 322.919 300.62C322.319 300.62 321.819 300.753 321.419 301.02C321.019 301.273 320.786 301.613 320.719 302.04H318.599C318.719 301.053 319.173 300.267 319.959 299.68C320.759 299.093 321.766 298.8 322.979 298.8C324.286 298.8 325.319 299.133 326.079 299.8C326.839 300.453 327.219 301.347 327.219 302.48V310H325.119V307.98H324.759L325.119 307.58C325.119 308.38 324.813 309.02 324.199 309.5C323.586 309.967 322.773 310.2 321.759 310.2ZM322.399 308.54C323.173 308.54 323.806 308.347 324.299 307.96C324.806 307.56 325.059 307.053 325.059 306.44V305H322.039C321.479 305 321.033 305.153 320.699 305.46C320.379 305.767 320.219 306.187 320.219 306.72C320.219 307.28 320.413 307.727 320.799 308.06C321.186 308.38 321.719 308.54 322.399 308.54ZM330.032 310V299H331.832V300.4H332.232L331.932 300.82C331.932 300.207 332.098 299.72 332.432 299.36C332.765 298.987 333.212 298.8 333.772 298.8C334.372 298.8 334.832 299.033 335.152 299.5C335.485 299.967 335.652 300.607 335.652 301.42L335.172 300.4H335.932L335.612 300.82C335.612 300.207 335.778 299.72 336.112 299.36C336.458 298.987 336.918 298.8 337.492 298.8C338.172 298.8 338.705 299.06 339.092 299.58C339.478 300.087 339.672 300.767 339.672 301.62V310H337.752V301.68C337.752 301.267 337.658 300.947 337.472 300.72C337.298 300.493 337.045 300.38 336.712 300.38C336.378 300.38 336.118 300.493 335.932 300.72C335.758 300.933 335.672 301.247 335.672 301.66V310H334.052V301.68C334.052 301.253 333.958 300.933 333.772 300.72C333.585 300.493 333.318 300.38 332.972 300.38C332.638 300.38 332.385 300.493 332.212 300.72C332.052 300.933 331.972 301.247 331.972 301.66V310H330.032ZM344.104 313.2L345.704 306.98H348.584L345.984 313.2H344.104ZM346.644 301.98C346.177 301.98 345.797 301.833 345.504 301.54C345.21 301.233 345.064 300.847 345.064 300.38C345.064 299.927 345.21 299.553 345.504 299.26C345.81 298.953 346.19 298.8 346.644 298.8H347.044C347.497 298.8 347.87 298.953 348.164 299.26C348.47 299.553 348.624 299.927 348.624 300.38C348.624 300.847 348.477 301.233 348.184 301.54C347.89 301.833 347.51 301.98 347.044 301.98H346.644Z" fill="white"/>
</svg>
