<svg width="604" height="341" viewBox="0 0 604 341" fill="none" xmlns="http://www.w3.org/2000/svg">
<rect width="604" height="341" rx="14" fill="#1A1C3A" fill-opacity="0.64"/>
<rect x="0.5" y="0.5" width="603" height="340" rx="13.5" stroke="white" stroke-opacity="0.1"/>
<line x1="77.5" y1="341" x2="77.5" y2="1" stroke="white" stroke-opacity="0.1"/>
<path d="M40.7439 46V44.08H44.6239V33.28L40.7239 36.18V33.84L44.0639 31.4H46.7839V44.08H49.9239V46H40.7439Z" fill="white"/>
<path d="M112.852 48.2L119.892 29.4H122.132L115.092 48.2H112.852ZM103.852 48.2L110.892 29.4H113.132L106.092 48.2H103.852ZM138.597 46V31.4H141.317L145.577 43.54C145.55 43.1533 145.517 42.6933 145.477 42.16C145.437 41.6267 145.403 41.0733 145.377 40.5C145.363 39.9267 145.357 39.4067 145.357 38.94V31.4H147.357V46H144.637L140.397 33.86C140.423 34.2067 140.45 34.64 140.477 35.16C140.517 35.68 140.543 36.22 140.557 36.78C140.583 37.34 140.597 37.86 140.597 38.34V46H138.597ZM154.969 46.2C154.075 46.2 153.289 46.0267 152.609 45.68C151.942 45.32 151.429 44.82 151.069 44.18C150.709 43.54 150.529 42.7933 150.529 41.94V39.06C150.529 38.1933 150.709 37.4467 151.069 36.82C151.429 36.18 151.942 35.6867 152.609 35.34C153.289 34.98 154.075 34.8 154.969 34.8C155.875 34.8 156.662 34.98 157.329 35.34C157.995 35.6867 158.509 36.18 158.869 36.82C159.229 37.4467 159.409 38.1933 159.409 39.06V41.02H152.609V41.94C152.609 42.7533 152.809 43.3733 153.209 43.8C153.622 44.2267 154.215 44.44 154.989 44.44C155.615 44.44 156.122 44.3333 156.509 44.12C156.895 43.8933 157.135 43.5667 157.229 43.14H159.369C159.209 44.0733 158.729 44.82 157.929 45.38C157.129 45.9267 156.142 46.2 154.969 46.2ZM157.329 39.72V39.04C157.329 38.24 157.129 37.62 156.729 37.18C156.329 36.74 155.742 36.52 154.969 36.52C154.209 36.52 153.622 36.74 153.209 37.18C152.809 37.62 152.609 38.2467 152.609 39.06V39.56L157.489 39.54L157.329 39.72ZM161.821 46L165.681 40.32L162.061 35H164.541L166.481 38.04C166.574 38.2 166.668 38.3733 166.761 38.56C166.854 38.7333 166.928 38.88 166.981 39C167.021 38.88 167.088 38.7333 167.181 38.56C167.274 38.3733 167.368 38.2 167.461 38.04L169.401 35H171.881L168.261 40.34L172.101 46H169.621L167.481 42.7C167.388 42.54 167.294 42.36 167.201 42.16C167.108 41.96 167.034 41.8 166.981 41.68C166.928 41.8 166.848 41.96 166.741 42.16C166.648 42.36 166.548 42.54 166.441 42.7L164.281 46H161.821ZM180.153 46C179.153 46 178.373 45.7267 177.813 45.18C177.253 44.6333 176.973 43.8733 176.973 42.9V36.96H173.933V35H176.973V31.9H179.133V35H183.433V36.96H179.133V42.9C179.133 43.66 179.5 44.04 180.233 44.04H183.233V46H180.153ZM200.378 49.6L201.958 45.36L197.858 35H200.238L202.538 41.2C202.631 41.4667 202.724 41.7867 202.817 42.16C202.911 42.5333 202.991 42.84 203.058 43.08C203.111 42.84 203.184 42.5333 203.278 42.16C203.371 41.7867 203.464 41.4667 203.558 41.2L205.718 35H208.018L202.658 49.6H200.378ZM224.362 49.6L225.942 45.36L221.842 35H224.222L226.522 41.2C226.615 41.4667 226.709 41.7867 226.802 42.16C226.895 42.5333 226.975 42.84 227.042 43.08C227.095 42.84 227.169 42.5333 227.262 42.16C227.355 41.7867 227.449 41.4667 227.542 41.2L229.702 35H232.002L226.642 49.6H224.362ZM238.914 46.18C238.007 46.18 237.221 46.0067 236.554 45.66C235.887 45.3133 235.374 44.82 235.014 44.18C234.654 43.54 234.474 42.7867 234.474 41.92V39.08C234.474 38.2 234.654 37.4467 235.014 36.82C235.374 36.18 235.887 35.6867 236.554 35.34C237.221 34.9933 238.007 34.82 238.914 34.82C239.821 34.82 240.607 34.9933 241.274 35.34C241.941 35.6867 242.454 36.18 242.814 36.82C243.174 37.4467 243.354 38.2 243.354 39.08V41.92C243.354 42.7867 243.174 43.54 242.814 44.18C242.454 44.82 241.941 45.3133 241.274 45.66C240.607 46.0067 239.821 46.18 238.914 46.18ZM238.914 44.28C239.647 44.28 240.214 44.08 240.614 43.68C241.014 43.2667 241.214 42.68 241.214 41.92V39.08C241.214 38.3067 241.014 37.72 240.614 37.32C240.214 36.92 239.647 36.72 238.914 36.72C238.194 36.72 237.627 36.92 237.214 37.32C236.814 37.72 236.614 38.3067 236.614 39.08V41.92C236.614 42.68 236.814 43.2667 237.214 43.68C237.627 44.08 238.194 44.28 238.914 44.28ZM250.906 37.98C250.386 37.98 249.96 37.8333 249.626 37.54C249.306 37.2467 249.146 36.86 249.146 36.38C249.146 35.9 249.306 35.52 249.626 35.24C249.96 34.9467 250.386 34.8 250.906 34.8C251.44 34.8 251.866 34.9467 252.186 35.24C252.506 35.52 252.666 35.9 252.666 36.38C252.666 36.86 252.506 37.2467 252.186 37.54C251.866 37.8333 251.44 37.98 250.906 37.98ZM250.906 46.2C250.386 46.2 249.96 46.0533 249.626 45.76C249.306 45.4667 249.146 45.0867 249.146 44.62C249.146 44.1267 249.306 43.74 249.626 43.46C249.96 43.1667 250.386 43.02 250.906 43.02C251.44 43.02 251.866 43.1667 252.186 43.46C252.506 43.74 252.666 44.1267 252.666 44.62C252.666 45.0867 252.506 45.4667 252.186 45.76C251.866 46.0533 251.44 46.2 250.906 46.2ZM274.871 46.2C273.551 46.2 272.497 45.82 271.711 45.06C270.924 44.2867 270.531 43.24 270.531 41.92V35H272.691V41.92C272.691 42.68 272.884 43.2733 273.271 43.7C273.657 44.1133 274.191 44.32 274.871 44.32C275.564 44.32 276.104 44.1133 276.491 43.7C276.891 43.2733 277.091 42.68 277.091 41.92V35H279.251V41.92C279.251 43.24 278.851 44.2867 278.051 45.06C277.264 45.82 276.204 46.2 274.871 46.2ZM282.563 46V35H284.703V37.1H285.223L284.703 37.6C284.703 36.72 284.963 36.0333 285.483 35.54C286.003 35.0467 286.723 34.8 287.643 34.8C288.736 34.8 289.609 35.1533 290.263 35.86C290.916 36.5533 291.243 37.4933 291.243 38.68V46H289.083V38.92C289.083 38.2 288.889 37.6467 288.503 37.26C288.116 36.8733 287.589 36.68 286.923 36.68C286.243 36.68 285.703 36.8867 285.303 37.3C284.916 37.7 284.723 38.2867 284.723 39.06V46H282.563ZM307.987 49.6V47.74H311.367C311.927 47.74 312.341 47.6067 312.607 47.34C312.887 47.0733 313.027 46.68 313.027 46.16V45.06L313.067 43.02H312.607L313.047 42.62C313.047 43.46 312.781 44.12 312.247 44.6C311.727 45.08 311.021 45.32 310.127 45.32C308.994 45.32 308.101 44.9467 307.447 44.2C306.794 43.4533 306.467 42.4467 306.467 41.18V38.94C306.467 37.6733 306.794 36.6667 307.447 35.92C308.101 35.1733 308.994 34.8 310.127 34.8C311.021 34.8 311.727 35.0467 312.247 35.54C312.781 36.02 313.047 36.68 313.047 37.52L312.607 37.1H313.047L313.027 35H315.167V46.2C315.167 47.2533 314.834 48.08 314.167 48.68C313.501 49.2933 312.574 49.6 311.387 49.6H307.987ZM310.827 43.46C311.507 43.46 312.041 43.2533 312.427 42.84C312.827 42.4133 313.027 41.8267 313.027 41.08V39.06C313.027 38.3133 312.827 37.7333 312.427 37.32C312.041 36.8933 311.507 36.68 310.827 36.68C310.121 36.68 309.574 36.8867 309.187 37.3C308.814 37.7 308.627 38.2867 308.627 39.06V41.08C308.627 41.84 308.814 42.4267 309.187 42.84C309.574 43.2533 310.121 43.46 310.827 43.46ZM318.899 46V35H320.979V37.1H321.499L320.839 38.4C320.839 37.2133 321.099 36.32 321.619 35.72C322.139 35.1067 322.913 34.8 323.939 34.8C325.113 34.8 326.039 35.1667 326.719 35.9C327.413 36.62 327.759 37.6133 327.759 38.88V39.62H325.539V39.06C325.539 38.2733 325.339 37.6733 324.939 37.26C324.553 36.8333 324.006 36.62 323.299 36.62C322.593 36.62 322.039 36.8333 321.639 37.26C321.253 37.6867 321.059 38.2867 321.059 39.06V46H318.899ZM333.752 46.2C332.605 46.2 331.698 45.9067 331.032 45.32C330.378 44.72 330.052 43.9067 330.052 42.88C330.052 41.84 330.398 41.0267 331.092 40.44C331.798 39.84 332.765 39.54 333.992 39.54H337.052V38.52C337.052 37.92 336.865 37.4533 336.492 37.12C336.118 36.7867 335.592 36.62 334.912 36.62C334.312 36.62 333.812 36.7533 333.412 37.02C333.012 37.2733 332.778 37.6133 332.712 38.04H330.592C330.712 37.0533 331.165 36.2667 331.952 35.68C332.752 35.0933 333.758 34.8 334.972 34.8C336.278 34.8 337.312 35.1333 338.072 35.8C338.832 36.4533 339.212 37.3467 339.212 38.48V46H337.112V43.98H336.752L337.112 43.58C337.112 44.38 336.805 45.02 336.192 45.5C335.578 45.9667 334.765 46.2 333.752 46.2ZM334.392 44.54C335.165 44.54 335.798 44.3467 336.292 43.96C336.798 43.56 337.052 43.0533 337.052 42.44V41H334.032C333.472 41 333.025 41.1533 332.692 41.46C332.372 41.7667 332.212 42.1867 332.212 42.72C332.212 43.28 332.405 43.7267 332.792 44.06C333.178 44.38 333.712 44.54 334.392 44.54ZM342.524 46V35H344.664V37.1H345.184L344.664 37.6C344.664 36.72 344.924 36.0333 345.444 35.54C345.964 35.0467 346.684 34.8 347.604 34.8C348.697 34.8 349.57 35.1533 350.224 35.86C350.877 36.5533 351.204 37.4933 351.204 38.68V46H349.044V38.92C349.044 38.2 348.85 37.6467 348.464 37.26C348.077 36.8733 347.55 36.68 346.884 36.68C346.204 36.68 345.664 36.8867 345.264 37.3C344.877 37.7 344.684 38.2867 344.684 39.06V46H342.524ZM370.828 46.2C369.935 46.2 369.148 46.0267 368.468 45.68C367.801 45.32 367.288 44.82 366.928 44.18C366.568 43.54 366.388 42.7933 366.388 41.94V39.06C366.388 38.1933 366.568 37.4467 366.928 36.82C367.288 36.18 367.801 35.6867 368.468 35.34C369.148 34.98 369.935 34.8 370.828 34.8C371.735 34.8 372.521 34.98 373.188 35.34C373.855 35.6867 374.368 36.18 374.728 36.82C375.088 37.4467 375.268 38.1933 375.268 39.06V41.02H368.468V41.94C368.468 42.7533 368.668 43.3733 369.068 43.8C369.481 44.2267 370.075 44.44 370.848 44.44C371.475 44.44 371.981 44.3333 372.368 44.12C372.755 43.8933 372.995 43.5667 373.088 43.14H375.228C375.068 44.0733 374.588 44.82 373.788 45.38C372.988 45.9267 372.001 46.2 370.828 46.2ZM373.188 39.72V39.04C373.188 38.24 372.988 37.62 372.588 37.18C372.188 36.74 371.601 36.52 370.828 36.52C370.068 36.52 369.481 36.74 369.068 37.18C368.668 37.62 368.468 38.2467 368.468 39.06V39.56L373.348 39.54L373.188 39.72ZM384.98 49.6V46.46L385.04 43.9H384.54L385 43.4C385 44.2667 384.734 44.9533 384.2 45.46C383.667 45.9533 382.947 46.2 382.04 46.2C380.934 46.2 380.054 45.8267 379.4 45.08C378.747 44.3333 378.42 43.32 378.42 42.04V38.94C378.42 37.66 378.747 36.6533 379.4 35.92C380.054 35.1733 380.934 34.8 382.04 34.8C382.947 34.8 383.667 35.0533 384.2 35.56C384.734 36.0533 385 36.7333 385 37.6L384.54 37.1H385V35H387.14V49.6H384.98ZM382.78 44.32C383.46 44.32 383.994 44.1133 384.38 43.7C384.78 43.2733 384.98 42.6867 384.98 41.94V39.06C384.98 38.3133 384.78 37.7333 384.38 37.32C383.994 36.8933 383.46 36.68 382.78 36.68C382.074 36.68 381.527 36.8867 381.14 37.3C380.767 37.7 380.58 38.2867 380.58 39.06V41.94C380.58 42.7133 380.767 43.3067 381.14 43.72C381.527 44.12 382.074 44.32 382.78 44.32ZM394.793 46.2C393.473 46.2 392.419 45.82 391.633 45.06C390.846 44.2867 390.453 43.24 390.453 41.92V35H392.613V41.92C392.613 42.68 392.806 43.2733 393.193 43.7C393.579 44.1133 394.113 44.32 394.793 44.32C395.486 44.32 396.026 44.1133 396.413 43.7C396.813 43.2733 397.013 42.68 397.013 41.92V35H399.173V41.92C399.173 43.24 398.773 44.2867 397.973 45.06C397.186 45.82 396.126 46.2 394.793 46.2ZM402.425 46V44.04H406.285V36.96H402.925V35H408.385V44.04H411.925V46H402.425ZM407.125 33.1C406.658 33.1 406.285 32.98 406.005 32.74C405.725 32.4867 405.585 32.1533 405.585 31.74C405.585 31.3133 405.725 30.98 406.005 30.74C406.285 30.4867 406.658 30.36 407.125 30.36C407.591 30.36 407.965 30.4867 408.245 30.74C408.525 30.98 408.665 31.3133 408.665 31.74C408.665 32.1533 408.525 32.4867 408.245 32.74C407.965 32.98 407.591 33.1 407.125 33.1ZM414.477 49.6V35H416.617V37.1H417.077L416.617 37.6C416.617 36.7333 416.884 36.0533 417.417 35.56C417.964 35.0533 418.69 34.8 419.597 34.8C420.704 34.8 421.584 35.1733 422.237 35.92C422.904 36.6533 423.237 37.66 423.237 38.94V42.04C423.237 42.8933 423.084 43.6333 422.777 44.26C422.484 44.8733 422.064 45.3533 421.517 45.7C420.984 46.0333 420.344 46.2 419.597 46.2C418.704 46.2 417.984 45.9533 417.437 45.46C416.89 44.9533 416.617 44.2667 416.617 43.4L417.077 43.9H416.577L416.637 46.46V49.6H414.477ZM418.857 44.32C419.564 44.32 420.11 44.12 420.497 43.72C420.897 43.3067 421.097 42.7133 421.097 41.94V39.06C421.097 38.2867 420.897 37.7 420.497 37.3C420.11 36.8867 419.564 36.68 418.857 36.68C418.177 36.68 417.637 36.8933 417.237 37.32C416.837 37.7333 416.637 38.3133 416.637 39.06V41.94C416.637 42.6867 416.837 43.2733 417.237 43.7C417.637 44.1133 418.177 44.32 418.857 44.32ZM430.789 46.18C429.882 46.18 429.096 46.0067 428.429 45.66C427.762 45.3133 427.249 44.82 426.889 44.18C426.529 43.54 426.349 42.7867 426.349 41.92V39.08C426.349 38.2 426.529 37.4467 426.889 36.82C427.249 36.18 427.762 35.6867 428.429 35.34C429.096 34.9933 429.882 34.82 430.789 34.82C431.696 34.82 432.482 34.9933 433.149 35.34C433.816 35.6867 434.329 36.18 434.689 36.82C435.049 37.4467 435.229 38.2 435.229 39.08V41.92C435.229 42.7867 435.049 43.54 434.689 44.18C434.329 44.82 433.816 45.3133 433.149 45.66C432.482 46.0067 431.696 46.18 430.789 46.18ZM430.789 44.28C431.522 44.28 432.089 44.08 432.489 43.68C432.889 43.2667 433.089 42.68 433.089 41.92V39.08C433.089 38.3067 432.889 37.72 432.489 37.32C432.089 36.92 431.522 36.72 430.789 36.72C430.069 36.72 429.502 36.92 429.089 37.32C428.689 37.72 428.489 38.3067 428.489 39.08V41.92C428.489 42.68 428.689 43.2667 429.089 43.68C429.502 44.08 430.069 44.28 430.789 44.28Z" fill="#5A5C76"/>
<path d="M40.7039 90V87.86L45.2239 83.2C45.9172 82.48 46.4239 81.8333 46.7439 81.26C47.0772 80.6733 47.2439 80.0933 47.2439 79.52C47.2439 78.7733 47.0372 78.1867 46.6239 77.76C46.2239 77.3333 45.6706 77.12 44.9639 77.12C44.1906 77.12 43.5772 77.3467 43.1239 77.8C42.6839 78.24 42.4639 78.8467 42.4639 79.62H40.3039C40.3306 78.7133 40.5372 77.9333 40.9239 77.28C41.3106 76.6133 41.8506 76.1 42.5439 75.74C43.2372 75.38 44.0506 75.2 44.9839 75.2C45.8772 75.2 46.6572 75.3733 47.3239 75.72C47.9906 76.0667 48.5039 76.5533 48.8639 77.18C49.2239 77.8067 49.4039 78.5467 49.4039 79.4C49.4039 80.2667 49.1772 81.1133 48.7239 81.94C48.2839 82.7667 47.5572 83.6867 46.5439 84.7L43.2439 88.04H49.6239V90H40.7039Z" fill="white"/>
<path d="M102.62 90V88.04H106.48V80.96H103.12V79H108.58V88.04H112.12V90H102.62ZM107.32 77.1C106.853 77.1 106.48 76.98 106.2 76.74C105.92 76.4867 105.78 76.1533 105.78 75.74C105.78 75.3133 105.92 74.98 106.2 74.74C106.48 74.4867 106.853 74.36 107.32 74.36C107.787 74.36 108.16 74.4867 108.44 74.74C108.72 74.98 108.86 75.3133 108.86 75.74C108.86 76.1533 108.72 76.4867 108.44 76.74C108.16 76.98 107.787 77.1 107.32 77.1ZM114.172 90V79H115.972V80.4H116.372L116.072 80.82C116.072 80.2067 116.239 79.72 116.572 79.36C116.906 78.9867 117.352 78.8 117.912 78.8C118.512 78.8 118.972 79.0333 119.292 79.5C119.626 79.9667 119.792 80.6067 119.792 81.42L119.312 80.4H120.072L119.752 80.82C119.752 80.2067 119.919 79.72 120.252 79.36C120.599 78.9867 121.059 78.8 121.632 78.8C122.312 78.8 122.846 79.06 123.232 79.58C123.619 80.0867 123.812 80.7667 123.812 81.62V90H121.892V81.68C121.892 81.2667 121.799 80.9467 121.612 80.72C121.439 80.4933 121.186 80.38 120.852 80.38C120.519 80.38 120.259 80.4933 120.072 80.72C119.899 80.9333 119.812 81.2467 119.812 81.66V90H118.192V81.68C118.192 81.2533 118.099 80.9333 117.912 80.72C117.726 80.4933 117.459 80.38 117.112 80.38C116.779 80.38 116.526 80.4933 116.352 80.72C116.192 80.9333 116.112 81.2467 116.112 81.66V90H114.172ZM126.664 93.6V79H128.804V81.1H129.264L128.804 81.6C128.804 80.7333 129.071 80.0533 129.604 79.56C130.151 79.0533 130.878 78.8 131.784 78.8C132.891 78.8 133.771 79.1733 134.424 79.92C135.091 80.6533 135.424 81.66 135.424 82.94V86.04C135.424 86.8933 135.271 87.6333 134.964 88.26C134.671 88.8733 134.251 89.3533 133.704 89.7C133.171 90.0333 132.531 90.2 131.784 90.2C130.891 90.2 130.171 89.9533 129.624 89.46C129.078 88.9533 128.804 88.2667 128.804 87.4L129.264 87.9H128.764L128.824 90.46V93.6H126.664ZM131.044 88.32C131.751 88.32 132.298 88.12 132.684 87.72C133.084 87.3067 133.284 86.7133 133.284 85.94V83.06C133.284 82.2867 133.084 81.7 132.684 81.3C132.298 80.8867 131.751 80.68 131.044 80.68C130.364 80.68 129.824 80.8933 129.424 81.32C129.024 81.7333 128.824 82.3133 128.824 83.06V85.94C128.824 86.6867 129.024 87.2733 129.424 87.7C129.824 88.1133 130.364 88.32 131.044 88.32ZM142.977 90.18C142.07 90.18 141.283 90.0067 140.617 89.66C139.95 89.3133 139.437 88.82 139.077 88.18C138.717 87.54 138.537 86.7867 138.537 85.92V83.08C138.537 82.2 138.717 81.4467 139.077 80.82C139.437 80.18 139.95 79.6867 140.617 79.34C141.283 78.9933 142.07 78.82 142.977 78.82C143.883 78.82 144.67 78.9933 145.337 79.34C146.003 79.6867 146.517 80.18 146.877 80.82C147.237 81.4467 147.417 82.2 147.417 83.08V85.92C147.417 86.7867 147.237 87.54 146.877 88.18C146.517 88.82 146.003 89.3133 145.337 89.66C144.67 90.0067 143.883 90.18 142.977 90.18ZM142.977 88.28C143.71 88.28 144.277 88.08 144.677 87.68C145.077 87.2667 145.277 86.68 145.277 85.92V83.08C145.277 82.3067 145.077 81.72 144.677 81.32C144.277 80.92 143.71 80.72 142.977 80.72C142.257 80.72 141.69 80.92 141.277 81.32C140.877 81.72 140.677 82.3067 140.677 83.08V85.92C140.677 86.68 140.877 87.2667 141.277 87.68C141.69 88.08 142.257 88.28 142.977 88.28ZM151.009 90V79H153.089V81.1H153.609L152.949 82.4C152.949 81.2133 153.209 80.32 153.729 79.72C154.249 79.1067 155.022 78.8 156.049 78.8C157.222 78.8 158.149 79.1667 158.829 79.9C159.522 80.62 159.869 81.6133 159.869 82.88V83.62H157.649V83.06C157.649 82.2733 157.449 81.6733 157.049 81.26C156.662 80.8333 156.115 80.62 155.409 80.62C154.702 80.62 154.149 80.8333 153.749 81.26C153.362 81.6867 153.169 82.2867 153.169 83.06V90H151.009ZM168.161 90C167.161 90 166.381 89.7267 165.821 89.18C165.261 88.6333 164.981 87.8733 164.981 86.9V80.96H161.941V79H164.981V75.9H167.141V79H171.441V80.96H167.141V86.9C167.141 87.66 167.508 88.04 168.241 88.04H171.241V90H168.161ZM249.166 90V82.12H246.046V80.16H249.166V78.38C249.166 77.46 249.46 76.7333 250.046 76.2C250.633 75.6667 251.433 75.4 252.446 75.4H255.666V77.32H252.486C252.113 77.32 251.82 77.4133 251.606 77.6C251.406 77.7867 251.306 78.0533 251.306 78.4V80.16H255.666V82.12H251.306V90H249.166ZM258.938 90V79H261.018V81.1H261.538L260.878 82.4C260.878 81.2133 261.138 80.32 261.658 79.72C262.178 79.1067 262.952 78.8 263.978 78.8C265.152 78.8 266.078 79.1667 266.758 79.9C267.452 80.62 267.798 81.6133 267.798 82.88V83.62H265.578V83.06C265.578 82.2733 265.378 81.6733 264.978 81.26C264.592 80.8333 264.045 80.62 263.338 80.62C262.632 80.62 262.078 80.8333 261.678 81.26C261.292 81.6867 261.098 82.2867 261.098 83.06V90H258.938ZM274.891 90.18C273.984 90.18 273.197 90.0067 272.531 89.66C271.864 89.3133 271.351 88.82 270.991 88.18C270.631 87.54 270.451 86.7867 270.451 85.92V83.08C270.451 82.2 270.631 81.4467 270.991 80.82C271.351 80.18 271.864 79.6867 272.531 79.34C273.197 78.9933 273.984 78.82 274.891 78.82C275.797 78.82 276.584 78.9933 277.251 79.34C277.917 79.6867 278.431 80.18 278.791 80.82C279.151 81.4467 279.331 82.2 279.331 83.08V85.92C279.331 86.7867 279.151 87.54 278.791 88.18C278.431 88.82 277.917 89.3133 277.251 89.66C276.584 90.0067 275.797 90.18 274.891 90.18ZM274.891 88.28C275.624 88.28 276.191 88.08 276.591 87.68C276.991 87.2667 277.191 86.68 277.191 85.92V83.08C277.191 82.3067 276.991 81.72 276.591 81.32C276.191 80.92 275.624 80.72 274.891 80.72C274.171 80.72 273.604 80.92 273.191 81.32C272.791 81.72 272.591 82.3067 272.591 83.08V85.92C272.591 86.68 272.791 87.2667 273.191 87.68C273.604 88.08 274.171 88.28 274.891 88.28ZM282.063 90V79H283.863V80.4H284.263L283.963 80.82C283.963 80.2067 284.129 79.72 284.463 79.36C284.796 78.9867 285.243 78.8 285.803 78.8C286.403 78.8 286.863 79.0333 287.183 79.5C287.516 79.9667 287.683 80.6067 287.683 81.42L287.203 80.4H287.963L287.643 80.82C287.643 80.2067 287.809 79.72 288.143 79.36C288.489 78.9867 288.949 78.8 289.523 78.8C290.203 78.8 290.736 79.06 291.123 79.58C291.509 80.0867 291.703 80.7667 291.703 81.62V90H289.783V81.68C289.783 81.2667 289.689 80.9467 289.503 80.72C289.329 80.4933 289.076 80.38 288.743 80.38C288.409 80.38 288.149 80.4933 287.963 80.72C287.789 80.9333 287.703 81.2467 287.703 81.66V90H286.083V81.68C286.083 81.2533 285.989 80.9333 285.803 80.72C285.616 80.4933 285.349 80.38 285.003 80.38C284.669 80.38 284.416 80.4933 284.243 80.72C284.083 80.9333 284.003 81.2467 284.003 81.66V90H282.063Z" fill="#D87086"/>
<path d="M186.565 90V75.4H189.285L193.545 87.54C193.519 87.1533 193.485 86.6933 193.445 86.16C193.405 85.6267 193.372 85.0733 193.345 84.5C193.332 83.9267 193.325 83.4067 193.325 82.94V75.4H195.325V90H192.605L188.365 77.86C188.392 78.2067 188.419 78.64 188.445 79.16C188.485 79.68 188.512 80.22 188.525 80.78C188.552 81.34 188.565 81.86 188.565 82.34V90H186.565ZM202.938 90.2C202.044 90.2 201.258 90.0267 200.578 89.68C199.911 89.32 199.398 88.82 199.038 88.18C198.678 87.54 198.498 86.7933 198.498 85.94V83.06C198.498 82.1933 198.678 81.4467 199.038 80.82C199.398 80.18 199.911 79.6867 200.578 79.34C201.258 78.98 202.044 78.8 202.938 78.8C203.844 78.8 204.631 78.98 205.298 79.34C205.964 79.6867 206.478 80.18 206.838 80.82C207.198 81.4467 207.378 82.1933 207.378 83.06V85.02H200.578V85.94C200.578 86.7533 200.778 87.3733 201.178 87.8C201.591 88.2267 202.184 88.44 202.958 88.44C203.584 88.44 204.091 88.3333 204.478 88.12C204.864 87.8933 205.104 87.5667 205.198 87.14H207.338C207.178 88.0733 206.698 88.82 205.898 89.38C205.098 89.9267 204.111 90.2 202.938 90.2ZM205.298 83.72V83.04C205.298 82.24 205.098 81.62 204.698 81.18C204.298 80.74 203.711 80.52 202.938 80.52C202.178 80.52 201.591 80.74 201.178 81.18C200.778 81.62 200.578 82.2467 200.578 83.06V83.56L205.458 83.54L205.298 83.72ZM209.79 90L213.65 84.32L210.03 79H212.51L214.45 82.04C214.543 82.2 214.636 82.3733 214.73 82.56C214.823 82.7333 214.896 82.88 214.95 83C214.99 82.88 215.056 82.7333 215.15 82.56C215.243 82.3733 215.336 82.2 215.43 82.04L217.37 79H219.85L216.23 84.34L220.07 90H217.59L215.45 86.7C215.356 86.54 215.263 86.36 215.17 86.16C215.076 85.96 215.003 85.8 214.95 85.68C214.896 85.8 214.816 85.96 214.71 86.16C214.616 86.36 214.516 86.54 214.41 86.7L212.25 90H209.79ZM228.122 90C227.122 90 226.342 89.7267 225.782 89.18C225.222 88.6333 224.942 87.8733 224.942 86.9V80.96H221.902V79H224.942V75.9H227.102V79H231.402V80.96H227.102V86.9C227.102 87.66 227.469 88.04 228.202 88.04H231.202V90H228.122ZM380.08 93.2L381.68 86.98H384.56L381.96 93.2H380.08ZM382.62 81.98C382.154 81.98 381.774 81.8333 381.48 81.54C381.187 81.2333 381.04 80.8467 381.04 80.38C381.04 79.9267 381.187 79.5533 381.48 79.26C381.787 78.9533 382.167 78.8 382.62 78.8H383.02C383.474 78.8 383.847 78.9533 384.14 79.26C384.447 79.5533 384.6 79.9267 384.6 80.38C384.6 80.8467 384.454 81.2333 384.16 81.54C383.867 81.8333 383.487 81.98 383.02 81.98H382.62Z" fill="#AD8FE8"/>
<path d="M309.927 81.4L309.667 78.46V75.4H311.907V78.46L311.687 81.4H309.927ZM318.539 90V79H320.679V81.1H321.199L320.679 81.6C320.679 80.72 320.939 80.0333 321.459 79.54C321.979 79.0467 322.699 78.8 323.619 78.8C324.713 78.8 325.586 79.1533 326.239 79.86C326.893 80.5533 327.219 81.4933 327.219 82.68V90H325.059V82.92C325.059 82.2 324.866 81.6467 324.479 81.26C324.093 80.8733 323.566 80.68 322.899 80.68C322.219 80.68 321.679 80.8867 321.279 81.3C320.893 81.7 320.699 82.2867 320.699 83.06V90H318.539ZM334.852 90.2C333.958 90.2 333.172 90.0267 332.492 89.68C331.825 89.32 331.312 88.82 330.952 88.18C330.592 87.54 330.412 86.7933 330.412 85.94V83.06C330.412 82.1933 330.592 81.4467 330.952 80.82C331.312 80.18 331.825 79.6867 332.492 79.34C333.172 78.98 333.958 78.8 334.852 78.8C335.758 78.8 336.545 78.98 337.212 79.34C337.878 79.6867 338.392 80.18 338.752 80.82C339.112 81.4467 339.292 82.1933 339.292 83.06V85.02H332.492V85.94C332.492 86.7533 332.692 87.3733 333.092 87.8C333.505 88.2267 334.098 88.44 334.872 88.44C335.498 88.44 336.005 88.3333 336.392 88.12C336.778 87.8933 337.018 87.5667 337.112 87.14H339.252C339.092 88.0733 338.612 88.82 337.812 89.38C337.012 89.9267 336.025 90.2 334.852 90.2ZM337.212 83.72V83.04C337.212 82.24 337.012 81.62 336.612 81.18C336.212 80.74 335.625 80.52 334.852 80.52C334.092 80.52 333.505 80.74 333.092 81.18C332.692 81.62 332.492 82.2467 332.492 83.06V83.56L337.372 83.54L337.212 83.72ZM341.704 90L345.564 84.32L341.944 79H344.424L346.364 82.04C346.457 82.2 346.55 82.3733 346.644 82.56C346.737 82.7333 346.81 82.88 346.864 83C346.904 82.88 346.97 82.7333 347.064 82.56C347.157 82.3733 347.25 82.2 347.344 82.04L349.284 79H351.764L348.144 84.34L351.984 90H349.504L347.364 86.7C347.27 86.54 347.177 86.36 347.084 86.16C346.99 85.96 346.917 85.8 346.864 85.68C346.81 85.8 346.73 85.96 346.624 86.16C346.53 86.36 346.43 86.54 346.324 86.7L344.164 90H341.704ZM360.036 90C359.036 90 358.256 89.7267 357.696 89.18C357.136 88.6333 356.856 87.8733 356.856 86.9V80.96H353.816V79H356.856V75.9H359.016V79H363.316V80.96H359.016V86.9C359.016 87.66 359.383 88.04 360.116 88.04H363.116V90H360.036ZM369.888 81.4L369.628 78.46V75.4H371.868V78.46L371.648 81.4H369.888Z" fill="#D8956C"/>
<path d="M44.8239 134.2C43.9039 134.2 43.1039 134.027 42.4239 133.68C41.7439 133.333 41.2172 132.847 40.8439 132.22C40.4839 131.58 40.3039 130.84 40.3039 130H42.4639C42.4639 130.733 42.6706 131.307 43.0839 131.72C43.5106 132.133 44.0972 132.34 44.8439 132.34C45.6039 132.34 46.1906 132.127 46.6039 131.7C47.0172 131.273 47.2239 130.707 47.2239 130V128.92C47.2239 128.173 47.0172 127.6 46.6039 127.2C46.1906 126.787 45.6039 126.58 44.8439 126.58H43.2839V124.54L46.6839 121.3H40.9239V119.4H48.8839V121.44L44.8639 125.22V124.7C46.2506 124.7 47.3506 125.08 48.1639 125.84C48.9772 126.6 49.3839 127.62 49.3839 128.9V130C49.3839 130.84 49.1972 131.58 48.8239 132.22C48.4506 132.847 47.9172 133.333 47.2239 133.68C46.5439 134.027 45.7439 134.2 44.8239 134.2Z" fill="white"/>
<path d="M102.62 134V132.04H106.48V124.96H103.12V123H108.58V132.04H112.12V134H102.62ZM107.32 121.1C106.853 121.1 106.48 120.98 106.2 120.74C105.92 120.487 105.78 120.153 105.78 119.74C105.78 119.313 105.92 118.98 106.2 118.74C106.48 118.487 106.853 118.36 107.32 118.36C107.787 118.36 108.16 118.487 108.44 118.74C108.72 118.98 108.86 119.313 108.86 119.74C108.86 120.153 108.72 120.487 108.44 120.74C108.16 120.98 107.787 121.1 107.32 121.1ZM114.172 134V123H115.972V124.4H116.372L116.072 124.82C116.072 124.207 116.239 123.72 116.572 123.36C116.906 122.987 117.352 122.8 117.912 122.8C118.512 122.8 118.972 123.033 119.292 123.5C119.626 123.967 119.792 124.607 119.792 125.42L119.312 124.4H120.072L119.752 124.82C119.752 124.207 119.919 123.72 120.252 123.36C120.599 122.987 121.059 122.8 121.632 122.8C122.312 122.8 122.846 123.06 123.232 123.58C123.619 124.087 123.812 124.767 123.812 125.62V134H121.892V125.68C121.892 125.267 121.799 124.947 121.612 124.72C121.439 124.493 121.186 124.38 120.852 124.38C120.519 124.38 120.259 124.493 120.072 124.72C119.899 124.933 119.812 125.247 119.812 125.66V134H118.192V125.68C118.192 125.253 118.099 124.933 117.912 124.72C117.726 124.493 117.459 124.38 117.112 124.38C116.779 124.38 116.526 124.493 116.352 124.72C116.192 124.933 116.112 125.247 116.112 125.66V134H114.172ZM126.664 137.6V123H128.804V125.1H129.264L128.804 125.6C128.804 124.733 129.071 124.053 129.604 123.56C130.151 123.053 130.878 122.8 131.784 122.8C132.891 122.8 133.771 123.173 134.424 123.92C135.091 124.653 135.424 125.66 135.424 126.94V130.04C135.424 130.893 135.271 131.633 134.964 132.26C134.671 132.873 134.251 133.353 133.704 133.7C133.171 134.033 132.531 134.2 131.784 134.2C130.891 134.2 130.171 133.953 129.624 133.46C129.078 132.953 128.804 132.267 128.804 131.4L129.264 131.9H128.764L128.824 134.46V137.6H126.664ZM131.044 132.32C131.751 132.32 132.298 132.12 132.684 131.72C133.084 131.307 133.284 130.713 133.284 129.94V127.06C133.284 126.287 133.084 125.7 132.684 125.3C132.298 124.887 131.751 124.68 131.044 124.68C130.364 124.68 129.824 124.893 129.424 125.32C129.024 125.733 128.824 126.313 128.824 127.06V129.94C128.824 130.687 129.024 131.273 129.424 131.7C129.824 132.113 130.364 132.32 131.044 132.32ZM142.977 134.18C142.07 134.18 141.283 134.007 140.617 133.66C139.95 133.313 139.437 132.82 139.077 132.18C138.717 131.54 138.537 130.787 138.537 129.92V127.08C138.537 126.2 138.717 125.447 139.077 124.82C139.437 124.18 139.95 123.687 140.617 123.34C141.283 122.993 142.07 122.82 142.977 122.82C143.883 122.82 144.67 122.993 145.337 123.34C146.003 123.687 146.517 124.18 146.877 124.82C147.237 125.447 147.417 126.2 147.417 127.08V129.92C147.417 130.787 147.237 131.54 146.877 132.18C146.517 132.82 146.003 133.313 145.337 133.66C144.67 134.007 143.883 134.18 142.977 134.18ZM142.977 132.28C143.71 132.28 144.277 132.08 144.677 131.68C145.077 131.267 145.277 130.68 145.277 129.92V127.08C145.277 126.307 145.077 125.72 144.677 125.32C144.277 124.92 143.71 124.72 142.977 124.72C142.257 124.72 141.69 124.92 141.277 125.32C140.877 125.72 140.677 126.307 140.677 127.08V129.92C140.677 130.68 140.877 131.267 141.277 131.68C141.69 132.08 142.257 132.28 142.977 132.28ZM151.009 134V123H153.089V125.1H153.609L152.949 126.4C152.949 125.213 153.209 124.32 153.729 123.72C154.249 123.107 155.022 122.8 156.049 122.8C157.222 122.8 158.149 123.167 158.829 123.9C159.522 124.62 159.869 125.613 159.869 126.88V127.62H157.649V127.06C157.649 126.273 157.449 125.673 157.049 125.26C156.662 124.833 156.115 124.62 155.409 124.62C154.702 124.62 154.149 124.833 153.749 125.26C153.362 125.687 153.169 126.287 153.169 127.06V134H151.009ZM168.161 134C167.161 134 166.381 133.727 165.821 133.18C165.261 132.633 164.981 131.873 164.981 130.9V124.96H161.941V123H164.981V119.9H167.141V123H171.441V124.96H167.141V130.9C167.141 131.66 167.508 132.04 168.241 132.04H171.241V134H168.161ZM261.158 134V126.12H258.038V124.16H261.158V122.38C261.158 121.46 261.452 120.733 262.038 120.2C262.625 119.667 263.425 119.4 264.438 119.4H267.658V121.32H264.478C264.105 121.32 263.812 121.413 263.598 121.6C263.398 121.787 263.298 122.053 263.298 122.4V124.16H267.658V126.12H263.298V134H261.158ZM270.931 134V123H273.011V125.1H273.531L272.871 126.4C272.871 125.213 273.131 124.32 273.651 123.72C274.171 123.107 274.944 122.8 275.971 122.8C277.144 122.8 278.071 123.167 278.751 123.9C279.444 124.62 279.791 125.613 279.791 126.88V127.62H277.571V127.06C277.571 126.273 277.371 125.673 276.971 125.26C276.584 124.833 276.037 124.62 275.331 124.62C274.624 124.62 274.071 124.833 273.671 125.26C273.284 125.687 273.091 126.287 273.091 127.06V134H270.931ZM286.883 134.18C285.976 134.18 285.189 134.007 284.523 133.66C283.856 133.313 283.343 132.82 282.983 132.18C282.623 131.54 282.443 130.787 282.443 129.92V127.08C282.443 126.2 282.623 125.447 282.983 124.82C283.343 124.18 283.856 123.687 284.523 123.34C285.189 122.993 285.976 122.82 286.883 122.82C287.789 122.82 288.576 122.993 289.243 123.34C289.909 123.687 290.423 124.18 290.783 124.82C291.143 125.447 291.323 126.2 291.323 127.08V129.92C291.323 130.787 291.143 131.54 290.783 132.18C290.423 132.82 289.909 133.313 289.243 133.66C288.576 134.007 287.789 134.18 286.883 134.18ZM286.883 132.28C287.616 132.28 288.183 132.08 288.583 131.68C288.983 131.267 289.183 130.68 289.183 129.92V127.08C289.183 126.307 288.983 125.72 288.583 125.32C288.183 124.92 287.616 124.72 286.883 124.72C286.163 124.72 285.596 124.92 285.183 125.32C284.783 125.72 284.583 126.307 284.583 127.08V129.92C284.583 130.68 284.783 131.267 285.183 131.68C285.596 132.08 286.163 132.28 286.883 132.28ZM294.055 134V123H295.855V124.4H296.255L295.955 124.82C295.955 124.207 296.122 123.72 296.455 123.36C296.788 122.987 297.235 122.8 297.795 122.8C298.395 122.8 298.855 123.033 299.175 123.5C299.508 123.967 299.675 124.607 299.675 125.42L299.195 124.4H299.955L299.635 124.82C299.635 124.207 299.802 123.72 300.135 123.36C300.482 122.987 300.942 122.8 301.515 122.8C302.195 122.8 302.728 123.06 303.115 123.58C303.502 124.087 303.695 124.767 303.695 125.62V134H301.775V125.68C301.775 125.267 301.682 124.947 301.495 124.72C301.322 124.493 301.068 124.38 300.735 124.38C300.402 124.38 300.142 124.493 299.955 124.72C299.782 124.933 299.695 125.247 299.695 125.66V134H298.075V125.68C298.075 125.253 297.982 124.933 297.795 124.72C297.608 124.493 297.342 124.38 296.995 124.38C296.662 124.38 296.408 124.493 296.235 124.72C296.075 124.933 295.995 125.247 295.995 125.66V134H294.055Z" fill="#D87086"/>
<path d="M186.625 134V119.4H191.205C192.125 119.4 192.925 119.58 193.605 119.94C194.285 120.287 194.812 120.78 195.185 121.42C195.572 122.06 195.765 122.813 195.765 123.68C195.765 124.653 195.512 125.5 195.005 126.22C194.512 126.927 193.839 127.427 192.985 127.72L195.965 134H193.505L190.845 128H188.785V134H186.625ZM188.785 126.1H191.205C191.925 126.1 192.499 125.887 192.925 125.46C193.352 125.02 193.565 124.44 193.565 123.72C193.565 122.973 193.352 122.387 192.925 121.96C192.499 121.533 191.925 121.32 191.205 121.32H188.785V126.1ZM202.938 134.2C202.044 134.2 201.258 134.027 200.578 133.68C199.911 133.32 199.398 132.82 199.038 132.18C198.678 131.54 198.498 130.793 198.498 129.94V127.06C198.498 126.193 198.678 125.447 199.038 124.82C199.398 124.18 199.911 123.687 200.578 123.34C201.258 122.98 202.044 122.8 202.938 122.8C203.844 122.8 204.631 122.98 205.298 123.34C205.964 123.687 206.478 124.18 206.838 124.82C207.198 125.447 207.378 126.193 207.378 127.06V129.02H200.578V129.94C200.578 130.753 200.778 131.373 201.178 131.8C201.591 132.227 202.184 132.44 202.958 132.44C203.584 132.44 204.091 132.333 204.478 132.12C204.864 131.893 205.104 131.567 205.198 131.14H207.338C207.178 132.073 206.698 132.82 205.898 133.38C205.098 133.927 204.111 134.2 202.938 134.2ZM205.298 127.72V127.04C205.298 126.24 205.098 125.62 204.698 125.18C204.298 124.74 203.711 124.52 202.938 124.52C202.178 124.52 201.591 124.74 201.178 125.18C200.778 125.62 200.578 126.247 200.578 127.06V127.56L205.458 127.54L205.298 127.72ZM213.83 134.2C212.683 134.2 211.776 133.907 211.11 133.32C210.456 132.72 210.13 131.907 210.13 130.88C210.13 129.84 210.476 129.027 211.17 128.44C211.876 127.84 212.843 127.54 214.07 127.54H217.13V126.52C217.13 125.92 216.943 125.453 216.57 125.12C216.196 124.787 215.67 124.62 214.99 124.62C214.39 124.62 213.89 124.753 213.49 125.02C213.09 125.273 212.856 125.613 212.79 126.04H210.67C210.79 125.053 211.243 124.267 212.03 123.68C212.83 123.093 213.836 122.8 215.05 122.8C216.356 122.8 217.39 123.133 218.15 123.8C218.91 124.453 219.29 125.347 219.29 126.48V134H217.19V131.98H216.83L217.19 131.58C217.19 132.38 216.883 133.02 216.27 133.5C215.656 133.967 214.843 134.2 213.83 134.2ZM214.47 132.54C215.243 132.54 215.876 132.347 216.37 131.96C216.876 131.56 217.13 131.053 217.13 130.44V129H214.11C213.55 129 213.103 129.153 212.77 129.46C212.45 129.767 212.29 130.187 212.29 130.72C212.29 131.28 212.483 131.727 212.87 132.06C213.256 132.38 213.79 132.54 214.47 132.54ZM227.002 134.2C226.095 134.2 225.295 134.033 224.602 133.7C223.922 133.353 223.395 132.86 223.022 132.22C222.662 131.567 222.482 130.807 222.482 129.94V127.06C222.482 126.18 222.662 125.42 223.022 124.78C223.395 124.14 223.922 123.653 224.602 123.32C225.295 122.973 226.095 122.8 227.002 122.8C228.322 122.8 229.382 123.147 230.182 123.84C230.982 124.533 231.402 125.48 231.442 126.68H229.282C229.242 126.053 229.022 125.567 228.622 125.22C228.222 124.873 227.682 124.7 227.002 124.7C226.269 124.7 225.689 124.907 225.262 125.32C224.835 125.72 224.622 126.293 224.622 127.04V129.94C224.622 130.687 224.835 131.267 225.262 131.68C225.689 132.093 226.269 132.3 227.002 132.3C227.682 132.3 228.222 132.127 228.622 131.78C229.022 131.433 229.242 130.947 229.282 130.32H231.442C231.402 131.52 230.982 132.467 230.182 133.16C229.382 133.853 228.322 134.2 227.002 134.2ZM240.114 134C239.114 134 238.334 133.727 237.774 133.18C237.214 132.633 236.934 131.873 236.934 130.9V124.96H233.894V123H236.934V119.9H239.094V123H243.394V124.96H239.094V130.9C239.094 131.66 239.461 132.04 240.194 132.04H243.194V134H240.114ZM404.065 137.2L405.665 130.98H408.545L405.945 137.2H404.065ZM406.605 125.98C406.138 125.98 405.758 125.833 405.465 125.54C405.171 125.233 405.025 124.847 405.025 124.38C405.025 123.927 405.171 123.553 405.465 123.26C405.771 122.953 406.151 122.8 406.605 122.8H407.005C407.458 122.8 407.831 122.953 408.125 123.26C408.431 123.553 408.585 123.927 408.585 124.38C408.585 124.847 408.438 125.233 408.145 125.54C407.851 125.833 407.471 125.98 407.005 125.98H406.605Z" fill="#AD8FE8"/>
<path d="M321.919 125.4L321.659 122.46V119.4H323.899V122.46L323.679 125.4H321.919ZM330.892 134V123H332.972V125.1H333.492L332.832 126.4C332.832 125.213 333.092 124.32 333.612 123.72C334.132 123.107 334.905 122.8 335.932 122.8C337.105 122.8 338.032 123.167 338.712 123.9C339.405 124.62 339.752 125.613 339.752 126.88V127.62H337.532V127.06C337.532 126.273 337.332 125.673 336.932 125.26C336.545 124.833 335.998 124.62 335.292 124.62C334.585 124.62 334.032 124.833 333.632 125.26C333.245 125.687 333.052 126.287 333.052 127.06V134H330.892ZM346.844 134.2C345.95 134.2 345.164 134.027 344.484 133.68C343.817 133.32 343.304 132.82 342.944 132.18C342.584 131.54 342.404 130.793 342.404 129.94V127.06C342.404 126.193 342.584 125.447 342.944 124.82C343.304 124.18 343.817 123.687 344.484 123.34C345.164 122.98 345.95 122.8 346.844 122.8C347.75 122.8 348.537 122.98 349.204 123.34C349.87 123.687 350.384 124.18 350.744 124.82C351.104 125.447 351.284 126.193 351.284 127.06V129.02H344.484V129.94C344.484 130.753 344.684 131.373 345.084 131.8C345.497 132.227 346.09 132.44 346.864 132.44C347.49 132.44 347.997 132.333 348.384 132.12C348.77 131.893 349.01 131.567 349.104 131.14H351.244C351.084 132.073 350.604 132.82 349.804 133.38C349.004 133.927 348.017 134.2 346.844 134.2ZM349.204 127.72V127.04C349.204 126.24 349.004 125.62 348.604 125.18C348.204 124.74 347.617 124.52 346.844 124.52C346.084 124.52 345.497 124.74 345.084 125.18C344.684 125.62 344.484 126.247 344.484 127.06V127.56L349.364 127.54L349.204 127.72ZM357.736 134.2C356.589 134.2 355.683 133.907 355.016 133.32C354.363 132.72 354.036 131.907 354.036 130.88C354.036 129.84 354.383 129.027 355.076 128.44C355.783 127.84 356.749 127.54 357.976 127.54H361.036V126.52C361.036 125.92 360.849 125.453 360.476 125.12C360.103 124.787 359.576 124.62 358.896 124.62C358.296 124.62 357.796 124.753 357.396 125.02C356.996 125.273 356.763 125.613 356.696 126.04H354.576C354.696 125.053 355.149 124.267 355.936 123.68C356.736 123.093 357.743 122.8 358.956 122.8C360.263 122.8 361.296 123.133 362.056 123.8C362.816 124.453 363.196 125.347 363.196 126.48V134H361.096V131.98H360.736L361.096 131.58C361.096 132.38 360.789 133.02 360.176 133.5C359.563 133.967 358.749 134.2 357.736 134.2ZM358.376 132.54C359.149 132.54 359.783 132.347 360.276 131.96C360.783 131.56 361.036 131.053 361.036 130.44V129H358.016C357.456 129 357.009 129.153 356.676 129.46C356.356 129.767 356.196 130.187 356.196 130.72C356.196 131.28 356.389 131.727 356.776 132.06C357.163 132.38 357.696 132.54 358.376 132.54ZM370.908 134.2C370.001 134.2 369.201 134.033 368.508 133.7C367.828 133.353 367.301 132.86 366.928 132.22C366.568 131.567 366.388 130.807 366.388 129.94V127.06C366.388 126.18 366.568 125.42 366.928 124.78C367.301 124.14 367.828 123.653 368.508 123.32C369.201 122.973 370.001 122.8 370.908 122.8C372.228 122.8 373.288 123.147 374.088 123.84C374.888 124.533 375.308 125.48 375.348 126.68H373.188C373.148 126.053 372.928 125.567 372.528 125.22C372.128 124.873 371.588 124.7 370.908 124.7C370.175 124.7 369.595 124.907 369.168 125.32C368.741 125.72 368.528 126.293 368.528 127.04V129.94C368.528 130.687 368.741 131.267 369.168 131.68C369.595 132.093 370.175 132.3 370.908 132.3C371.588 132.3 372.128 132.127 372.528 131.78C372.928 131.433 373.148 130.947 373.188 130.32H375.348C375.308 131.52 374.888 132.467 374.088 133.16C373.288 133.853 372.228 134.2 370.908 134.2ZM384.02 134C383.02 134 382.24 133.727 381.68 133.18C381.12 132.633 380.84 131.873 380.84 130.9V124.96H377.8V123H380.84V119.9H383V123H387.3V124.96H383V130.9C383 131.66 383.367 132.04 384.1 132.04H387.1V134H384.02ZM393.873 125.4L393.613 122.46V119.4H395.853V122.46L395.633 125.4H393.873Z" fill="#D8956C"/>
<path d="M47.0039 178V174.96H40.4639V171.72L46.1439 163.4H48.5439L42.5439 172.24V173.02H47.0039V169.6H49.1439V178H47.0039Z" fill="white"/>
<path d="M44.9639 222.2C43.6972 222.2 42.6706 221.88 41.8839 221.24C41.0972 220.587 40.6572 219.713 40.5639 218.62H42.7039C42.7706 219.153 42.9972 219.567 43.3839 219.86C43.7706 220.153 44.3039 220.3 44.9839 220.3C45.7439 220.3 46.3172 220.1 46.7039 219.7C47.1039 219.287 47.3039 218.713 47.3039 217.98V216.56C47.3039 215.813 47.1106 215.24 46.7239 214.84C46.3372 214.427 45.7639 214.22 45.0039 214.22C44.5239 214.22 44.1106 214.333 43.7639 214.56C43.4172 214.773 43.1639 215.073 43.0039 215.46H40.8639L40.9639 207.4H48.9239V209.36H43.0239L42.9839 213.9H43.5439L42.9639 214.42C42.9639 213.793 43.2106 213.3 43.7039 212.94C44.1972 212.58 44.8572 212.4 45.6839 212.4C46.8706 212.4 47.7906 212.767 48.4439 213.5C49.1106 214.22 49.4439 215.24 49.4439 216.56V217.98C49.4439 219.273 49.0506 220.3 48.2639 221.06C47.4772 221.82 46.3772 222.2 44.9639 222.2Z" fill="white"/>
<path d="M107.08 215.2C106.173 215.2 105.373 215.033 104.68 214.7C104 214.353 103.473 213.86 103.1 213.22C102.74 212.567 102.56 211.807 102.56 210.94V208.06C102.56 207.18 102.74 206.42 103.1 205.78C103.473 205.14 104 204.653 104.68 204.32C105.373 203.973 106.173 203.8 107.08 203.8C108.4 203.8 109.46 204.147 110.26 204.84C111.06 205.533 111.48 206.48 111.52 207.68H109.36C109.32 207.053 109.1 206.567 108.7 206.22C108.3 205.873 107.76 205.7 107.08 205.7C106.347 205.7 105.767 205.907 105.34 206.32C104.913 206.72 104.7 207.293 104.7 208.04V210.94C104.7 211.687 104.913 212.267 105.34 212.68C105.767 213.093 106.347 213.3 107.08 213.3C107.76 213.3 108.3 213.127 108.7 212.78C109.1 212.433 109.32 211.947 109.36 211.32H111.52C111.48 212.52 111.06 213.467 110.26 214.16C109.46 214.853 108.4 215.2 107.08 215.2ZM118.992 215.18C118.086 215.18 117.299 215.007 116.632 214.66C115.966 214.313 115.452 213.82 115.092 213.18C114.732 212.54 114.552 211.787 114.552 210.92V208.08C114.552 207.2 114.732 206.447 115.092 205.82C115.452 205.18 115.966 204.687 116.632 204.34C117.299 203.993 118.086 203.82 118.992 203.82C119.899 203.82 120.686 203.993 121.352 204.34C122.019 204.687 122.532 205.18 122.892 205.82C123.252 206.447 123.432 207.2 123.432 208.08V210.92C123.432 211.787 123.252 212.54 122.892 213.18C122.532 213.82 122.019 214.313 121.352 214.66C120.686 215.007 119.899 215.18 118.992 215.18ZM118.992 213.28C119.726 213.28 120.292 213.08 120.692 212.68C121.092 212.267 121.292 211.68 121.292 210.92V208.08C121.292 207.307 121.092 206.72 120.692 206.32C120.292 205.92 119.726 205.72 118.992 205.72C118.272 205.72 117.706 205.92 117.292 206.32C116.892 206.72 116.692 207.307 116.692 208.08V210.92C116.692 211.68 116.892 212.267 117.292 212.68C117.706 213.08 118.272 213.28 118.992 213.28ZM126.664 215V204H128.804V206.1H129.324L128.804 206.6C128.804 205.72 129.064 205.033 129.584 204.54C130.104 204.047 130.824 203.8 131.744 203.8C132.838 203.8 133.711 204.153 134.364 204.86C135.018 205.553 135.344 206.493 135.344 207.68V215H133.184V207.92C133.184 207.2 132.991 206.647 132.604 206.26C132.218 205.873 131.691 205.68 131.024 205.68C130.344 205.68 129.804 205.887 129.404 206.3C129.018 206.7 128.824 207.287 128.824 208.06V215H126.664ZM142.597 215.18C141.81 215.18 141.117 215.053 140.517 214.8C139.93 214.547 139.463 214.2 139.117 213.76C138.783 213.307 138.59 212.773 138.537 212.16H140.697C140.75 212.52 140.943 212.813 141.277 213.04C141.61 213.253 142.05 213.36 142.597 213.36H143.457C144.11 213.36 144.603 213.227 144.937 212.96C145.27 212.693 145.437 212.34 145.437 211.9C145.437 211.473 145.283 211.14 144.977 210.9C144.683 210.647 144.243 210.48 143.657 210.4L142.237 210.18C141.063 209.993 140.197 209.66 139.637 209.18C139.09 208.687 138.817 207.96 138.817 207C138.817 205.987 139.143 205.207 139.797 204.66C140.463 204.1 141.443 203.82 142.737 203.82H143.497C144.643 203.82 145.557 204.087 146.237 204.62C146.93 205.14 147.323 205.84 147.417 206.72H145.257C145.203 206.4 145.023 206.14 144.717 205.94C144.423 205.74 144.017 205.64 143.497 205.64H142.737C142.11 205.64 141.65 205.76 141.357 206C141.077 206.227 140.937 206.567 140.937 207.02C140.937 207.42 141.063 207.72 141.317 207.92C141.57 208.12 141.963 208.26 142.497 208.34L143.957 208.58C145.197 208.753 146.103 209.1 146.677 209.62C147.263 210.127 147.557 210.867 147.557 211.84C147.557 212.893 147.21 213.713 146.517 214.3C145.837 214.887 144.817 215.18 143.457 215.18H142.597ZM156.169 215C155.169 215 154.389 214.727 153.829 214.18C153.269 213.633 152.989 212.873 152.989 211.9V205.96H149.949V204H152.989V200.9H155.149V204H159.449V205.96H155.149V211.9C155.149 212.66 155.515 213.04 156.249 213.04H159.249V215H156.169Z" fill="#D87086"/>
<path d="M178.173 215.2C177.066 215.2 176.18 214.827 175.513 214.08C174.846 213.333 174.513 212.327 174.513 211.06V207.96C174.513 206.68 174.846 205.667 175.513 204.92C176.18 204.173 177.066 203.8 178.173 203.8C179.08 203.8 179.8 204.053 180.333 204.56C180.866 205.053 181.133 205.733 181.133 206.6L180.673 206.1H181.173L181.113 203.54V200.4H183.273V215H181.133V212.9H180.673L181.133 212.4C181.133 213.267 180.866 213.953 180.333 214.46C179.8 214.953 179.08 215.2 178.173 215.2ZM178.913 213.32C179.593 213.32 180.126 213.113 180.513 212.7C180.913 212.273 181.113 211.687 181.113 210.94V208.06C181.113 207.313 180.913 206.733 180.513 206.32C180.126 205.893 179.593 205.68 178.913 205.68C178.206 205.68 177.653 205.887 177.253 206.3C176.853 206.7 176.653 207.287 176.653 208.06V210.94C176.653 211.713 176.853 212.307 177.253 212.72C177.653 213.12 178.206 213.32 178.913 213.32ZM186.985 215V204H189.065V206.1H189.585L188.925 207.4C188.925 206.213 189.185 205.32 189.705 204.72C190.225 204.107 190.999 203.8 192.025 203.8C193.199 203.8 194.125 204.167 194.805 204.9C195.499 205.62 195.845 206.613 195.845 207.88V208.62H193.625V208.06C193.625 207.273 193.425 206.673 193.025 206.26C192.639 205.833 192.092 205.62 191.385 205.62C190.679 205.62 190.125 205.833 189.725 206.26C189.339 206.687 189.145 207.287 189.145 208.06V215H186.985ZM202.938 215.2C202.044 215.2 201.258 215.027 200.578 214.68C199.911 214.32 199.398 213.82 199.038 213.18C198.678 212.54 198.498 211.793 198.498 210.94V208.06C198.498 207.193 198.678 206.447 199.038 205.82C199.398 205.18 199.911 204.687 200.578 204.34C201.258 203.98 202.044 203.8 202.938 203.8C203.844 203.8 204.631 203.98 205.298 204.34C205.964 204.687 206.478 205.18 206.838 205.82C207.198 206.447 207.378 207.193 207.378 208.06V210.02H200.578V210.94C200.578 211.753 200.778 212.373 201.178 212.8C201.591 213.227 202.184 213.44 202.958 213.44C203.584 213.44 204.091 213.333 204.478 213.12C204.864 212.893 205.104 212.567 205.198 212.14H207.338C207.178 213.073 206.698 213.82 205.898 214.38C205.098 214.927 204.111 215.2 202.938 215.2ZM205.298 208.72V208.04C205.298 207.24 205.098 206.62 204.698 206.18C204.298 205.74 203.711 205.52 202.938 205.52C202.178 205.52 201.591 205.74 201.178 206.18C200.778 206.62 200.578 207.247 200.578 208.06V208.56L205.458 208.54L205.298 208.72ZM213.83 215.2C212.683 215.2 211.776 214.907 211.11 214.32C210.456 213.72 210.13 212.907 210.13 211.88C210.13 210.84 210.476 210.027 211.17 209.44C211.876 208.84 212.843 208.54 214.07 208.54H217.13V207.52C217.13 206.92 216.943 206.453 216.57 206.12C216.196 205.787 215.67 205.62 214.99 205.62C214.39 205.62 213.89 205.753 213.49 206.02C213.09 206.273 212.856 206.613 212.79 207.04H210.67C210.79 206.053 211.243 205.267 212.03 204.68C212.83 204.093 213.836 203.8 215.05 203.8C216.356 203.8 217.39 204.133 218.15 204.8C218.91 205.453 219.29 206.347 219.29 207.48V215H217.19V212.98H216.83L217.19 212.58C217.19 213.38 216.883 214.02 216.27 214.5C215.656 214.967 214.843 215.2 213.83 215.2ZM214.47 213.54C215.243 213.54 215.876 213.347 216.37 212.96C216.876 212.56 217.13 212.053 217.13 211.44V210H214.11C213.55 210 213.103 210.153 212.77 210.46C212.45 210.767 212.29 211.187 212.29 211.72C212.29 212.28 212.483 212.727 212.87 213.06C213.256 213.38 213.79 213.54 214.47 213.54ZM222.102 215V204H223.902V205.4H224.302L224.002 205.82C224.002 205.207 224.169 204.72 224.502 204.36C224.835 203.987 225.282 203.8 225.842 203.8C226.442 203.8 226.902 204.033 227.222 204.5C227.555 204.967 227.722 205.607 227.722 206.42L227.242 205.4H228.002L227.682 205.82C227.682 205.207 227.849 204.72 228.182 204.36C228.529 203.987 228.989 203.8 229.562 203.8C230.242 203.8 230.775 204.06 231.162 204.58C231.549 205.087 231.742 205.767 231.742 206.62V215H229.822V206.68C229.822 206.267 229.729 205.947 229.542 205.72C229.369 205.493 229.115 205.38 228.782 205.38C228.449 205.38 228.189 205.493 228.002 205.72C227.829 205.933 227.742 206.247 227.742 206.66V215H226.122V206.68C226.122 206.253 226.029 205.933 225.842 205.72C225.655 205.493 225.389 205.38 225.042 205.38C224.709 205.38 224.455 205.493 224.282 205.72C224.122 205.933 224.042 206.247 224.042 206.66V215H222.102ZM246.586 206.94V205H255.226V206.94H246.586ZM246.586 211.8V209.86H255.226V211.8H246.586Z" fill="white"/>
<path d="M273.951 206.4L273.691 203.46V200.4H275.931V203.46L275.711 206.4H273.951ZM286.963 215.2C286.056 215.2 285.263 215.033 284.583 214.7C283.916 214.353 283.396 213.86 283.023 213.22C282.663 212.567 282.483 211.807 282.483 210.94V204.46C282.483 203.58 282.663 202.82 283.023 202.18C283.396 201.54 283.916 201.053 284.583 200.72C285.263 200.373 286.056 200.2 286.963 200.2C287.869 200.2 288.656 200.373 289.323 200.72C289.989 201.067 290.503 201.56 290.863 202.2C291.236 202.827 291.423 203.58 291.423 204.46H289.263C289.263 203.7 289.063 203.12 288.663 202.72C288.263 202.32 287.696 202.12 286.963 202.12C286.229 202.12 285.656 202.32 285.243 202.72C284.843 203.12 284.643 203.693 284.643 204.44V210.94C284.643 211.687 284.843 212.267 285.243 212.68C285.656 213.08 286.229 213.28 286.963 213.28C287.696 213.28 288.263 213.08 288.663 212.68C289.063 212.267 289.263 211.687 289.263 210.94H291.423C291.423 211.807 291.236 212.56 290.863 213.2C290.503 213.84 289.989 214.333 289.323 214.68C288.656 215.027 287.869 215.2 286.963 215.2ZM298.875 215.18C297.968 215.18 297.182 215.007 296.515 214.66C295.848 214.313 295.335 213.82 294.975 213.18C294.615 212.54 294.435 211.787 294.435 210.92V208.08C294.435 207.2 294.615 206.447 294.975 205.82C295.335 205.18 295.848 204.687 296.515 204.34C297.182 203.993 297.968 203.82 298.875 203.82C299.782 203.82 300.568 203.993 301.235 204.34C301.902 204.687 302.415 205.18 302.775 205.82C303.135 206.447 303.315 207.2 303.315 208.08V210.92C303.315 211.787 303.135 212.54 302.775 213.18C302.415 213.82 301.902 214.313 301.235 214.66C300.568 215.007 299.782 215.18 298.875 215.18ZM298.875 213.28C299.608 213.28 300.175 213.08 300.575 212.68C300.975 212.267 301.175 211.68 301.175 210.92V208.08C301.175 207.307 300.975 206.72 300.575 206.32C300.175 205.92 299.608 205.72 298.875 205.72C298.155 205.72 297.588 205.92 297.175 206.32C296.775 206.72 296.575 207.307 296.575 208.08V210.92C296.575 211.68 296.775 212.267 297.175 212.68C297.588 213.08 298.155 213.28 298.875 213.28ZM306.547 215V204H308.687V206.1H309.207L308.687 206.6C308.687 205.72 308.947 205.033 309.467 204.54C309.987 204.047 310.707 203.8 311.627 203.8C312.721 203.8 313.594 204.153 314.247 204.86C314.901 205.553 315.227 206.493 315.227 207.68V215H313.067V207.92C313.067 207.2 312.874 206.647 312.487 206.26C312.101 205.873 311.574 205.68 310.907 205.68C310.227 205.68 309.687 205.887 309.287 206.3C308.901 206.7 308.707 207.287 308.707 208.06V215H306.547ZM322.479 215.18C321.693 215.18 320.999 215.053 320.399 214.8C319.813 214.547 319.346 214.2 318.999 213.76C318.666 213.307 318.473 212.773 318.419 212.16H320.579C320.633 212.52 320.826 212.813 321.159 213.04C321.493 213.253 321.933 213.36 322.479 213.36H323.339C323.993 213.36 324.486 213.227 324.819 212.96C325.153 212.693 325.319 212.34 325.319 211.9C325.319 211.473 325.166 211.14 324.859 210.9C324.566 210.647 324.126 210.48 323.539 210.4L322.119 210.18C320.946 209.993 320.079 209.66 319.519 209.18C318.973 208.687 318.699 207.96 318.699 207C318.699 205.987 319.026 205.207 319.679 204.66C320.346 204.1 321.326 203.82 322.619 203.82H323.379C324.526 203.82 325.439 204.087 326.119 204.62C326.813 205.14 327.206 205.84 327.299 206.72H325.139C325.086 206.4 324.906 206.14 324.599 205.94C324.306 205.74 323.899 205.64 323.379 205.64H322.619C321.993 205.64 321.533 205.76 321.239 206C320.959 206.227 320.819 206.567 320.819 207.02C320.819 207.42 320.946 207.72 321.199 207.92C321.453 208.12 321.846 208.26 322.379 208.34L323.839 208.58C325.079 208.753 325.986 209.1 326.559 209.62C327.146 210.127 327.439 210.867 327.439 211.84C327.439 212.893 327.093 213.713 326.399 214.3C325.719 214.887 324.699 215.18 323.339 215.18H322.479ZM336.052 215C335.052 215 334.272 214.727 333.712 214.18C333.152 213.633 332.872 212.873 332.872 211.9V205.96H329.832V204H332.872V200.9H335.032V204H339.332V205.96H335.032V211.9C335.032 212.66 335.398 213.04 336.132 213.04H339.132V215H336.052ZM342.884 215V204H344.964V206.1H345.484L344.824 207.4C344.824 206.213 345.084 205.32 345.604 204.72C346.124 204.107 346.897 203.8 347.924 203.8C349.097 203.8 350.024 204.167 350.704 204.9C351.397 205.62 351.744 206.613 351.744 207.88V208.62H349.524V208.06C349.524 207.273 349.324 206.673 348.924 206.26C348.537 205.833 347.99 205.62 347.284 205.62C346.577 205.62 346.024 205.833 345.624 206.26C345.237 206.687 345.044 207.287 345.044 208.06V215H342.884ZM358.816 215.2C357.496 215.2 356.443 214.82 355.656 214.06C354.869 213.287 354.476 212.24 354.476 210.92V204H356.636V210.92C356.636 211.68 356.829 212.273 357.216 212.7C357.603 213.113 358.136 213.32 358.816 213.32C359.509 213.32 360.049 213.113 360.436 212.7C360.836 212.273 361.036 211.68 361.036 210.92V204H363.196V210.92C363.196 212.24 362.796 213.287 361.996 214.06C361.209 214.82 360.149 215.2 358.816 215.2ZM368.268 218.6L369.848 214.36L365.748 204H368.128L370.428 210.2C370.521 210.467 370.615 210.787 370.708 211.16C370.801 211.533 370.881 211.84 370.948 212.08C371.001 211.84 371.075 211.533 371.168 211.16C371.261 210.787 371.355 210.467 371.448 210.2L373.608 204H375.908L370.548 218.6H368.268ZM382.82 215.2C381.927 215.2 381.14 215.027 380.46 214.68C379.794 214.32 379.28 213.82 378.92 213.18C378.56 212.54 378.38 211.793 378.38 210.94V208.06C378.38 207.193 378.56 206.447 378.92 205.82C379.28 205.18 379.794 204.687 380.46 204.34C381.14 203.98 381.927 203.8 382.82 203.8C383.727 203.8 384.514 203.98 385.18 204.34C385.847 204.687 386.36 205.18 386.72 205.82C387.08 206.447 387.26 207.193 387.26 208.06V210.02H380.46V210.94C380.46 211.753 380.66 212.373 381.06 212.8C381.474 213.227 382.067 213.44 382.84 213.44C383.467 213.44 383.974 213.333 384.36 213.12C384.747 212.893 384.987 212.567 385.08 212.14H387.22C387.06 213.073 386.58 213.82 385.78 214.38C384.98 214.927 383.994 215.2 382.82 215.2ZM385.18 208.72V208.04C385.18 207.24 384.98 206.62 384.58 206.18C384.18 205.74 383.594 205.52 382.82 205.52C382.06 205.52 381.474 205.74 381.06 206.18C380.66 206.62 380.46 207.247 380.46 208.06V208.56L385.34 208.54L385.18 208.72ZM390.493 215V204H392.633V206.1H393.153L392.633 206.6C392.633 205.72 392.893 205.033 393.413 204.54C393.933 204.047 394.653 203.8 395.573 203.8C396.666 203.8 397.539 204.153 398.193 204.86C398.846 205.553 399.173 206.493 399.173 207.68V215H397.013V207.92C397.013 207.2 396.819 206.647 396.433 206.26C396.046 205.873 395.519 205.68 394.853 205.68C394.173 205.68 393.633 205.887 393.233 206.3C392.846 206.7 392.653 207.287 392.653 208.06V215H390.493ZM406.025 215.2C404.918 215.2 404.031 214.827 403.365 214.08C402.698 213.333 402.365 212.327 402.365 211.06V207.96C402.365 206.68 402.698 205.667 403.365 204.92C404.031 204.173 404.918 203.8 406.025 203.8C406.931 203.8 407.651 204.053 408.185 204.56C408.718 205.053 408.985 205.733 408.985 206.6L408.525 206.1H409.025L408.965 203.54V200.4H411.125V215H408.985V212.9H408.525L408.985 212.4C408.985 213.267 408.718 213.953 408.185 214.46C407.651 214.953 406.931 215.2 406.025 215.2ZM406.765 213.32C407.445 213.32 407.978 213.113 408.365 212.7C408.765 212.273 408.965 211.687 408.965 210.94V208.06C408.965 207.313 408.765 206.733 408.365 206.32C407.978 205.893 407.445 205.68 406.765 205.68C406.058 205.68 405.505 205.887 405.105 206.3C404.705 206.7 404.505 207.287 404.505 208.06V210.94C404.505 211.713 404.705 212.307 405.105 212.72C405.505 213.12 406.058 213.32 406.765 213.32ZM418.797 215.18C417.89 215.18 417.104 215.007 416.437 214.66C415.77 214.313 415.257 213.82 414.897 213.18C414.537 212.54 414.357 211.787 414.357 210.92V208.08C414.357 207.2 414.537 206.447 414.897 205.82C415.257 205.18 415.77 204.687 416.437 204.34C417.104 203.993 417.89 203.82 418.797 203.82C419.704 203.82 420.49 203.993 421.157 204.34C421.824 204.687 422.337 205.18 422.697 205.82C423.057 206.447 423.237 207.2 423.237 208.08V210.92C423.237 211.787 423.057 212.54 422.697 213.18C422.337 213.82 421.824 214.313 421.157 214.66C420.49 215.007 419.704 215.18 418.797 215.18ZM418.797 213.28C419.53 213.28 420.097 213.08 420.497 212.68C420.897 212.267 421.097 211.68 421.097 210.92V208.08C421.097 207.307 420.897 206.72 420.497 206.32C420.097 205.92 419.53 205.72 418.797 205.72C418.077 205.72 417.51 205.92 417.097 206.32C416.697 206.72 416.497 207.307 416.497 208.08V210.92C416.497 211.68 416.697 212.267 417.097 212.68C417.51 213.08 418.077 213.28 418.797 213.28ZM438.401 215V213.04H442.261V205.96H438.901V204H444.361V213.04H447.901V215H438.401ZM443.101 202.1C442.635 202.1 442.261 201.98 441.981 201.74C441.701 201.487 441.561 201.153 441.561 200.74C441.561 200.313 441.701 199.98 441.981 199.74C442.261 199.487 442.635 199.36 443.101 199.36C443.568 199.36 443.941 199.487 444.221 199.74C444.501 199.98 444.641 200.313 444.641 200.74C444.641 201.153 444.501 201.487 444.221 201.74C443.941 201.98 443.568 202.1 443.101 202.1ZM453.993 215.2C452.887 215.2 452 214.827 451.333 214.08C450.667 213.333 450.333 212.327 450.333 211.06V207.96C450.333 206.68 450.667 205.667 451.333 204.92C452 204.173 452.887 203.8 453.993 203.8C454.9 203.8 455.62 204.053 456.153 204.56C456.687 205.053 456.953 205.733 456.953 206.6L456.493 206.1H456.993L456.933 203.54V200.4H459.093V215H456.953V212.9H456.493L456.953 212.4C456.953 213.267 456.687 213.953 456.153 214.46C455.62 214.953 454.9 215.2 453.993 215.2ZM454.733 213.32C455.413 213.32 455.947 213.113 456.333 212.7C456.733 212.273 456.933 211.687 456.933 210.94V208.06C456.933 207.313 456.733 206.733 456.333 206.32C455.947 205.893 455.413 205.68 454.733 205.68C454.027 205.68 453.473 205.887 453.073 206.3C452.673 206.7 452.473 207.287 452.473 208.06V210.94C452.473 211.713 452.673 212.307 453.073 212.72C453.473 213.12 454.027 213.32 454.733 213.32ZM466.766 215.2C465.872 215.2 465.086 215.027 464.406 214.68C463.739 214.32 463.226 213.82 462.866 213.18C462.506 212.54 462.326 211.793 462.326 210.94V208.06C462.326 207.193 462.506 206.447 462.866 205.82C463.226 205.18 463.739 204.687 464.406 204.34C465.086 203.98 465.872 203.8 466.766 203.8C467.672 203.8 468.459 203.98 469.126 204.34C469.792 204.687 470.306 205.18 470.666 205.82C471.026 206.447 471.206 207.193 471.206 208.06V210.02H464.406V210.94C464.406 211.753 464.606 212.373 465.006 212.8C465.419 213.227 466.012 213.44 466.786 213.44C467.412 213.44 467.919 213.333 468.306 213.12C468.692 212.893 468.932 212.567 469.026 212.14H471.166C471.006 213.073 470.526 213.82 469.726 214.38C468.926 214.927 467.939 215.2 466.766 215.2ZM469.126 208.72V208.04C469.126 207.24 468.926 206.62 468.526 206.18C468.126 205.74 467.539 205.52 466.766 205.52C466.006 205.52 465.419 205.74 465.006 206.18C464.606 206.62 464.406 207.247 464.406 208.06V208.56L469.286 208.54L469.126 208.72ZM477.658 215.2C476.511 215.2 475.604 214.907 474.938 214.32C474.284 213.72 473.958 212.907 473.958 211.88C473.958 210.84 474.304 210.027 474.998 209.44C475.704 208.84 476.671 208.54 477.898 208.54H480.958V207.52C480.958 206.92 480.771 206.453 480.398 206.12C480.024 205.787 479.498 205.62 478.818 205.62C478.218 205.62 477.718 205.753 477.318 206.02C476.918 206.273 476.684 206.613 476.618 207.04H474.498C474.618 206.053 475.071 205.267 475.858 204.68C476.658 204.093 477.664 203.8 478.878 203.8C480.184 203.8 481.218 204.133 481.978 204.8C482.738 205.453 483.118 206.347 483.118 207.48V215H481.018V212.98H480.658L481.018 212.58C481.018 213.38 480.711 214.02 480.098 214.5C479.484 214.967 478.671 215.2 477.658 215.2ZM478.298 213.54C479.071 213.54 479.704 213.347 480.198 212.96C480.704 212.56 480.958 212.053 480.958 211.44V210H477.938C477.378 210 476.931 210.153 476.598 210.46C476.278 210.767 476.118 211.187 476.118 211.72C476.118 212.28 476.311 212.727 476.698 213.06C477.084 213.38 477.618 213.54 478.298 213.54ZM490.37 215.18C489.583 215.18 488.89 215.053 488.29 214.8C487.703 214.547 487.237 214.2 486.89 213.76C486.557 213.307 486.363 212.773 486.31 212.16H488.47C488.523 212.52 488.717 212.813 489.05 213.04C489.383 213.253 489.823 213.36 490.37 213.36H491.23C491.883 213.36 492.377 213.227 492.71 212.96C493.043 212.693 493.21 212.34 493.21 211.9C493.21 211.473 493.057 211.14 492.75 210.9C492.457 210.647 492.017 210.48 491.43 210.4L490.01 210.18C488.837 209.993 487.97 209.66 487.41 209.18C486.863 208.687 486.59 207.96 486.59 207C486.59 205.987 486.917 205.207 487.57 204.66C488.237 204.1 489.217 203.82 490.51 203.82H491.27C492.417 203.82 493.33 204.087 494.01 204.62C494.703 205.14 495.097 205.84 495.19 206.72H493.03C492.977 206.4 492.797 206.14 492.49 205.94C492.197 205.74 491.79 205.64 491.27 205.64H490.51C489.883 205.64 489.423 205.76 489.13 206C488.85 206.227 488.71 206.567 488.71 207.02C488.71 207.42 488.837 207.72 489.09 207.92C489.343 208.12 489.737 208.26 490.27 208.34L491.73 208.58C492.97 208.753 493.877 209.1 494.45 209.62C495.037 210.127 495.33 210.867 495.33 211.84C495.33 212.893 494.983 213.713 494.29 214.3C493.61 214.887 492.59 215.18 491.23 215.18H490.37ZM107 239.2C106.107 239.2 105.32 239.027 104.64 238.68C103.973 238.32 103.46 237.82 103.1 237.18C102.74 236.54 102.56 235.793 102.56 234.94V232.06C102.56 231.193 102.74 230.447 103.1 229.82C103.46 229.18 103.973 228.687 104.64 228.34C105.32 227.98 106.107 227.8 107 227.8C107.907 227.8 108.693 227.98 109.36 228.34C110.027 228.687 110.54 229.18 110.9 229.82C111.26 230.447 111.44 231.193 111.44 232.06V234.02H104.64V234.94C104.64 235.753 104.84 236.373 105.24 236.8C105.653 237.227 106.247 237.44 107.02 237.44C107.647 237.44 108.153 237.333 108.54 237.12C108.927 236.893 109.167 236.567 109.26 236.14H111.4C111.24 237.073 110.76 237.82 109.96 238.38C109.16 238.927 108.173 239.2 107 239.2ZM109.36 232.72V232.04C109.36 231.24 109.16 230.62 108.76 230.18C108.36 229.74 107.773 229.52 107 229.52C106.24 229.52 105.653 229.74 105.24 230.18C104.84 230.62 104.64 231.247 104.64 232.06V232.56L109.52 232.54L109.36 232.72ZM114.672 239V228H116.812V230.1H117.332L116.812 230.6C116.812 229.72 117.072 229.033 117.592 228.54C118.112 228.047 118.832 227.8 119.752 227.8C120.846 227.8 121.719 228.153 122.372 228.86C123.026 229.553 123.352 230.493 123.352 231.68V239H121.192V231.92C121.192 231.2 120.999 230.647 120.612 230.26C120.226 229.873 119.699 229.68 119.032 229.68C118.352 229.68 117.812 229.887 117.412 230.3C117.026 230.7 116.832 231.287 116.832 232.06V239H114.672ZM138.657 242.6V228H140.797V230.1H141.257L140.797 230.6C140.797 229.733 141.063 229.053 141.597 228.56C142.143 228.053 142.87 227.8 143.777 227.8C144.883 227.8 145.763 228.173 146.417 228.92C147.083 229.653 147.417 230.66 147.417 231.94V235.04C147.417 235.893 147.263 236.633 146.957 237.26C146.663 237.873 146.243 238.353 145.697 238.7C145.163 239.033 144.523 239.2 143.777 239.2C142.883 239.2 142.163 238.953 141.617 238.46C141.07 237.953 140.797 237.267 140.797 236.4L141.257 236.9H140.757L140.817 239.46V242.6H138.657ZM143.037 237.32C143.743 237.32 144.29 237.12 144.677 236.72C145.077 236.307 145.277 235.713 145.277 234.94V232.06C145.277 231.287 145.077 230.7 144.677 230.3C144.29 229.887 143.743 229.68 143.037 229.68C142.357 229.68 141.817 229.893 141.417 230.32C141.017 230.733 140.817 231.313 140.817 232.06V234.94C140.817 235.687 141.017 236.273 141.417 236.7C141.817 237.113 142.357 237.32 143.037 237.32ZM153.869 239.2C152.722 239.2 151.815 238.907 151.149 238.32C150.495 237.72 150.169 236.907 150.169 235.88C150.169 234.84 150.515 234.027 151.209 233.44C151.915 232.84 152.882 232.54 154.109 232.54H157.169V231.52C157.169 230.92 156.982 230.453 156.609 230.12C156.235 229.787 155.709 229.62 155.029 229.62C154.429 229.62 153.929 229.753 153.529 230.02C153.129 230.273 152.895 230.613 152.829 231.04H150.709C150.829 230.053 151.282 229.267 152.069 228.68C152.869 228.093 153.875 227.8 155.089 227.8C156.395 227.8 157.429 228.133 158.189 228.8C158.949 229.453 159.329 230.347 159.329 231.48V239H157.229V236.98H156.869L157.229 236.58C157.229 237.38 156.922 238.02 156.309 238.5C155.695 238.967 154.882 239.2 153.869 239.2ZM154.509 237.54C155.282 237.54 155.915 237.347 156.409 236.96C156.915 236.56 157.169 236.053 157.169 235.44V234H154.149C153.589 234 153.142 234.153 152.809 234.46C152.489 234.767 152.329 235.187 152.329 235.72C152.329 236.28 152.522 236.727 152.909 237.06C153.295 237.38 153.829 237.54 154.509 237.54ZM153.729 226.1L155.849 223.3H158.169L155.909 226.1H153.729ZM164.081 242.6V240.74H167.461C168.021 240.74 168.434 240.607 168.701 240.34C168.981 240.073 169.121 239.68 169.121 239.16V238.06L169.161 236.02H168.701L169.141 235.62C169.141 236.46 168.874 237.12 168.341 237.6C167.821 238.08 167.114 238.32 166.221 238.32C165.088 238.32 164.194 237.947 163.541 237.2C162.888 236.453 162.561 235.447 162.561 234.18V231.94C162.561 230.673 162.888 229.667 163.541 228.92C164.194 228.173 165.088 227.8 166.221 227.8C167.114 227.8 167.821 228.047 168.341 228.54C168.874 229.02 169.141 229.68 169.141 230.52L168.701 230.1H169.141L169.121 228H171.261V239.2C171.261 240.253 170.928 241.08 170.261 241.68C169.594 242.293 168.668 242.6 167.481 242.6H164.081ZM166.921 236.46C167.601 236.46 168.134 236.253 168.521 235.84C168.921 235.413 169.121 234.827 169.121 234.08V232.06C169.121 231.313 168.921 230.733 168.521 230.32C168.134 229.893 167.601 229.68 166.921 229.68C166.214 229.68 165.668 229.887 165.281 230.3C164.908 230.7 164.721 231.287 164.721 232.06V234.08C164.721 234.84 164.908 235.427 165.281 235.84C165.668 236.253 166.214 236.46 166.921 236.46ZM174.573 239V237.04H178.433V229.96H175.073V228H180.533V237.04H184.073V239H174.573ZM179.273 226.1C178.806 226.1 178.433 225.98 178.153 225.74C177.873 225.487 177.733 225.153 177.733 224.74C177.733 224.313 177.873 223.98 178.153 223.74C178.433 223.487 178.806 223.36 179.273 223.36C179.74 223.36 180.113 223.487 180.393 223.74C180.673 223.98 180.813 224.313 180.813 224.74C180.813 225.153 180.673 225.487 180.393 225.74C180.113 225.98 179.74 226.1 179.273 226.1ZM186.625 239V228H188.765V230.1H189.285L188.765 230.6C188.765 229.72 189.025 229.033 189.545 228.54C190.065 228.047 190.785 227.8 191.705 227.8C192.799 227.8 193.672 228.153 194.325 228.86C194.979 229.553 195.305 230.493 195.305 231.68V239H193.145V231.92C193.145 231.2 192.952 230.647 192.565 230.26C192.179 229.873 191.652 229.68 190.985 229.68C190.305 229.68 189.765 229.887 189.365 230.3C188.979 230.7 188.785 231.287 188.785 232.06V239H186.625ZM201.838 239.2C200.691 239.2 199.784 238.907 199.118 238.32C198.464 237.72 198.138 236.907 198.138 235.88C198.138 234.84 198.484 234.027 199.178 233.44C199.884 232.84 200.851 232.54 202.077 232.54H205.138V231.52C205.138 230.92 204.951 230.453 204.578 230.12C204.204 229.787 203.678 229.62 202.998 229.62C202.398 229.62 201.898 229.753 201.498 230.02C201.098 230.273 200.864 230.613 200.798 231.04H198.678C198.798 230.053 199.251 229.267 200.038 228.68C200.838 228.093 201.844 227.8 203.058 227.8C204.364 227.8 205.398 228.133 206.158 228.8C206.918 229.453 207.298 230.347 207.298 231.48V239H205.198V236.98H204.838L205.198 236.58C205.198 237.38 204.891 238.02 204.278 238.5C203.664 238.967 202.851 239.2 201.838 239.2ZM202.478 237.54C203.251 237.54 203.884 237.347 204.378 236.96C204.884 236.56 205.138 236.053 205.138 235.44V234H202.118C201.558 234 201.111 234.153 200.778 234.46C200.458 234.767 200.298 235.187 200.298 235.72C200.298 236.28 200.491 236.727 200.878 237.06C201.264 237.38 201.798 237.54 202.478 237.54ZM214.55 239.18C213.763 239.18 213.07 239.053 212.47 238.8C211.883 238.547 211.416 238.2 211.07 237.76C210.736 237.307 210.543 236.773 210.49 236.16H212.65C212.703 236.52 212.896 236.813 213.23 237.04C213.563 237.253 214.003 237.36 214.55 237.36H215.41C216.063 237.36 216.556 237.227 216.89 236.96C217.223 236.693 217.39 236.34 217.39 235.9C217.39 235.473 217.236 235.14 216.93 234.9C216.636 234.647 216.196 234.48 215.61 234.4L214.19 234.18C213.016 233.993 212.15 233.66 211.59 233.18C211.043 232.687 210.77 231.96 210.77 231C210.77 229.987 211.096 229.207 211.75 228.66C212.416 228.1 213.396 227.82 214.69 227.82H215.45C216.596 227.82 217.51 228.087 218.19 228.62C218.883 229.14 219.276 229.84 219.37 230.72H217.21C217.156 230.4 216.976 230.14 216.67 229.94C216.376 229.74 215.97 229.64 215.45 229.64H214.69C214.063 229.64 213.603 229.76 213.31 230C213.03 230.227 212.89 230.567 212.89 231.02C212.89 231.42 213.016 231.72 213.27 231.92C213.523 232.12 213.916 232.26 214.45 232.34L215.91 232.58C217.15 232.753 218.056 233.1 218.63 233.62C219.216 234.127 219.51 234.867 219.51 235.84C219.51 236.893 219.163 237.713 218.47 238.3C217.79 238.887 216.77 239.18 215.41 239.18H214.55ZM235.174 239L233.474 228H235.294L236.314 235.26C236.367 235.593 236.414 235.967 236.454 236.38C236.507 236.78 236.547 237.113 236.574 237.38C236.601 237.113 236.641 236.78 236.694 236.38C236.761 235.98 236.821 235.607 236.874 235.26L238.014 228H239.834L240.954 235.26C241.007 235.607 241.061 235.987 241.114 236.4C241.181 236.8 241.227 237.133 241.254 237.4C241.281 237.12 241.321 236.78 241.374 236.38C241.441 235.967 241.501 235.593 241.554 235.26L242.594 228H244.354L242.594 239H240.314L239.234 231.82C239.181 231.447 239.121 231.053 239.054 230.64C238.987 230.213 238.941 229.873 238.914 229.62C238.874 229.873 238.821 230.213 238.754 230.64C238.701 231.053 238.647 231.447 238.594 231.82L237.474 239H235.174ZM250.906 239.2C250.013 239.2 249.226 239.027 248.546 238.68C247.88 238.32 247.366 237.82 247.006 237.18C246.646 236.54 246.466 235.793 246.466 234.94V232.06C246.466 231.193 246.646 230.447 247.006 229.82C247.366 229.18 247.88 228.687 248.546 228.34C249.226 227.98 250.013 227.8 250.906 227.8C251.813 227.8 252.6 227.98 253.266 228.34C253.933 228.687 254.446 229.18 254.806 229.82C255.166 230.447 255.346 231.193 255.346 232.06V234.02H248.546V234.94C248.546 235.753 248.746 236.373 249.146 236.8C249.56 237.227 250.153 237.44 250.926 237.44C251.553 237.44 252.06 237.333 252.446 237.12C252.833 236.893 253.073 236.567 253.166 236.14H255.306C255.146 237.073 254.666 237.82 253.866 238.38C253.066 238.927 252.08 239.2 250.906 239.2ZM253.266 232.72V232.04C253.266 231.24 253.066 230.62 252.666 230.18C252.266 229.74 251.68 229.52 250.906 229.52C250.146 229.52 249.56 229.74 249.146 230.18C248.746 230.62 248.546 231.247 248.546 232.06V232.56L253.426 232.54L253.266 232.72ZM263.678 239.2C262.772 239.2 262.052 238.953 261.518 238.46C260.985 237.953 260.718 237.267 260.718 236.4L261.178 236.9H260.718V239H258.578V224.4H260.738V227.54L260.678 230.1H261.178L260.718 230.6C260.718 229.733 260.985 229.053 261.518 228.56C262.065 228.053 262.785 227.8 263.678 227.8C264.785 227.8 265.672 228.173 266.338 228.92C267.005 229.667 267.338 230.68 267.338 231.96V235.06C267.338 236.327 267.005 237.333 266.338 238.08C265.672 238.827 264.785 239.2 263.678 239.2ZM262.938 237.32C263.645 237.32 264.198 237.12 264.598 236.72C264.998 236.307 265.198 235.713 265.198 234.94V232.06C265.198 231.287 264.998 230.7 264.598 230.3C264.198 229.887 263.645 229.68 262.938 229.68C262.258 229.68 261.718 229.893 261.318 230.32C260.932 230.733 260.738 231.313 260.738 232.06V234.94C260.738 235.687 260.932 236.273 261.318 236.7C261.718 237.113 262.258 237.32 262.938 237.32ZM273.951 230.4L273.691 227.46V224.4H275.931V227.46L275.711 230.4H273.951Z" fill="#D8956C"/>
<path d="M284.143 242.2L285.743 235.98H288.623L286.023 242.2H284.143ZM286.683 230.98C286.216 230.98 285.836 230.833 285.543 230.54C285.249 230.233 285.103 229.847 285.103 229.38C285.103 228.927 285.249 228.553 285.543 228.26C285.849 227.953 286.229 227.8 286.683 227.8H287.083C287.536 227.8 287.909 227.953 288.203 228.26C288.509 228.553 288.663 228.927 288.663 229.38C288.663 229.847 288.516 230.233 288.223 230.54C287.929 230.833 287.549 230.98 287.083 230.98H286.683Z" fill="#AD8FE8"/>
<path d="M45.0239 266.2C44.0639 266.2 43.2239 266 42.5039 265.6C41.7839 265.2 41.2239 264.64 40.8239 263.92C40.4239 263.187 40.2239 262.347 40.2239 261.4C40.2239 260.68 40.3306 259.96 40.5439 259.24C40.7706 258.507 41.0906 257.807 41.5039 257.14L45.0639 251.4H47.4639L43.2239 258.12L43.3239 258.18C43.5906 257.793 43.9439 257.5 44.3839 257.3C44.8372 257.087 45.3372 256.98 45.8839 256.98C46.6706 256.98 47.3572 257.167 47.9439 257.54C48.5306 257.913 48.9839 258.44 49.3039 259.12C49.6239 259.787 49.7839 260.58 49.7839 261.5C49.7839 262.433 49.5839 263.253 49.1839 263.96C48.7839 264.667 48.2306 265.22 47.5239 265.62C46.8172 266.007 45.9839 266.2 45.0239 266.2ZM45.0039 264.34C45.8039 264.34 46.4439 264.08 46.9239 263.56C47.4039 263.04 47.6439 262.353 47.6439 261.5C47.6439 260.647 47.4039 259.96 46.9239 259.44C46.4439 258.92 45.8039 258.66 45.0039 258.66C44.2039 258.66 43.5639 258.92 43.0839 259.44C42.6039 259.96 42.3639 260.647 42.3639 261.5C42.3639 262.353 42.6039 263.04 43.0839 263.56C43.5639 264.08 44.2039 264.34 45.0039 264.34Z" fill="white"/>
<path d="M42.4039 310L47.6439 297.38H42.5439V299.52H40.4039V295.4H49.7839V297.48L44.7239 310H42.4039Z" fill="white"/>
<path d="M107 310.2C106.107 310.2 105.32 310.027 104.64 309.68C103.973 309.32 103.46 308.82 103.1 308.18C102.74 307.54 102.56 306.793 102.56 305.94V303.06C102.56 302.193 102.74 301.447 103.1 300.82C103.46 300.18 103.973 299.687 104.64 299.34C105.32 298.98 106.107 298.8 107 298.8C107.907 298.8 108.693 298.98 109.36 299.34C110.027 299.687 110.54 300.18 110.9 300.82C111.26 301.447 111.44 302.193 111.44 303.06V305.02H104.64V305.94C104.64 306.753 104.84 307.373 105.24 307.8C105.653 308.227 106.247 308.44 107.02 308.44C107.647 308.44 108.153 308.333 108.54 308.12C108.927 307.893 109.167 307.567 109.26 307.14H111.4C111.24 308.073 110.76 308.82 109.96 309.38C109.16 309.927 108.173 310.2 107 310.2ZM109.36 303.72V303.04C109.36 302.24 109.16 301.62 108.76 301.18C108.36 300.74 107.773 300.52 107 300.52C106.24 300.52 105.653 300.74 105.24 301.18C104.84 301.62 104.64 302.247 104.64 303.06V303.56L109.52 303.54L109.36 303.72ZM113.852 310L117.712 304.32L114.092 299H116.572L118.512 302.04C118.606 302.2 118.699 302.373 118.792 302.56C118.886 302.733 118.959 302.88 119.012 303C119.052 302.88 119.119 302.733 119.212 302.56C119.306 302.373 119.399 302.2 119.492 302.04L121.432 299H123.912L120.292 304.34L124.132 310H121.652L119.512 306.7C119.419 306.54 119.326 306.36 119.232 306.16C119.139 305.96 119.066 305.8 119.012 305.68C118.959 305.8 118.879 305.96 118.772 306.16C118.679 306.36 118.579 306.54 118.472 306.7L116.312 310H113.852ZM126.664 313.6V299H128.804V301.1H129.264L128.804 301.6C128.804 300.733 129.071 300.053 129.604 299.56C130.151 299.053 130.878 298.8 131.784 298.8C132.891 298.8 133.771 299.173 134.424 299.92C135.091 300.653 135.424 301.66 135.424 302.94V306.04C135.424 306.893 135.271 307.633 134.964 308.26C134.671 308.873 134.251 309.353 133.704 309.7C133.171 310.033 132.531 310.2 131.784 310.2C130.891 310.2 130.171 309.953 129.624 309.46C129.078 308.953 128.804 308.267 128.804 307.4L129.264 307.9H128.764L128.824 310.46V313.6H126.664ZM131.044 308.32C131.751 308.32 132.298 308.12 132.684 307.72C133.084 307.307 133.284 306.713 133.284 305.94V303.06C133.284 302.287 133.084 301.7 132.684 301.3C132.298 300.887 131.751 300.68 131.044 300.68C130.364 300.68 129.824 300.893 129.424 301.32C129.024 301.733 128.824 302.313 128.824 303.06V305.94C128.824 306.687 129.024 307.273 129.424 307.7C129.824 308.113 130.364 308.32 131.044 308.32ZM142.977 310.18C142.07 310.18 141.283 310.007 140.617 309.66C139.95 309.313 139.437 308.82 139.077 308.18C138.717 307.54 138.537 306.787 138.537 305.92V303.08C138.537 302.2 138.717 301.447 139.077 300.82C139.437 300.18 139.95 299.687 140.617 299.34C141.283 298.993 142.07 298.82 142.977 298.82C143.883 298.82 144.67 298.993 145.337 299.34C146.003 299.687 146.517 300.18 146.877 300.82C147.237 301.447 147.417 302.2 147.417 303.08V305.92C147.417 306.787 147.237 307.54 146.877 308.18C146.517 308.82 146.003 309.313 145.337 309.66C144.67 310.007 143.883 310.18 142.977 310.18ZM142.977 308.28C143.71 308.28 144.277 308.08 144.677 307.68C145.077 307.267 145.277 306.68 145.277 305.92V303.08C145.277 302.307 145.077 301.72 144.677 301.32C144.277 300.92 143.71 300.72 142.977 300.72C142.257 300.72 141.69 300.92 141.277 301.32C140.877 301.72 140.677 302.307 140.677 303.08V305.92C140.677 306.68 140.877 307.267 141.277 307.68C141.69 308.08 142.257 308.28 142.977 308.28ZM151.009 310V299H153.089V301.1H153.609L152.949 302.4C152.949 301.213 153.209 300.32 153.729 299.72C154.249 299.107 155.022 298.8 156.049 298.8C157.222 298.8 158.149 299.167 158.829 299.9C159.522 300.62 159.869 301.613 159.869 302.88V303.62H157.649V303.06C157.649 302.273 157.449 301.673 157.049 301.26C156.662 300.833 156.115 300.62 155.409 300.62C154.702 300.62 154.149 300.833 153.749 301.26C153.362 301.687 153.169 302.287 153.169 303.06V310H151.009ZM168.161 310C167.161 310 166.381 309.727 165.821 309.18C165.261 308.633 164.981 307.873 164.981 306.9V300.96H161.941V299H164.981V295.9H167.141V299H171.441V300.96H167.141V306.9C167.141 307.66 167.508 308.04 168.241 308.04H171.241V310H168.161ZM190.165 310.2C189.059 310.2 188.172 309.827 187.505 309.08C186.839 308.333 186.505 307.327 186.505 306.06V302.96C186.505 301.68 186.839 300.667 187.505 299.92C188.172 299.173 189.059 298.8 190.165 298.8C191.072 298.8 191.792 299.053 192.325 299.56C192.859 300.053 193.125 300.733 193.125 301.6L192.665 301.1H193.165L193.105 298.54V295.4H195.265V310H193.125V307.9H192.665L193.125 307.4C193.125 308.267 192.859 308.953 192.325 309.46C191.792 309.953 191.072 310.2 190.165 310.2ZM190.905 308.32C191.585 308.32 192.119 308.113 192.505 307.7C192.905 307.273 193.105 306.687 193.105 305.94V303.06C193.105 302.313 192.905 301.733 192.505 301.32C192.119 300.893 191.585 300.68 190.905 300.68C190.199 300.68 189.645 300.887 189.245 301.3C188.845 301.7 188.645 302.287 188.645 303.06V305.94C188.645 306.713 188.845 307.307 189.245 307.72C189.645 308.12 190.199 308.32 190.905 308.32ZM202.938 310.2C202.044 310.2 201.258 310.027 200.578 309.68C199.911 309.32 199.398 308.82 199.038 308.18C198.678 307.54 198.498 306.793 198.498 305.94V303.06C198.498 302.193 198.678 301.447 199.038 300.82C199.398 300.18 199.911 299.687 200.578 299.34C201.258 298.98 202.044 298.8 202.938 298.8C203.844 298.8 204.631 298.98 205.298 299.34C205.964 299.687 206.478 300.18 206.838 300.82C207.198 301.447 207.378 302.193 207.378 303.06V305.02H200.578V305.94C200.578 306.753 200.778 307.373 201.178 307.8C201.591 308.227 202.184 308.44 202.958 308.44C203.584 308.44 204.091 308.333 204.478 308.12C204.864 307.893 205.104 307.567 205.198 307.14H207.338C207.178 308.073 206.698 308.82 205.898 309.38C205.098 309.927 204.111 310.2 202.938 310.2ZM205.298 303.72V303.04C205.298 302.24 205.098 301.62 204.698 301.18C204.298 300.74 203.711 300.52 202.938 300.52C202.178 300.52 201.591 300.74 201.178 301.18C200.778 301.62 200.578 302.247 200.578 303.06V303.56L205.458 303.54L205.298 303.72ZM213.19 310V302.12H210.07V300.16H213.19V298.38C213.19 297.46 213.483 296.733 214.07 296.2C214.656 295.667 215.456 295.4 216.47 295.4H219.69V297.32H216.51C216.136 297.32 215.843 297.413 215.63 297.6C215.43 297.787 215.33 298.053 215.33 298.4V300.16H219.69V302.12H215.33V310H213.19ZM225.822 310.2C224.675 310.2 223.769 309.907 223.102 309.32C222.449 308.72 222.122 307.907 222.122 306.88C222.122 305.84 222.469 305.027 223.162 304.44C223.869 303.84 224.835 303.54 226.062 303.54H229.122V302.52C229.122 301.92 228.935 301.453 228.562 301.12C228.189 300.787 227.662 300.62 226.982 300.62C226.382 300.62 225.882 300.753 225.482 301.02C225.082 301.273 224.849 301.613 224.782 302.04H222.662C222.782 301.053 223.235 300.267 224.022 299.68C224.822 299.093 225.829 298.8 227.042 298.8C228.349 298.8 229.382 299.133 230.142 299.8C230.902 300.453 231.282 301.347 231.282 302.48V310H229.182V307.98H228.822L229.182 307.58C229.182 308.38 228.875 309.02 228.262 309.5C227.649 309.967 226.835 310.2 225.822 310.2ZM226.462 308.54C227.235 308.54 227.869 308.347 228.362 307.96C228.869 307.56 229.122 307.053 229.122 306.44V305H226.102C225.542 305 225.095 305.153 224.762 305.46C224.442 305.767 224.282 306.187 224.282 306.72C224.282 307.28 224.475 307.727 224.862 308.06C225.249 308.38 225.782 308.54 226.462 308.54ZM238.894 310.2C237.574 310.2 236.521 309.82 235.734 309.06C234.947 308.287 234.554 307.24 234.554 305.92V299H236.714V305.92C236.714 306.68 236.907 307.273 237.294 307.7C237.681 308.113 238.214 308.32 238.894 308.32C239.587 308.32 240.127 308.113 240.514 307.7C240.914 307.273 241.114 306.68 241.114 305.92V299H243.274V305.92C243.274 307.24 242.874 308.287 242.074 309.06C241.287 309.82 240.227 310.2 238.894 310.2ZM252.486 310C251.806 310 251.213 309.867 250.706 309.6C250.2 309.32 249.8 308.927 249.506 308.42C249.226 307.913 249.086 307.327 249.086 306.66V297.36H245.486V295.4H251.246V306.66C251.246 307.087 251.366 307.427 251.606 307.68C251.846 307.92 252.173 308.04 252.586 308.04H255.986V310H252.486ZM264.098 310C263.098 310 262.318 309.727 261.758 309.18C261.198 308.633 260.918 307.873 260.918 306.9V300.96H257.878V299H260.918V295.9H263.078V299H267.378V300.96H263.078V306.9C263.078 307.66 263.445 308.04 264.178 308.04H267.178V310H264.098Z" fill="#D87086"/>
<path d="M286.103 310.2C284.996 310.2 284.109 309.827 283.443 309.08C282.776 308.333 282.443 307.327 282.443 306.06V302.96C282.443 301.68 282.776 300.667 283.443 299.92C284.109 299.173 284.996 298.8 286.103 298.8C287.009 298.8 287.729 299.053 288.263 299.56C288.796 300.053 289.063 300.733 289.063 301.6L288.603 301.1H289.103L289.043 298.54V295.4H291.203V310H289.063V307.9H288.603L289.063 307.4C289.063 308.267 288.796 308.953 288.263 309.46C287.729 309.953 287.009 310.2 286.103 310.2ZM286.843 308.32C287.523 308.32 288.056 308.113 288.443 307.7C288.843 307.273 289.043 306.687 289.043 305.94V303.06C289.043 302.313 288.843 301.733 288.443 301.32C288.056 300.893 287.523 300.68 286.843 300.68C286.136 300.68 285.583 300.887 285.183 301.3C284.783 301.7 284.583 302.287 284.583 303.06V305.94C284.583 306.713 284.783 307.307 285.183 307.72C285.583 308.12 286.136 308.32 286.843 308.32ZM294.915 310V299H296.995V301.1H297.515L296.855 302.4C296.855 301.213 297.115 300.32 297.635 299.72C298.155 299.107 298.928 298.8 299.955 298.8C301.128 298.8 302.055 299.167 302.735 299.9C303.428 300.62 303.775 301.613 303.775 302.88V303.62H301.555V303.06C301.555 302.273 301.355 301.673 300.955 301.26C300.568 300.833 300.022 300.62 299.315 300.62C298.608 300.62 298.055 300.833 297.655 301.26C297.268 301.687 297.075 302.287 297.075 303.06V310H294.915ZM310.867 310.2C309.974 310.2 309.187 310.027 308.507 309.68C307.841 309.32 307.327 308.82 306.967 308.18C306.607 307.54 306.427 306.793 306.427 305.94V303.06C306.427 302.193 306.607 301.447 306.967 300.82C307.327 300.18 307.841 299.687 308.507 299.34C309.187 298.98 309.974 298.8 310.867 298.8C311.774 298.8 312.561 298.98 313.227 299.34C313.894 299.687 314.407 300.18 314.767 300.82C315.127 301.447 315.307 302.193 315.307 303.06V305.02H308.507V305.94C308.507 306.753 308.707 307.373 309.107 307.8C309.521 308.227 310.114 308.44 310.887 308.44C311.514 308.44 312.021 308.333 312.407 308.12C312.794 307.893 313.034 307.567 313.127 307.14H315.267C315.107 308.073 314.627 308.82 313.827 309.38C313.027 309.927 312.041 310.2 310.867 310.2ZM313.227 303.72V303.04C313.227 302.24 313.027 301.62 312.627 301.18C312.227 300.74 311.641 300.52 310.867 300.52C310.107 300.52 309.521 300.74 309.107 301.18C308.707 301.62 308.507 302.247 308.507 303.06V303.56L313.387 303.54L313.227 303.72ZM321.759 310.2C320.613 310.2 319.706 309.907 319.039 309.32C318.386 308.72 318.059 307.907 318.059 306.88C318.059 305.84 318.406 305.027 319.099 304.44C319.806 303.84 320.773 303.54 321.999 303.54H325.059V302.52C325.059 301.92 324.873 301.453 324.499 301.12C324.126 300.787 323.599 300.62 322.919 300.62C322.319 300.62 321.819 300.753 321.419 301.02C321.019 301.273 320.786 301.613 320.719 302.04H318.599C318.719 301.053 319.173 300.267 319.959 299.68C320.759 299.093 321.766 298.8 322.979 298.8C324.286 298.8 325.319 299.133 326.079 299.8C326.839 300.453 327.219 301.347 327.219 302.48V310H325.119V307.98H324.759L325.119 307.58C325.119 308.38 324.813 309.02 324.199 309.5C323.586 309.967 322.773 310.2 321.759 310.2ZM322.399 308.54C323.173 308.54 323.806 308.347 324.299 307.96C324.806 307.56 325.059 307.053 325.059 306.44V305H322.039C321.479 305 321.033 305.153 320.699 305.46C320.379 305.767 320.219 306.187 320.219 306.72C320.219 307.28 320.413 307.727 320.799 308.06C321.186 308.38 321.719 308.54 322.399 308.54ZM330.032 310V299H331.832V300.4H332.232L331.932 300.82C331.932 300.207 332.098 299.72 332.432 299.36C332.765 298.987 333.212 298.8 333.772 298.8C334.372 298.8 334.832 299.033 335.152 299.5C335.485 299.967 335.652 300.607 335.652 301.42L335.172 300.4H335.932L335.612 300.82C335.612 300.207 335.778 299.72 336.112 299.36C336.458 298.987 336.918 298.8 337.492 298.8C338.172 298.8 338.705 299.06 339.092 299.58C339.478 300.087 339.672 300.767 339.672 301.62V310H337.752V301.68C337.752 301.267 337.658 300.947 337.472 300.72C337.298 300.493 337.045 300.38 336.712 300.38C336.378 300.38 336.118 300.493 335.932 300.72C335.758 300.933 335.672 301.247 335.672 301.66V310H334.052V301.68C334.052 301.253 333.958 300.933 333.772 300.72C333.585 300.493 333.318 300.38 332.972 300.38C332.638 300.38 332.385 300.493 332.212 300.72C332.052 300.933 331.972 301.247 331.972 301.66V310H330.032ZM344.104 313.2L345.704 306.98H348.584L345.984 313.2H344.104ZM346.644 301.98C346.177 301.98 345.797 301.833 345.504 301.54C345.21 301.233 345.064 300.847 345.064 300.38C345.064 299.927 345.21 299.553 345.504 299.26C345.81 298.953 346.19 298.8 346.644 298.8H347.044C347.497 298.8 347.87 298.953 348.164 299.26C348.47 299.553 348.624 299.927 348.624 300.38C348.624 300.847 348.477 301.233 348.184 301.54C347.89 301.833 347.51 301.98 347.044 301.98H346.644Z" fill="white"/>
</svg>
