<svg width="471" height="446" viewBox="0 0 471 446" fill="none" xmlns="http://www.w3.org/2000/svg">
<path d="M176.798 19.6271L186.518 25.3055L191.433 23.6914L192.173 25.4218L192.826 26.258L195.556 27.4358L200.39 29.1081L203.069 30.5986L207.737 35.7098L209.74 36.815L210.771 37.0622L211.657 37.0403L212.637 36.6986L213.624 36.0079L214.72 34.8228L215.373 34.4811L218.219 33.7976L220.288 31.7255L220.643 31.5365L221.035 31.7037L221.616 32.2999L222.916 34.4375L222.886 35.1427L222.349 36.6768L221.892 37.3893L221.972 38.1309L223.351 39.0761L224.251 40.8502L224.73 42.1952L225.427 42.9078L226.814 42.8351L228.287 43.0459L229.209 43.4312L229.848 43.9911L230.748 45.2198L230.835 45.9542L231.293 46.3322H232.302L235.176 46.943L235.909 47.2338L236.911 48.2735L239.263 49.066L239.851 49.8003L240.192 50.811L239.822 51.6471L240.265 52.6795L240.439 53.6029L239.837 54.6062L239.858 55.3551L239.386 55.8132L237.339 56.4166L237.608 57.2673L238.617 57.7472L238.973 58.496L240.635 58.8886L241.826 59.6521L241.993 60.6772L242.631 61.7024L243.473 60.8808L244.127 60.5173L245.049 60.5318L246.413 61.0626L248.105 60.7645L249.092 60.779L248.119 88.9019L248.192 112.684L248.105 130.33L247.814 146.674L248.468 157.231L248.431 160.845L247.444 162.924L247.451 164.858L246.493 168.196L245.702 169.853L243.582 171.715L244.584 174.921L242.951 174.841L240.889 175.779L239.459 177.029L238.45 178.193L236.439 179.756L234.087 180.665L228.585 181.108L225.195 182.206L221.812 182.337L219.525 180.934L217.631 180.439L214.212 180.41L214.132 180.621L208.528 181.777L206.604 181.668L204.63 182.933L203.86 183.755L201.879 184.685L200.732 185.514L198.539 187.717L196.63 188.27L195.055 190.327L194.707 191.469L192.739 194.501L190.939 194.523L189.741 193.636L188.26 192.959L187.527 192.014L187.273 190.175L185.168 189.608L183.121 189.491L180.617 189.6L177.089 188.982L176 187.208L176.188 184.685L177.197 183.398L178.896 182.846L180.551 179.276L181.727 177.946L183.985 177.887L186.148 177.698L187.926 175.343L190.082 173.314L193.226 172.136L193.915 169.679L193.596 167.09L191.447 164.917L188.892 164.611L184.007 164.531L183.455 162.786L182.968 159.987L180.979 159.071L180.152 157.668L177.989 153.276L177.967 150.964L177.742 147.234L178.025 145.337L176.413 144.246L177.517 141.905L178.642 140.153L179.782 137.39L178.998 134.642L177.285 132.838L175.855 131.028L174.424 130.519L172.312 131.203L170.461 132.351L167.441 133.398L162.803 130.163L160.371 126.615L162.106 123.736L163.107 120.522L163.928 119.991L162.098 117.185L162.679 112.168L162.745 109.812L164.915 109.754L168.095 109.965L168.791 109.652L168.356 108.903L168.378 107.98L168.065 107.195L167.165 106.504L165.873 106.497L164.269 104.272L161.815 104.505L161.685 102.782L161.728 101.146L159.507 100.826L157.3 99.4589L154.367 97.4812L151.065 93.955L147.123 91.7956L141.49 91.7374L139.842 89.3018L137.613 87.1787L135.232 85.6083L132.263 81.9439L131.008 78.6575L130.819 76.3527L129.926 73.9389L129.469 72.3902L127.821 71.8086L126.006 70.8489L122.442 70.2309L120.663 69.1839L118.812 68.6895L117.026 69.0748L114.849 68.9658L113.426 68.624L110.784 64.996L108.149 63.3019L105.506 62.6621L102.784 62.4803L99.1255 62.8802L94.799 63.5855L92.164 63.3601L90.7557 62.0587L89.3547 57.9289L89.253 55.5732L86.9592 54.17L82.4077 52.396L80.0993 50.3166L78.916 48.1208L78.1538 46.1577L77.5586 44.2019L76.2229 42.5079L72.3828 36.1315L73.2249 34.721L75.0905 34.292L77.8126 33.0415L79.6928 31.3911L80.288 30.315L81.5656 26.3234L82.4585 25.3346L85.7977 25.2837L87.2277 24.1931L88.607 24.2004L90.8065 26.9123L93.0568 28.4973L94.7264 28.5337L95.2128 26.2871L95.5032 22.9935L96.2799 19.9616L98.0656 20.7832L103.561 23.7132L133.744 34.6047L144.089 38.9307L160.647 29.2171L176.37 19.5617L176.798 19.6271Z" fill="#CCCCCC" stroke="white" stroke-width="0.5"/>
<path d="M278.622 149.859L296.654 159.522L300.893 161.928L310.345 165.905L324.507 172.652L347.591 172.776L365.957 172.652L365.115 173.932L363.256 174.819L362.589 176.353L362.632 177.902L360.679 178.295L360.759 181.348L361.333 184.227L362.356 186.634L362.393 189.818L362.131 190.793L363.206 193.57L360.563 196.537L355.17 204.025L353.34 206.09L351.765 208.097L350.408 210.445L350.284 213.884L349.406 216.843L346.43 219.686L343.853 221.649L336.267 228.644L337.189 230.171L338.169 232.657L338.423 234.533L338.183 236.511L338.684 238.045L339.359 240.742L336.274 239.317L331.752 235.456L329.806 234.671L327.2 234.031L323.767 231.901L322.329 231.232L320.689 229.305L318.961 228.68L317.466 228.891L316.442 229.756L315.644 231.29L313.422 232.737L311.695 231.901L308.827 232.606L307.187 232.192L306.563 230.658L304.515 230.592L303.499 229.945L302.897 227.822L303.318 226.012L302.026 226.172L300.029 225.357L298.352 224.899L296.784 224.15L294.687 223.7L292.901 222.369L292.139 220.421L292.153 217.774L291.543 216.705L289.191 216.305L288.495 216.705L286.985 216.495L285.889 215.935L283.791 213.855L282.549 214.481L281.831 214.117L281.388 213.165L279.907 212.205L278.441 212.074L277.918 211.296L278.092 209.907L277.991 207.77L274.492 206.228L272.837 203.676L271.537 200.274L270.506 200.717L266.812 202.957L265.055 203.051L262.652 203.618L260.394 203.473L258.914 202.717L259.545 201.393L259.327 199.474L260.155 199.285L262.754 197.998L265.454 195.948L266.899 195.155L267.283 193.934L269.251 190.982L269.984 190.124L270.615 188.888L271.211 187.615L271.225 186.481L270.535 185.703L269.156 185.66L266.87 185.972L267.066 183.915L269.113 182.475L270.855 180.41L271.007 178.222L271.958 177.698L277.947 176.906L280.001 177.306L282.491 176.819L283.921 175.604L285.097 174.317L286.36 174.703L287.377 175.139L289.859 174.354L290.498 173.074L289.525 171.046L289.126 168.625L289.024 166.32L288.008 164.204L285.83 162.212L282.963 161.114L281.424 159.813L279.827 152.891L278.622 149.859Z" fill="#CCCCCC" stroke="white" stroke-width="0.5"/>
<path d="M5.54075 51.1599L5.98356 52.0978L5.27217 52.2214L4.8221 51.7343L4.17604 51.8288L3.951 51.5671L4.75677 51.3781L5.04713 51.1236L5.54075 51.1599ZM60.1222 7.87776L74.7784 13.2726L82.6763 13.2435L90.9735 17.5332L96.2727 19.9689L95.5032 23.0007L95.2129 26.2943L94.7265 28.5409L93.0569 28.5046L90.8066 26.9269L88.607 24.2076L87.2278 24.2004L85.7978 25.291L82.4586 25.3419L81.5657 26.3379L80.2953 30.3295L79.7001 31.3983L77.82 33.0487L75.0978 34.2993L73.2322 34.7283L72.3901 36.1388L76.2302 42.5151L77.5659 44.2019L78.1611 46.165L78.9233 48.1208L80.1066 50.3165L82.415 52.4032L86.9665 54.17L89.2604 55.5805L89.362 57.9362L90.763 62.0659L92.1785 63.3746L94.8136 63.6L99.14 62.8948L102.806 62.5021L105.521 62.6766L108.17 63.3237L110.805 65.0178L113.448 68.6458L114.878 68.9876L117.048 69.0966L118.834 68.7113L120.685 69.2057L122.464 70.2527L126.028 70.8707L127.85 71.8304L129.49 72.4193L129.948 73.9607L130.848 76.3745L131.037 78.6793L132.293 81.9657L135.269 85.6301L137.65 87.2078L139.871 89.3308L141.519 91.7665L147.152 91.8247L151.094 93.984L154.397 97.5103L157.329 99.4879L159.536 100.855L161.757 101.175L161.714 102.811L161.844 104.526L159.95 105.334L157.903 105.224L153.917 101.255L152.618 99.3571L149.809 97.2049L147.609 95.9617L145.511 95.6418L145.475 94.3403L145.664 93.6205L145.148 93.0461L144.488 93.4024L142.296 92.4136L141.954 93.8095L140.546 94.3112L139.69 93.5769L137.512 93.3442L137.236 94.1076L136.445 94.2167L134.565 94.1004L138.238 97.3213L140.793 99.3134L142.056 99.5752L141.94 98.3174L143.617 98.6082L145.294 100.499L147.66 101.691L149.969 102.134L151.732 102.629L153.729 104.047L154.012 106.853L157.199 107.355L160.364 108.693L162.774 109.849L162.708 112.204L162.128 117.221L163.957 120.028L163.137 120.551L162.135 123.772L160.4 126.644L158.091 124.732L154.934 123.808L152.458 124.964L150.201 128.054L149.453 131.268L149.25 133.078L146.833 139.527L147.595 144.551L144.771 145.257L141.751 148.027L142.281 150.782L140.524 153.938L138.688 153.989L135.675 152.178L128.373 149.27L125.157 147.511L122.485 147.583L122.957 152.68L121.585 152.433L121.302 152.047L121.368 151.691L120.257 150.39L118.725 149.212L118.892 148.638L119.596 148.776L120.075 149.234L121.099 149.437L121.484 149.219L121.651 148.87L121.302 148.034L120.431 148.376L117.905 147.481L117.172 146.893L116.243 146.725L114.145 147.605L113.295 148.688L112.265 148.936L111.88 148.543L111.241 148.441L110.733 148.114L109.738 148.23L108.265 147.445L106.501 147.169L106.08 147.387L104.86 147.053L104.033 146.624L102.973 146.384L101.884 145.664L100.737 144.559L100.461 143.112L99.6409 141.367L100.156 141.083L100.454 140.058L100.302 139.091L99.4159 137.637L98.3633 136.597L98.269 136.016L97.4051 135.688L96.6066 135.005L94.5305 133.856L93.1876 133.391L92.6141 132.802L93.4344 131.202L93.3763 130.555L91.2131 128.374L90.4436 128.142L89.8411 127.589L89.4346 126.557L88.353 125.582L84.433 125.48L83.8523 125.633L83.1046 126.331L82.1464 125.611L81.0866 125.662L81.9794 126.215L82.5529 127.029L83.032 127.16L83.6128 126.746L84.6726 127.015L86.4148 126.193L87.0608 126.171L88.3094 126.695L89.391 127.865L90.2113 129.196L91.968 130.308L92.3165 130.984L92.3092 131.501L91.8156 132.817L91.968 133.914L92.3818 134.402L93.9207 134.736L95.0677 135.39L98.0004 137.899L98.3706 139.644L98.0367 140.574L97.9568 142.501L98.327 143.89L97.935 144.653L98.1746 146.362L98.0076 146.711L97.5575 146.929L97.4559 147.569L98.4141 151.313L100.026 153.996L98.2762 152.404L97.4124 152.266L97.2527 152.04L96.3235 152.062L95.8444 151.48L93.173 152.098L92.331 152.993L92.8464 153.32L93.4271 152.52L94.1966 152.556L94.7047 153.203L94.0877 153.582L93.6304 154.185L93.7901 154.505L94.1748 154.476L95.3726 153.429L95.4379 153.044L95.1838 152.593L95.6048 152.469L96.1493 152.825L97.8842 152.876L98.6174 153.363L98.9005 154.04L98.7698 154.33L97.9641 154.483L98.8279 155.007L98.9876 155.457L98.3052 156.221L98.6755 157.413L99.0965 156.999L100.657 158.62L101.644 159.34L104.715 160.627L105.419 161.281L105.826 162.568L106.624 162.932L107.728 164.618L109.23 165.404L110.029 165.411L110.515 164.902L110.798 165.353L110.66 166.669L110.399 167.119L109.92 167.054L109.158 166.305L107.742 166.196L107.038 165.774L106.21 164.996L105.644 163.928L104.962 164.567L104.512 164.466L104.156 164.749L104.693 165.302L105.564 165.215L106.29 166.538L106.9 166.676L107.343 167.454L108.308 167.207L108.875 168.181L109.194 168.217L109.39 168.61L108.758 169.49L107.604 173.176L105.978 174.812L104.316 175.19L101.681 174.965L100.911 175.786L97.877 176.411L95.8517 177.051L93.0641 177.378L90.8646 179.494L90.8791 181.595L92.3673 182.73L95.3508 183.406L97.9931 183.755L101.238 184.882L104.439 190.625L107.459 191.047L106.472 193.17L105.31 195.133L104.621 197.416L105.136 201.095L103.517 204.665L101.477 206.439L99.67 208.875L99.0166 208.184L96.9478 206.592L94.4289 205.283L94.3998 204.738L94.7846 204.36L94.9515 203.72L94.1385 201.561L90.3783 198.63L89.1007 197.911L87.598 197.416L86.03 197.176L86.0083 196.471L84.8976 195.526L81.7399 193.599L80.397 193.359L78.1611 192.276L76.8472 191.876L76.3318 191.905L75.9398 192.705L74.7203 192.567L73.1233 191.905L72.4555 191.193L71.7513 190.829L70.3068 190.589L68.4775 190.865L68.0492 192.051L67.6572 192.37L67.0764 192.334L64.5212 190.865L64.2744 189.964L63.8316 189.673L62.4451 190.56L61.77 190.458L61.5087 190.844L61.1602 190.742L61.0441 189.549L59.6431 188.408L59.0624 188.343L57.8065 188.975L56.3329 188.961L54.5109 188.27L53.001 188.677L52.1734 188.088L50.6708 187.914L49.3932 186.808L48.1374 187.056L47.2735 186.852L45.0885 186.867L44.5804 186.539L44.4279 185.572L43.7238 184.954L42.7003 184.656L41.8001 184.714L41.2847 184.998L41.3138 185.449L41.0887 185.798L39.078 184.787L39.3683 184.176L39.7894 183.987L39.9853 183.377L39.6805 181.377L39.1143 180.185L38.127 178.825L38.2577 178.309L37.3721 176.564L34.6063 173.103L34.1998 172.202L33.1763 171.264L32.1818 170.711L29.5032 167.927L28.7409 166.829L28.2401 164.924L27.8626 164.277L26.1422 162.779L25.8881 162.168L25.5397 162.037L24.9081 161.005L22.8393 158.38L22.7885 156.933L21.9609 156.024L20.9664 151.8L20.0735 150.695L19.9864 149.699L18.4112 146.209L16.2189 143.228L16.3206 142.421L15.9794 141.003L16.0229 139.716L14.4114 136.161L14.2953 134.743L14.7236 133.333L13.9396 130.555L15.66 128.992L16.3061 127.996L15.7398 126.346L14.9776 125.081L13.8307 123.881L13.3879 123.103L12.7128 122.87L12.3934 122.449L12.0377 122.609L11.5586 122.121L11.2029 122.085L11.1448 121.634L11.6675 120.384L12.6039 119.715L13.083 119.686L13.5258 120.173L13.9178 119.504L14.4985 119.569L14.8252 119.09L15.0938 117.963L15.5801 117.679L16.7924 115.207L17.2134 115.113L17.5691 114.698L18.0265 113.571L18.4112 113.702L18.6943 114.349L20.2986 114.618L20.843 114.335L21.3657 113.76L22.1569 110.932L21.7867 109.063L22.6868 109.165L23.0353 109.841L23.8773 109.398L24.596 108.307L24.7339 107.217L24.2548 106.759L23.979 104.89L22.9191 104.207L23.0861 103.821L22.7667 103.559L22.1206 103.458L21.7722 103.101L21.7504 101.938L21.0172 101.16L21.5689 100.615L21.1552 99.8078L20.1607 99.1244L20.226 98.8336L22.3819 98.4628L22.8102 97.663L23.391 97.2486L23.3329 96.7323L23.7539 96.158L23.7249 95.9035L24.5669 95.2637L25.4961 95.5618L26.1712 95.4382L26.5197 96.2816L27.3835 97.0304L28.3199 97.0014L30.9405 94.7984L32.552 94.2022L33.8514 92.9589L33.9457 93.2497L34.5192 93.6423L35.1 93.6132L35.913 92.559L35.7823 92.2682L35.913 91.9483L35.3758 90.9158L35.4702 90.6904L36.951 90.5741L38.0181 90.1015L38.4101 89.7162L38.1633 88.5529L38.4246 88.1675L39.5135 88.2766L39.8402 87.8258L41.4154 88.1312L41.8074 87.8113L42.105 87.1715L42.272 86.0809L43.2374 86.2481L43.506 84.9321L44.0287 84.4522L44.8345 84.1396L45.0377 83.0126L44.8635 82.5037L44.3844 82.0166L41.655 81.0568L41.0089 81.3113L40.0362 82.1765L38.6206 82.4528L38.6061 84.0669L38.0907 84.285L37.7641 85.252L36.5736 85.5937L36.2832 86.0736L35.4774 85.7755L35.4194 85.4847L36.6461 84.7576L37.0091 83.6016L36.4647 83.2089L36.922 82.3437L37.2414 82.3801L37.539 81.9002L38.2432 81.9366L38.7658 81.1005L38.6714 80.8387L38.0617 80.577L37.4809 80.6061L38.0689 79.8717L38.7731 79.8136L39.2014 78.9483L38.8529 78.4612L38.9546 78.1704L39.9853 78.4394L41.5678 77.3924L41.8001 76.8471L40.7476 71.874L40.0362 69.9691L40.3846 68.9003L40.2031 67.4462L40.9 65.1632L40.9726 64.2616L40.0507 62.8657L38.4827 61.397L37.8439 60.4591L37.1833 58.845L35.2161 59.0195L34.6136 58.2706L33.6118 58.3288L33.1327 57.8417L32.5883 57.769L31.3615 57.9871L30.142 57.2018L29.0168 57.1946L28.1675 57.2745L27.231 57.7471L26.3817 58.9977L24.6541 57.9507L22.6651 57.3254L22.019 57.3545L21.7649 56.5111L21.3874 55.864L20.9011 55.5078L20.647 54.8898L20.7849 53.8937L22.8393 54.3299L22.9409 53.7483L22.0843 52.0615L20.2768 52.5632L19.217 52.4905L17.482 51.7343L13.7726 51.6471L12.7636 49.146L12.2845 48.7533L10.5786 48.2517L6.85466 46.6376L6.12148 46.0196L4.90195 45.5615L4.16152 45.5906L3.64612 45.976L1.3232 46.5722L0.582764 46.3104L1.91119 45.5106L3.74775 45.1398L4.97454 44.5073L5.4609 43.9983L7.5225 43.693L8.36456 43.2495L9.59135 43.0968L10.0124 42.8132L10.3027 42.2679L11.9506 41.9262L12.7055 40.4139L12.132 39.7014L9.94705 38.5235L11.4642 38.5017L11.8562 38.2763L15.7181 38.9889L16.2335 38.6035L17.2352 38.6762L18.0337 39.1997L18.5491 39.0761L19.442 40.0213L19.5001 40.4721L18.854 41.0174L19.1662 42.4715L19.5799 42.8641L20.4801 42.9659L21.3729 43.7802L22.5997 43.8529L23.1151 43.533L23.2458 43.0822L23.0861 42.5951L21.9972 41.4536L22.0988 41.0974L22.8102 41.1046L23.3692 40.1085L23.979 40.3703L24.2403 39.9486L25.5324 39.8613L26.0188 40.0286L26.3382 40.7702L27.0496 40.1958L28.3054 40.3703L28.7627 39.9559L29.6629 39.9341L30.4033 40.1667L30.8824 40.5884L31.2091 40.363L31.7898 40.4357L32.1745 40.9883L32.0076 41.599L32.6464 42.1225L33.3505 42.2243L33.6772 41.8753L33.6917 40.4866L34.5991 40.2031L34.9257 39.6287L34.737 39.1125L32.6609 38.0291L32.9803 37.353L34.1708 37.5856L34.4031 36.8804L34.9548 36.6259L36.1162 36.5677L36.6389 35.9934L36.7768 34.9973L36.4937 34.3502L35.9202 33.8631L34.2724 33.0124L32.1092 30.4677L31.5938 30.1696L30.563 30.0678L29.8298 29.5152L28.6756 29.0208L27.4924 27.5594L28.5667 26.0835L29.6629 26.0907L29.8298 25.7708L29.4814 25.2546L29.5467 24.9347L30.0621 24.6148L30.9332 24.7529L31.2599 24.4621L32.5375 25.6327L32.7262 26.3452L32.9803 26.5706L36.0073 27.145L37.2051 26.796L37.9528 26.1271L38.7586 25.8435L39.1868 25.2328L39.3538 24.6221L39.0489 22.2591L38.2214 21.3794L37.5172 21.1176L36.6824 20.2742L35.5282 20.3251L37.8294 16.1663L40.1596 12.5601L40.7185 11.2877L45.5386 3.60262L46.1411 2.4684L46.5839 0.737988L47.1283 0.279937L47.7744 0.250854L53.785 1.17423L54.8375 1.45778L55.8829 2.49021L58.5542 5.92923L59.3818 7.3979L60.1222 7.87776Z" fill="#CCCCCC" stroke="white" stroke-width="0.5"/>
<path d="M268.024 61.0989L269.142 62.8802L269.534 63.7963L271.16 64.6688L271.653 65.185L272.22 65.5486L273.112 65.8176L273.896 66.2974L274.172 66.77L274.346 67.9479L275.043 68.6895L276.256 69.0676L277.867 69.3438L278.506 69.6783L278.782 70.2236L278.883 70.7616L279.515 71.5977L280.553 71.7214L281.744 71.3796L283.406 70.7253L284.313 69.8819L286.789 70.0273L287.754 70.3327L289.083 70.2091L289.925 69.322L291.035 68.6386L291.826 67.817L292.298 66.8137L293.38 66.3265L293.917 66.2611L296.211 66.4429L297.743 65.1414L298.955 63.5419L299.354 63.1929L300.429 63.331L303.194 63.2583L303.986 62.9384L306.12 63.9345L305.909 65.4104L305.481 66.7264L307.789 68.8058L309.408 70.0636L310.439 71.0452L311.281 72.9574L307.484 72.9792L302.926 72.8119L301.256 74.4115L299.557 74.7968L298.011 74.8768L296.516 76.6436L295.391 78.4394L293.387 78.3231L292.356 80.5406L292.052 84.8376L292.502 86.0445L293.707 87.5641L291.935 91.6502L291.885 94.4276L293.699 98.5791L294.585 102.127L293.532 105.014L293.997 106.686L292.436 107.733L290.259 107.711L287.689 111.477L287.326 113.506L288.632 117.207L290.665 119.882L291.34 123.685L291.572 127.793L290.505 130.01L288.988 132.569L287.907 136.168L286.752 138.131L285.264 140.313L283.725 142.159L281.061 143.999L274.376 148.55L273.163 150.135L273.25 151.982L273.04 156.73L271.864 158.228L270.209 158.606L267.748 158.758L267.153 159.951L267.058 161.172L266.71 162.059L267.494 163.47L269.229 165.978L268.866 168.087L268.125 170.166L266.347 172.224L264.126 173.547L262.02 174.405L259.93 174.376L259.11 174.819L257.404 175.074L254.79 175.859L254.152 175.459L252.061 175.175L249.535 176.048L247.778 175.881L247.11 175.735L246.181 175.335L244.584 174.921L243.582 171.715L245.702 169.853L246.493 168.196L247.451 164.858L247.444 162.924L248.431 160.845L248.468 157.231L247.814 146.674L248.105 130.33L248.192 112.684L248.119 88.9019L249.092 60.779L249.956 60.7936L252.221 60.4809L253.114 63.0038L254.362 63.2729L255.807 62.3786L256.395 62.3495L257.309 62.5603L259.523 63.7891L260.91 63.8836L261.759 63.6437L262.151 62.3422L262.804 61.6806L263.392 61.5134L264.017 61.6442L265.302 62.2113L265.432 61.2371L265.737 60.4518L266.202 60.2119L267.174 60.2628L268.024 61.0989Z" fill="#CCCCCC" stroke="white" stroke-width="0.5"/>
<path d="M324.514 51.8433L325.516 56.0531L327.157 60.6626L324.493 61.0843L323.658 58.5614L322.968 55.8931L321.72 53.232L320.754 55.6168L321.582 58.1397L322.692 60.9462L323.382 63.6073L323.244 66.4137L321.995 68.6604L319.643 69.6419L322.416 69.2202L324.217 67.119L325.182 69.6419L325.879 67.119L327.498 63.1274L327.723 64.996L329.008 69.0166L328.79 69.3874L329.059 70.2526L329.247 70.1799L330.895 74.2079L331.875 77.2543L334.822 83.8778L335.127 85.0775L336.441 87.6077L336.55 88.9018L336.296 90.5087L338.278 95.3073L338.779 96.2815L338.916 95.7072L336.884 90.1306L337.145 89.6216L339.78 95.8162L340.252 96.536L340.709 98.3173L341.508 100.324L343.047 102.672L345.544 107.449L348.208 111.615L349.769 114.8L350.996 116.109L354.611 121.191L355.983 123.634L359.438 127.073L359.394 127.713L358.85 127.611L358.153 126.985L357.739 126.869L357.761 127.298L359.888 128.789L360.055 128.243L360.658 128.767L365.129 134.322L368.454 139.237L368.701 139.978L369.107 140.502L369.071 140.923L369.92 141.839L370.668 143.068L370.791 143.592L370.327 144.842L370.37 145.184L371.111 144.806L371.394 144.9L371.51 144.646L371.053 143.294L369.717 140.545L370.015 140.196L370.581 140.72L372.308 143.33L377.375 149.335L377.593 149.859L377.339 149.823L377.078 150.106L377.419 150.622L377.905 152.273L378.413 152.636L378.9 152.578L378.145 151.408L378.312 150.87L381.644 154.752L381.97 154.963L382.725 156.33L383.509 157.042L384.322 158.344L386.602 160.503L393.244 169.599L393.97 170.413L396.14 171.416L396.844 171.147L397.374 170.449L397.861 170.166L398.724 170.151L399.704 169.526L400.184 169.533L401.004 170.289L401.977 169.853L403.98 170.82L404.713 171.482L404.539 172.187L404.786 172.74L404.314 174.077L404.358 174.914L407.254 179.989L409.845 182.541L410.528 183.486L410.426 183.806L409.845 184.147L409.969 184.373L411.181 184.787L412.56 186.641L418.84 194.406L421.46 198.412L425.235 202.658L427.703 206.243L429.01 206.81L430.113 207.893L431.391 208.177L432.799 208.17L434.396 206.883L434.94 207.021L435.223 207.442L434.164 208.838L434.011 210.249L434.577 210.903L436.682 215.12L437.169 216.574L438.243 217.207L438.613 218.305L439.492 219.09L442.047 219.752L443.143 219.294L443.659 219.395L446.446 220.959L447.411 220.98L449.255 221.787L450.569 221.977L451.273 221.86L452.086 221.329L453.386 222.093L455.077 222.413L455.919 222.304L456.761 221.678L457.596 221.693L458.801 222.362L459.643 222.086L460.471 222.173L461.414 223.089L461.197 224.594L461.857 225.277L462.068 226.084L462.569 226.579L463.062 227.517L463.977 228.309L467.759 230.149L468.833 230.941L469.312 231.116L469.595 231.356L469.835 232.403L470.583 234.358L470.51 235.027L469.414 235.006L469.058 234.693L467.948 232.788L467.229 232.163L465.479 232.003L464.507 232.105L463.941 232.759L463.817 233.188L463.919 234.039L464.601 236.241L464.202 237.747L462.873 240.393L462.38 240.807L460.935 240.408L460.326 240.4L459.839 240.633L459.28 241.229L458.373 241.207L457.654 240.524L456.899 238.932L456.536 238.924L455.556 239.571L454.816 240.284L454.351 239.121L453.633 239.281L453.371 239.499L451.484 239.492L451.07 239.193L451.005 237.717L449.836 236.54L450.845 235.951L451.077 235.565L450.736 234.955L450.003 234.555L449.19 233.508L448.812 234.816L448.522 234.969L446.09 232.97L446.504 231.668L446.446 231.37L444.813 231.028L444.355 229.807L443.942 229.494L442.795 229.044L441.401 229.08L440.334 227.902L438.301 226.521L437.873 226.397L435.369 227.379L434.178 226.317L432.378 225.248L431.848 224.449L429.358 224.579L428.69 225.045L428.189 225.008L427.892 225.517L427.543 226.993L425.888 228.149L425.358 230.869L424.763 231.559L425.206 231.923L425.148 233.428L425.496 233.566L426.433 233.362L426.904 233.849L426.73 234.489L426.977 235.165L426.483 235.929L426.854 236.612L426.483 237.405L426.672 237.856L427.267 238.481L428.741 238.408L428.959 238.772L428.24 239.462L428.364 239.659L428.748 239.695L429.242 239.288L429.779 239.557L430.04 240.131L430.65 240.102L430.853 240.771L430.57 241.098L428.073 241.818L419.587 243.585L418.034 244.108L417.751 244.436L417.555 248.907L417.635 261.623L417.925 263.557L417.939 296.043L418.099 299.191L418.411 299.969L418.774 300.209L419.072 301.859L415.45 300.783L413.577 299.373L412.125 296.602L410.702 288.605L408.713 287.529L404.517 286.802L401.57 286.002L401.345 285.253L401.788 282.977L400.067 279.509L400.314 277.91L399.821 275.074L397.97 274.412L394.325 272.5L391.32 271.119L389.382 270.457L386.391 266.218L384.301 264.393L381.586 264.633L379.226 265.244L376.911 264.721L375.089 262.125L373.942 261.405L370.501 260.744L368.454 259.122L366.908 257.45L364.113 255.974L362.131 256.905L361.609 257.632L361.376 259.944L360.694 261.005L359.184 260.671L357.935 260.787L355.75 261.812L354.357 262.939L354.023 261.231L352.731 259.922L350.248 258.984L346.981 256.621L344.078 250.666L342.611 247.147L341.668 242.814L339.359 240.742L338.684 238.045L338.183 236.511L338.423 234.533L338.169 232.657L337.189 230.171L336.267 228.644L343.853 221.649L346.43 219.686L349.406 216.843L350.284 213.884L350.408 210.445L351.765 208.097L353.34 206.09L355.17 204.025L360.563 196.537L363.206 193.57L362.131 190.793L362.393 189.818L362.356 186.634L361.333 184.227L360.759 181.348L360.679 178.294L362.632 177.902L362.588 176.353L363.256 174.819L365.115 173.932L365.957 172.652L347.591 172.776L324.507 172.652L310.345 165.905L300.893 161.928L296.654 159.522L278.622 149.859L280.263 145.613L281.061 143.999L283.725 142.159L285.264 140.313L286.752 138.131L287.907 136.168L288.988 132.569L290.505 130.01L291.572 127.793L291.34 123.685L290.665 119.882L288.632 117.206L287.326 113.506L287.689 111.477L290.258 107.711L292.436 107.733L293.997 106.686L293.532 105.014L294.585 102.127L293.699 98.5791L291.885 94.4275L291.935 91.6501L293.707 87.564L292.502 86.0445L292.051 84.8375L292.356 80.5406L293.387 78.323L295.391 78.4394L296.516 76.6435L298.011 74.8768L299.557 74.7968L301.256 74.4114L302.926 72.8119L307.484 72.9791L311.281 72.9573L310.439 71.0451L309.408 70.0636L307.789 68.8058L305.481 66.7264L305.909 65.4104L306.12 63.9344L303.985 62.9384L305.394 61.8332L306.853 61.1789L308.624 61.0407L309.568 60.2482L310.345 60.1682L311.637 60.699L314.076 60.2264L315.244 59.6302L316.769 57.3618L317.088 55.9076L315.789 52.1269L315.767 50.5201L316.203 47.8445L316.028 46.8702L315.506 45.9759L314.787 45.2852L315.31 43.1477L314.932 42.4569L312.972 40.2757L312.936 39.7377L313.088 39.4542L314.591 39.7813L315.999 40.2539L318.888 42.8496L321.233 45.5324L324.514 51.8433Z" fill="#CCCCCC" stroke="white" stroke-width="0.5"/>
<path d="M161.815 104.505L164.269 104.272L165.873 106.497L167.165 106.504L168.066 107.195L168.378 107.98L168.356 108.903L168.792 109.652L168.095 109.965L164.915 109.754L162.745 109.812L160.335 108.663L157.17 107.318L153.99 106.824L153.707 104.01L151.704 102.6L149.94 102.098L147.631 101.655L145.265 100.462L143.588 98.5718L141.911 98.281L142.027 99.5388L140.764 99.2844L138.209 97.2922L134.536 94.0713L136.416 94.1876L137.207 94.0858L137.483 93.3224L139.661 93.5551L140.51 94.2894L141.918 93.7877L142.259 92.3918L144.452 93.3806L145.112 93.0243L145.628 93.5987L145.439 94.3185L145.475 95.6199L147.566 95.9471L149.773 97.1831L152.582 99.3353L153.881 101.233L157.867 105.203L159.914 105.312L161.815 104.505Z" fill="#CCCCCC" stroke="white" stroke-width="0.5"/>
<path d="M285.678 350.951L284.88 351.03L284.212 350.732L283.965 350.245L284.328 349.613L284.335 348.973L287.05 349.111L287.144 349.336L286.201 350.507L285.678 350.951ZM322.692 320.53L322.206 320.748L321.952 320.523L321.451 317.891L322.126 317.549L322.605 317.782L323.193 319.134L323.048 320.065L322.692 320.53ZM322.257 315.593L321.633 316.48L321.088 316.408L320.776 315.957L320.907 313.943L320.725 309.072L319.288 304.949L319.963 304.833L320.667 305.007L321.124 306.265L321.117 306.81L322.046 308.97L321.799 310.438L321.879 311.304L323.004 314.881L322.838 315.324L322.257 315.593ZM146.854 180.701L144.19 180.832L143.486 180.41L143.043 179.763L143.145 179.443L144.662 178.912L144.727 178.498L144.444 178.076L146.789 178.389L146.644 179.996L147.116 180.548L146.854 180.701ZM123.792 172.66L125.389 173.903L125.643 174.354L123.044 174.259L122.202 175.023L121.629 174.79L121.251 173.918L120.387 173.329L120.395 172.943L120.881 172.66L122.006 172.703L122.297 172.383L123.792 172.66ZM132.198 172.114L134.318 172.907L135.762 173.081L136.459 173.699L137.011 173.612L137.171 173.968L136.779 174.288L134.855 174.107L130.921 172.805L130.02 172.856L129.926 172.565L130.666 172.253L132.198 172.114ZM129.128 171.984L128.772 172.267L125.984 171.562L125.44 171.169L125.571 170.82L129.128 171.984ZM116.707 174.768L117.281 175.292L118.595 175.466L119.56 174.768L120.591 174.841L120.809 175.713L121.389 175.59L121.571 176.397L122.151 176.339L123.124 175.161L123.836 174.848L124.445 174.855L127.792 176.92L128.641 178.28L130.325 180.068L130.993 180.272L132.822 180.032L134.746 180.345L135.327 179.996L137.352 179.894L138.789 180.556L140.169 180.861L141.287 181.712L142.564 182.177L142.942 182.664L142.804 183.406L142.985 184.278L143.363 184.86L143.036 185.463L142.165 185.74L141.091 186.983L140.851 187.979L141.003 188.59L142.339 189.92L143.043 189.898L143.29 190.509L143.254 191.054L143.537 191.316L144.147 191.229L144.72 191.912L144.495 192.196L143.406 192.058L141.947 193.425L141.846 193.839L142.1 194.392L143.21 195.308L144.103 195.642L144.742 195.584L145.003 195.264L145.932 195.177L146.578 194.799L147.696 195.068L148.531 194.952L150.419 195.453L150.477 195.744L150.215 196.318L148.669 196.915L148.335 197.743L146.891 197.794L146.179 197.976L145.954 198.26L145.555 199.474L145.098 200.012L142.68 200.659L142.513 200.979L142.891 201.72L141.679 203.793L141.345 204.883L140.895 205.138L139.581 204.963L139.254 205.283L138.775 205.152L138.252 206.461L138.688 207.784L138.681 208.526L138.419 209.129L137.548 209.573L135.951 209.107L134.746 208.002L133.468 207.442L132.989 206.955L131.799 207.137L130.957 207.806L129.948 209.304L129.708 210.365L129.861 211.172L131.588 211.87L132.169 212.401L132.256 212.874L131.509 214.117L130.376 214.873L128.126 215.462L127.451 215.84L126.478 217.083L124.576 217.803L122.623 220.122L121.404 223.162L121.324 224.608L119.567 230.018L119.045 231.203L117.048 231.857L116.816 232.563L116.968 233.333L116.772 233.551L116.17 232.81L115.887 231.974L115.19 231.487L113.622 231.152L112.417 229.887L111.974 228.92L111.662 224.87L111.125 224.194L109.724 223.183L103.982 216.858L103.234 214.379L102.733 213.412L102.036 212.728L101.477 211.151L99.6264 208.926L101.434 206.49L103.474 204.716L105.093 201.146L104.577 197.467L105.267 195.184L106.428 193.221L107.415 191.098L104.396 190.676L101.194 184.933L97.9495 183.806L95.3072 183.457L92.3237 182.78L90.8356 181.646L90.821 179.545L93.0206 177.429L95.8081 177.102L97.8334 176.462L100.868 175.837L101.637 175.015L104.272 175.241L105.935 174.863L107.561 173.227L108.715 169.541L109.346 168.661L109.15 169.01L109.818 169.824L111.03 170.384L113.833 172.892L115.466 173.263L115.684 174.165L116.126 174.717L116.707 174.768ZM111.096 155.094L111.771 155.167L112.475 154.985L114.108 155.712L115.843 156.083L116.322 156.41L116.874 156.315L117.157 156.737L116.896 157.282L116.192 157.34L115.074 156.817L114.522 157.137L110.769 156.453L110.072 155.574L109.876 155.668L109.746 156.054L110.283 156.897L110.922 157.224L111.727 157.268L112.076 157.82L112.497 157.791L112.853 157.377L113.303 157.609L113.782 157.515L114.551 157.719L115.277 158.693L115.662 158.925L116.497 158.773L117.368 158.235L118.616 158.249L118.674 158.729L118.311 159.369L117.636 159.682L117.6 159.972L115.016 161.041L114.312 160.939L111.379 161.55L109.165 161.368L107.023 160.285L106.486 159.732L106.043 159.049L105.332 156.373L104.918 155.792L105.31 155.123L106.051 155.159L108.12 154.185L109.564 154.33L111.096 155.094ZM160.371 126.615L162.803 130.163L167.441 133.398L170.461 132.351L172.312 131.21L174.425 130.519L175.862 131.028L177.285 132.838L179.005 134.641L179.789 137.39L178.649 140.153L177.524 141.905L176.421 144.246L178.032 145.337L177.749 147.234L177.974 150.964L177.996 153.276L180.159 157.668L180.987 159.071L182.976 159.98L183.462 162.779L184.014 164.531L188.899 164.611L191.454 164.916L193.603 167.083L193.923 169.679L193.233 172.129L190.09 173.307L187.926 175.343L186.148 177.698L183.985 177.88L181.734 177.938L180.558 179.269L178.896 182.839L177.197 183.391L176.188 184.678L176.007 187.201L177.096 188.975L180.624 189.593L183.128 189.484L185.175 189.6L187.28 190.175L187.535 192.014L188.268 192.959L189.749 193.636L190.939 194.53L189.48 196.166L189.4 198.012L191.781 197.947L192.914 201.146L194.873 201.095L195.788 202.578L193.262 204.832L189.916 204.672L188.972 205.283L188.58 209.406L189.712 212.692L189.386 216.015L190.061 217.839L193.327 221.358L193.4 223.998L194.09 226.455L195.984 228.753L196.957 229.145L199.527 229.916L203.868 229.8L206.401 229.313L208.731 229L209.406 230.948L210.815 232.126L212.92 229.763L214.575 227.582L215.94 225.532L214.778 222.754L215.816 221.01L219.046 221.468L221.42 221.155L225.797 220.995L228.171 219.25L231.438 221.3L235.314 222.66L237.608 222.638L239.481 222.5L242.486 224.056L246.871 222.515L249.84 222.813L250.987 223.409L251.698 225.023L251.19 229.393L252.801 231.865L254.406 232.41L257.128 231.247L260.169 232.504L259.799 237.339L260.039 240.139L262.485 241.12L264.358 244.05L266.812 245.286L269.541 247.351L269.781 248.558L270.84 250.666L272.96 250.187L274.259 253.422L276.953 255.865L279.53 255.378L280.408 253.931L281.504 252.811L283.733 253.298L284.175 255.72L285.809 259.195L287.696 261.194L289.271 262.329L290.774 262.416L292.422 263.121L290.963 266.306L290.984 268.61L291.398 273.336L295.158 276.463L299.819 278.848L303.427 279.466L306.541 275.692L311.179 278.957L313.756 283.283L315.404 287.092L316.936 289.775L319.549 290.582L322.888 292.124L325.182 295.286L331.73 297.998L333.559 299.373L336.514 299.038L338.786 297.969L340.129 296.762L341.152 294.516L341.203 291.629L343.236 289.564L344.368 286.518L344.172 285.347L343.323 283.363L340.397 283.399L338.452 282.57L337 281.312L337.102 280.469L338.713 278.208L339.011 275.183L338.822 274.311L340.027 272.522L341.668 271.388L342.967 270.094L345.021 265.768L347.018 263.79L348.295 261.616L350.234 259.006L352.723 259.944L354.008 261.253L354.342 262.961L355.736 261.834L357.921 260.809L359.17 260.693L360.679 261.027L361.362 259.958L361.594 257.646L362.117 256.919L364.098 255.989L366.893 257.465L368.439 259.137L370.486 260.758L373.927 261.42L375.074 262.147L376.896 264.735L379.205 265.259L381.571 264.655L384.279 264.415L386.377 266.247L389.368 270.479L391.306 271.141L394.304 272.522L397.948 274.434L399.806 275.096L400.3 277.931L400.053 279.531L401.773 283.006L401.331 285.282L401.563 286.031L404.503 286.831L408.699 287.558L410.695 288.634L412.118 296.639L413.569 299.402L415.442 300.819L419.065 301.895L418.767 300.245L419.007 300.405L423.072 298.224L423.957 298.129L424.778 298.369L426.425 301.379L427.282 302.499L434.519 307.058L436.675 309.421L441.829 310.737L444.326 312.496L444.864 313.114L445.851 316.226L448.609 318.654L448.689 320.145L448.45 320.966L444.268 323.198L443.296 325.111L441.88 326.899L440.987 327.43L436.065 328.433L435.34 328.753L434.214 329.997L433.213 330.36L429.511 330.891L428.509 331.254L427.333 332.003L425.699 333.85L425.402 334.948L425.663 335.617L427.551 337.478L427.536 338.14L427.137 338.903L426.469 339.39L423.965 340.495L423.769 342.146L421.388 342.706L420.604 343.295L421.068 344.451L421.017 344.981L420.553 345.628L420.546 346.079L422.455 348.34L423.398 350.682L425.562 352.288L427.434 353.255L427.855 353.779L428.175 355.407L429.198 356.498L429.561 357.901L430.73 359.035L432.189 361.122L432.922 362.554L432.821 363.58L431.899 364.627L431.971 365.041L432.654 365.797L432.581 368.262L433.409 370.13L433.43 371.01L432.973 372.152L431.848 373.177L431.463 373.809L432.095 377.176L432.153 379.401L431.521 382.265L430.193 385.072L428.632 387.26L427.551 388.104L425.932 388.896L422.919 389.696L421.525 389.71L420.502 389.405L419.028 389.332L416.052 392.4L412.815 396.283L410.02 398.777L406.659 400.645L403.566 401.612L402.615 402.085L402.151 402.572L401.969 403.386L402.071 404.419L403.022 405.96L405.592 406.753L406.238 407.174L409.425 409.741L410.419 411.282L410.949 411.333L412.931 410.635L416.197 411.522L417.7 412.329L417.976 412.911L418.302 415.136L418.818 416.255L418.571 420.48L420.756 421.752L421.845 422.879L422.113 425.838L421.743 428.092L424.161 434.381L424.284 438.569L423.507 442.532L423.384 445.251L423.231 445.055L422.309 444.975L421.801 444.676L420.226 441.994L420.495 441.107L420.451 439.863L420.647 439.645L421.315 439.558L421.772 439.122L422.113 438.075L422.23 436.897L421.917 434.817L420.64 433.102L420.342 432.011L419.471 430.971L419.195 430.295L418.941 428.434L417.134 424.377L412.19 417.099L409.591 414.554L406.964 413.485L399.69 407.916L392.772 403.954L390.892 402.063L389.534 401.147L388.511 399.628L388.322 397.766L388.504 396.523L389.135 395.258L391.436 393.317L392.954 392.415L393.701 391.564L394.028 389.267L395.066 388.169L395.458 387.471L395.407 386.86L394.137 384.403L392.801 382.425L388.946 378.005L388.257 375.525L387.574 374.493L387.959 374.435L388.62 374.864L389.077 376.245L389.643 376.703L390.122 376.616L389.941 376.034L389.534 375.736L389.578 375.096L390.028 374.82L391.618 375.14L393.244 373.439L394.369 373.649L394.376 373.344L393.825 373.031L392.961 372.951L390.703 374.158L390.035 374.144L389.251 373.46L388.627 372.392L387.676 372.057L387.139 371.599L383.771 367.026L383.567 365.964L384.693 363.812L385.331 364.081L385.658 365.397L386.13 365.79L386.986 366.03L387.074 366.481L386.449 367.397L387.045 368.08L386.29 369.091L386.907 370.225L388.874 369.076L389.622 368.291L390.384 368.335L390.921 368.698L391.415 368L391.357 367.615L390.471 367.186L389.796 367.491L389.513 367.324L389.186 366.073L386.493 362.7L385.194 362.104L384.475 361.195L383.829 361.631L383.422 361.209L383.009 361.173L382.747 361.428L382.776 361.617L383.727 361.951L383.945 362.373L383.996 363.172L383.698 363.776L383.219 363.994L382.74 363.95L382.268 363.529L380.896 363.441L380.076 362.758L379.401 363.034L378.798 362.896L378.58 362.671L378.878 362.104L378.755 361.747L378.217 361.515L376.272 361.449L375.539 363.136L375.096 362.998L374.131 361.413L373.434 359.261L373.02 359.065L371.895 359.457L369.891 358.781L369.122 358.861L368.084 359.61L366.269 357.334L365.695 357.036L364.737 356.927L364.265 356.694L363.99 356.142L363.162 355.836L362.843 355.546L363.3 354.978L362.872 353.692L363.271 352.739L363.322 351.779L364.127 351.154L364.338 349.816L363.452 349.351L362.741 350.042L362.291 350.034L361.979 349.613L361.18 349.467L360.302 348.362L359.699 348.224L359.373 348.638L358.16 348.268L356.789 348.151L356.571 348.02L356.462 346.93L356.179 346.734L355.627 347.075L355.583 347.65L354.908 348.086L354.77 348.886L354.48 349.075L353.87 349.031L353.783 348.449L353.471 348.159L352.985 348.406L352.506 348.333L351.199 350.1L349.936 350.914L348.876 351.154L348.114 350.98L347.874 350.114L345.798 350.078L344.688 349.707L343.86 349.729L343.657 350.143L343.236 350.391L342.379 350.245L341.559 351.481L341.377 352.885L341.682 353.655L342.19 353.888L342.807 353.292L343.41 353.364L343.947 353.786L344.034 354.171L343.439 355.284L343.816 355.676L344.303 355.269L344.847 355.247L345.697 355.873L346.735 357.043L347.809 357.799L348.862 359.77L348.375 362.002L348.462 362.802L349.05 363.245L349.341 363.87L349.972 364.518L351.547 365.79L353.115 367.608L354.313 368.655L355.264 369.185L356.157 369.171L357.224 370.247L359.111 369.956L362.886 371.367L364.774 373.221L365.928 374.776L367.038 375.147L367.859 375.802L368.468 375.46L368.606 374.696L368.984 375.147L369.165 375.823L368.396 381.473L368.831 382.214L371.278 384.977L371.111 385.581L370.617 386.242L369.187 387.529L369.303 388.104L370.77 390.27L370.922 390.881L369.782 393.898L370.254 396.05L369.724 397.221L368.236 398.188L365.064 397.075L361.391 395.316L356.026 393.498L352.034 391.673L349.725 390.256L348.237 389.718L341.646 388.394L338.648 388.213L336.92 388.249L333.879 388.743L333.683 388.932L332.797 388.598L331.352 389.02L330.46 388.874L327.019 386.359L326.656 385.043L325.596 383.647L323.803 381.989L320.863 380.28L315.491 374.275L310.998 369.629L309.502 369.185L309.321 368.705L308.711 368.982L308.189 369.52L307.724 368.778L307.303 367.04L306.083 365.201L306.127 364.692L307.078 362.947L307.383 361.733L308.131 360.751L309.125 360.381L309.386 359.937L309.72 357L310.054 356.207L311.579 354.92L312.994 354.433L317.183 354.179L317.829 353.932L318.315 353.299L318.78 351.997L318.613 350.398L319.077 349.031L319.825 348.144L320.79 347.773L321.313 347.075L320.972 346.624L320.464 346.552L320.072 346.995L319.781 347.024L319.484 345.512L319.498 344.618L319.731 344.043L320.057 343.731L321.654 343.658L322.91 343.135L323.73 341.768L324.456 342.226L324.493 341.84L323.745 340.546L323.941 340.394L325.93 340.139L327.309 339.717L328.42 340.117L329.523 339.267L329.218 338.365L328.964 338.198L328.384 338.51L328.275 337.26L328.05 337.253L327.788 337.732L327.483 338.845L326.837 339.092L324.631 339.056L323.2 338.779L322.721 340.692L322.358 341.39L321.197 342.175L320.558 342.102L318.736 340.154L322.213 336.431L322.925 336.089L323.447 335.391L324.282 335.115L325.059 334.453L325.581 333.566L327.062 333.145L328.775 334.003L329.763 334.083L330.677 334.679L331.098 334.432L330.605 333.53L329.276 332.512L329.03 331.807L329.327 331.334L330.053 331.923L332.579 331.865L333.385 331.625L334.626 332.032L335.534 331.538L335.621 331.923L334.699 333.799L334.184 335.842L333.465 336.758L332.826 337.005L331.708 337.02L330.902 337.522L330.598 338.416L330.648 339.15L330.322 339.754L329.589 339.616L329.516 339.906L329.77 340.226L330.343 340.553L331.019 340.343L331.498 340.415L331.955 339.906L331.846 338.91L332.144 338.372L333.233 338.103L334.43 337.325L335.331 335.101L335.287 333.886L335.715 332.963L336.26 332.781L336.92 333.276L337.276 333.217L338.829 332.12L341.392 331.749L341.784 331.342L341.537 330.694L340.964 330.396L340.731 330.84L340.245 331.182H338.394L336.971 332.149L336.594 331.952L336.536 331.378L337.32 330.462L336.877 330.098L336.006 330.535L335.338 330.396L334.401 331.182L332.812 330.673L331.207 331.029L330.191 330.629L329.501 329.815L328.928 329.742L328.347 330.084L328.173 331.014L328.536 332.33L328.405 332.614L328.151 332.607L327.52 332.083L327.128 330.665L326.489 330.527L324.747 329.408L322.032 329.429L322.961 327.365L323.077 325.838L324.057 326.55L325.451 327.146L329.153 327.721L330.075 328.186L330.547 328.768L331.817 329.24L331.461 327.539L330.605 326.979L330.329 326.398L330.917 325.481L331.432 325.394L332.514 325.83L333.378 325.78L333.516 325.14L333.138 324.718L331.955 324.573L330.96 324.718L329.734 325.401L329.175 326.579L328.659 327.023L326.315 325.54L325.894 325.663L324.623 325.227L324.115 324.834L323.868 324.027L323.97 323.744L324.471 324.391L325.807 324.733L326.656 325.452L327.324 325.496L327.679 325.147L327.65 324.762L325.139 324.049L324.819 323.816L324.58 322.915L324.297 322.719L323.759 322.551L322.395 323.62L321.879 323.678L321.567 323.417L321.538 323.002L321.901 322.399L323.622 320.923L324.021 320.094L323.868 319.454L324.253 317.186L324.108 316.001L323.36 314.575L323.404 314.096L322.954 312.307L322.358 311.267L322.337 310.562L322.642 309.602L323.128 309.384L324.819 309.442L324.827 309.188L322.983 308.548L322.525 307.196L322.642 306.105L323.128 305.763L323.135 305.509L322.438 305.371L322.068 304.527L321.11 304.447L320.573 304.186L319.382 302.564L318.272 301.939L317.684 302.572L317.11 302.593L316.239 300.783L314.402 299.598L314.54 299.053L314.359 298.536L313.466 298.231L312.689 296.842L310.04 294.45L309.742 293.287L308.21 292.262L307.506 291.069L306.613 290.233L306.025 289.993L304.704 290.153L304.087 290.553L303.746 291.389L303.427 291.382L302.73 290.859L303.383 289.972L302.984 288.714L302.889 286.562L302.483 285.82L300.806 284.315L297.982 282.665L293.271 280.702L291.58 280.512L291.391 280.258L291.761 279.138L291.289 278.491L290.433 277.866L289.148 276.048L285.409 273.329L284.146 272.093L284.255 271.322L283.812 270.995L283.362 271.053L282.97 271.497L280.277 269.534L280.132 268.669L279.813 268.727L279.551 269.236L273.069 265.644L266.572 262.852L266.1 262.14L266.724 261.056L266.347 260.729L265.89 261.078L265.585 262.358L265.069 262.35L264.111 261.987L262.108 260.736L260.641 260.329L258.572 259.239L254.674 258.315L254.064 258.468L252.997 259.159L252.605 257.45L252.257 257.254L251.872 257.443L251.444 258.083L250.645 257.973L250.036 258.257L249.477 256.963L248.62 256.083L247.822 255.683L246.958 255.603L246.283 255.85L245.709 255.807L246.529 254.665L247.299 254.869L247.531 254.295L246.82 252.201L247.277 251.408L246.304 250.114L244.555 249.191L243.321 247.889L242.537 246.726L241.586 246.071L238.719 245.097L237.644 243.992L236.584 241.891L235.859 241.171L235.379 241.004L235.082 241.484L235.459 242.291L237.986 245.308L239.125 246.093L240.432 246.529L241.492 246.573L241.876 246.806L242.058 247.482L241.826 247.802L241.027 247.824L239.459 247.351L239.205 246.995L236.976 246.035L235.329 244.857L234.262 243.105L232.599 243.047L231.198 242.334L230.327 242.494L230.799 243.032L231.213 243.2L233.427 243.585L233.87 243.912L233.862 244.297L233.478 244.421L231.039 243.687L229.913 243.672L229.594 243.381L227.547 243.229L227.227 243.352L225.986 242.502L225.442 242.363L224.999 241.971L225.289 241.622L225.238 240.851L224.89 240.72L224.433 241.295L223.533 241.346L223.431 241.571L223.649 241.993L223.453 242.087L215.976 240.349L215.279 239.731L214.887 240.109L213.29 239.899L212.68 239.63L212.433 238.692L211.925 238.495L211.374 239.033L210.539 238.99L208.884 238.263L207.918 238.219L205.849 237.39L204.506 237.179L203.693 237.274L202.641 236.874L202.408 237.354L196.463 238.365L195.077 236.743L194.765 236.096L195.512 235.209L195.2 234.562L193.719 235.085L192.739 234.206L192.391 234.133L192.456 234.62L193.008 235.187L192.819 235.362L191.614 234.286L191.396 233.799L190.816 233.791L189.132 232.323L185.756 230.352L185.277 229.96L184.174 228.178L184.348 227.182L183.462 226.237L183.281 225.561L182.809 224.878L182.489 224.841L181.662 224.121L180.856 224.529L180.413 224.361L179.237 223.256L179.02 222.74L179.702 222.136L179.898 221.591L179.84 221.075L179.114 220.261L178.25 219.897L176.769 220.297L176.515 220.006L176.457 219.555L177.43 218.537L177.248 217.73L177.64 217.091L177.546 216.669L176.66 215.985L176.972 213.899L177.56 213.23L178.047 213.077L178.439 212.474L178.54 211.732L179.165 210.489L180.754 208.809L181.459 208.657L181.851 207.951L182.366 207.573L183.194 205.305L182.468 201.793L181.858 201.401L179.658 197.809L177.633 195.533L177.256 194.857L175.956 193.425L174.395 192.669L173.568 192.014L173.314 191.527L173.415 191.273L173.829 191.338L174.091 191.12L173.212 189.789L169.43 186.75L169.401 186.27L170.076 185.863L170.926 184.911L171.877 183.377L171.818 182.926L170.098 181.617L168.545 179.959L168.015 178.542L168.254 177.066L167.971 176.484L167.492 175.997L166.723 175.699L164.763 175.641L162.97 175.139L161.01 175.408L158.992 175.226L157.859 175.662H155.064L153.554 175.931L153.075 175.801L152.792 175.219L153.025 174.834L153.896 174.426L156.632 173.881L155.703 173.678L154.868 173.765L152.596 172.936L151.166 171.794L147.275 169.402L146.099 168.457L143.805 166.916L143.101 166.872L142.782 166.451L142.855 165.811L141.533 166.116L139.697 163.331L138.898 162.968L138.289 163.121L136.336 162.517L136.111 162.19L136.372 161.87L137.084 161.587L137.722 161.594L137.28 160.881L137.033 159.718L136.496 158.969L135.058 158.242L133.585 158.031L132.401 157.471L129.991 154.745L128.968 153.865L126.863 152.913L125.52 152.033L124.975 151.96L124.126 152.949L123.741 153.073L122.899 152.622L122.427 147.525L125.099 147.452L128.314 149.212L135.617 152.12L138.63 153.931L140.466 153.88L142.223 150.724L141.693 147.969L144.713 145.198L147.537 144.493L146.774 139.469L149.192 133.02L149.395 131.21L150.143 127.996L152.4 124.906L154.876 123.75L158.033 124.673L160.371 126.615Z" fill="#B5B5B5" stroke="white" stroke-width="0.5"/>
<path d="M278.622 149.859L279.827 152.891L281.424 159.812L282.963 161.114L285.83 162.212L288.008 164.204L289.024 166.32L289.126 168.625L289.525 171.046L290.498 173.074L289.859 174.354L287.377 175.139L286.36 174.703L285.097 174.317L283.921 175.604L282.491 176.819L280.001 177.306L277.947 176.906L271.958 177.698L271.007 178.222L270.855 180.41L269.113 182.475L267.066 183.915L266.87 185.972L269.156 185.66L270.535 185.703L271.225 186.481L271.21 187.615L270.615 188.888L269.984 190.124L269.251 190.982L267.283 193.934L266.899 195.155L265.454 195.948L262.754 197.998L260.155 199.285L259.327 199.474L259.545 201.393L258.914 202.717L260.394 203.473L262.652 203.618L265.055 203.051L266.811 202.957L270.506 200.717L271.537 200.274L272.837 203.676L274.492 206.228L277.991 207.77L278.092 209.907L277.918 211.296L278.441 212.074L279.907 212.205L281.388 213.165L281.831 214.117L282.549 214.48L283.791 213.855L285.888 215.935L286.985 216.494L288.494 216.705L289.191 216.305L291.543 216.705L292.153 217.774L292.139 220.421L292.901 222.369L294.687 223.7L296.784 224.15L298.352 224.899L300.029 225.357L302.026 226.172L303.318 226.012L302.897 227.822L303.499 229.945L304.515 230.592L306.562 230.658L307.187 232.192L308.827 232.606L311.695 231.901L313.422 232.737L315.644 231.29L316.442 229.756L317.466 228.891L318.961 228.68L320.689 229.305L322.329 231.232L323.767 231.901L327.2 234.031L329.806 234.671L331.752 235.456L336.274 239.317L339.359 240.742L341.668 242.814L342.611 247.148L344.078 250.667L346.981 256.621L350.248 258.984L348.31 261.594L347.032 263.768L345.036 265.746L342.982 270.072L341.675 271.366L340.034 272.5L338.829 274.289L339.018 275.169L338.728 278.193L337.116 280.454L337.015 281.298L338.466 282.556L340.405 283.384L343.33 283.341L344.179 285.333L344.375 286.496L343.243 289.543L341.21 291.608L341.16 294.501L340.136 296.748L338.786 297.955L336.521 299.024L333.566 299.351L331.73 297.977L325.189 295.265L322.888 292.102L319.549 290.561L316.936 289.754L315.404 287.071L313.764 283.261L311.187 278.935L306.548 275.67L303.427 279.436L299.819 278.818L295.166 276.434L291.405 273.307L290.992 268.589L290.97 266.284L292.429 263.099L290.781 262.394L289.278 262.307L287.703 261.18L285.816 259.173L284.175 255.698L283.733 253.284L281.511 252.797L280.408 253.917L279.529 255.363L276.952 255.85L274.259 253.408L272.96 250.179L270.848 250.652L269.788 248.543L269.548 247.337L266.819 245.272L264.365 244.043L262.492 241.113L260.046 240.131L259.799 237.332L260.177 232.497L257.135 231.239L254.413 232.403L252.809 231.857L251.197 229.385L251.712 225.016L251.001 223.394L249.854 222.798L246.885 222.5L242.501 224.041L239.488 222.493L237.615 222.624L235.321 222.645L231.438 221.286L228.171 219.236L225.797 220.973L221.413 221.133L219.039 221.453L215.816 220.995L214.778 222.74L215.932 225.517L214.567 227.568L212.912 229.749L210.807 232.112L209.399 230.934L208.717 228.985L206.386 229.298L203.853 229.785L199.512 229.902L196.942 229.131L195.977 228.738L194.075 226.441L193.385 223.991L193.313 221.351L190.046 217.832L189.371 216.007L189.705 212.685L188.573 209.398L188.965 205.276L189.908 204.665L193.255 204.825L195.781 202.578L194.866 201.088L192.906 201.146L191.774 197.94L189.4 198.005L189.473 196.158L190.939 194.523L192.739 194.501L194.706 191.469L195.055 190.327L196.63 188.27L198.539 187.717L200.732 185.514L201.878 184.685L203.86 183.755L204.63 182.933L206.604 181.668L208.528 181.777L214.132 180.621L214.212 180.41L217.631 180.439L219.525 180.934L221.812 182.337L225.195 182.206L228.585 181.108L234.087 180.665L236.439 179.756L238.45 178.193L239.459 177.029L240.889 175.779L242.951 174.841L244.584 174.921L246.181 175.335L247.11 175.735L247.778 175.881L249.535 176.048L252.061 175.175L254.152 175.459L254.79 175.859L257.404 175.074L259.11 174.819L259.93 174.376L262.02 174.405L264.126 173.547L266.347 172.223L268.125 170.166L268.866 168.086L269.229 165.978L267.494 163.47L266.71 162.059L267.058 161.172L267.153 159.951L267.748 158.758L270.209 158.606L271.864 158.227L273.04 156.73L273.25 151.982L273.163 150.135L274.375 148.55L281.061 143.999L280.263 145.613L278.622 149.859Z" fill="#CCCCCC" stroke="white" stroke-width="0.5"/>
</svg>
