<svg width="208" height="96" viewBox="0 0 208 96" fill="none" xmlns="http://www.w3.org/2000/svg">
<g clip-path="url(#clip0_3_4083)">
<path d="M182.699 14H25.3008C20.1641 14 16 22.3409 16 32.6299V177.37C16 187.659 20.1641 196 25.3008 196H182.699C187.836 196 192 187.659 192 177.37V32.6299C192 22.3409 187.836 14 182.699 14Z" fill="white" fill-opacity="0.05"/>
<path d="M182.538 14.2439H24.7448C19.7933 14.2439 15.7793 20.4756 15.7793 28.1628V140.627C15.7793 148.315 19.7933 154.546 24.7448 154.546H182.538C187.489 154.546 191.503 148.315 191.503 140.627V28.1628C191.503 20.4756 187.489 14.2439 182.538 14.2439Z" stroke="white" stroke-opacity="0.1"/>
<path d="M39.0897 29.2C39.0897 25.2666 35.8785 22.078 31.9173 22.078C27.9561 22.078 24.7449 25.2666 24.7449 29.2C24.7449 33.1333 27.9561 36.3219 31.9173 36.3219C35.8785 36.3219 39.0897 33.1333 39.0897 29.2Z" fill="white" fill-opacity="0.2"/>
<path d="M38.7311 29.2001C38.7311 25.4634 35.6805 22.4342 31.9173 22.4342C28.1542 22.4342 25.1035 25.4634 25.1035 29.2001C25.1035 32.9367 28.1542 35.9659 31.9173 35.9659C35.6805 35.9659 38.7311 32.9367 38.7311 29.2001Z" stroke="white" stroke-opacity="0.1"/>
<path d="M164.607 44.8683H27.6138C26.0294 44.8683 24.7449 46.1437 24.7449 47.7171C24.7449 49.2904 26.0294 50.5658 27.6138 50.5658H164.607C166.191 50.5658 167.476 49.2904 167.476 47.7171C167.476 46.1437 166.191 44.8683 164.607 44.8683Z" fill="white" fill-opacity="0.2"/>
<path d="M77.1035 26.3512H48.4139C46.8294 26.3512 45.5449 27.6266 45.5449 29.2C45.5449 30.7733 46.8294 32.0488 48.4139 32.0488H77.1035C78.688 32.0488 79.9725 30.7733 79.9725 29.2C79.9725 27.6266 78.688 26.3512 77.1035 26.3512Z" fill="white" fill-opacity="0.2"/>
<path d="M98.6207 26.3512H87.1448C85.5604 26.3512 84.2759 27.6266 84.2759 29.2C84.2759 30.7733 85.5604 32.0488 87.1448 32.0488H98.6207C100.205 32.0488 101.49 30.7733 101.49 29.2C101.49 27.6266 100.205 26.3512 98.6207 26.3512Z" fill="white" fill-opacity="0.2"/>
<path d="M84.2759 56.2634H27.6138C26.0294 56.2634 24.7449 57.5389 24.7449 59.1122C24.7449 60.6855 26.0294 61.961 27.6138 61.961H84.2759C85.8604 61.961 87.1449 60.6855 87.1449 59.1122C87.1449 57.5389 85.8604 56.2634 84.2759 56.2634Z" fill="white" fill-opacity="0.2"/>
</g>
<defs>
<clipPath id="clip0_3_4083">
<rect width="208" height="146" fill="white"/>
</clipPath>
</defs>
</svg>
