<svg width="72" height="72" viewBox="0 0 72 72" fill="none" xmlns="http://www.w3.org/2000/svg">
<path d="M61.3469 61.3482H50.6788V44.6411C50.6788 40.6572 50.6076 35.5286 45.1303 35.5286C39.5739 35.5286 38.7237 39.8694 38.7237 44.3511V61.347H28.0559V26.9907H38.297V31.6858H38.4405C39.4654 29.9334 40.9464 28.4917 42.7258 27.5144C44.5053 26.5371 46.5165 26.0607 48.5452 26.1359C59.3579 26.1359 61.3514 33.2482 61.3514 42.5007L61.3469 61.3482ZM16.0184 22.2946C12.5992 22.2952 9.82695 19.5237 9.82639 16.1046C9.82582 12.6854 12.597 9.91315 16.0161 9.91259C19.4353 9.91175 22.2076 12.6832 22.2081 16.1023C22.2084 17.7443 21.5565 19.3191 20.3957 20.4804C19.2349 21.6416 17.6603 22.2942 16.0184 22.2946ZM21.3526 61.3484H10.6732V26.9907H21.3523V61.3482L21.3526 61.3484ZM66.6653 0.00499608H5.3126C2.41292 -0.0276289 0.0349492 2.29521 -0.000488281 5.1949V66.8036C0.0338242 69.7047 2.41151 72.0297 5.31232 71.9994H66.6653C69.5723 72.0354 71.9593 69.7103 71.9995 66.8036V5.19012C71.9582 2.28481 69.5709 -0.0377539 66.6653 0.000214829" fill="#0A66C2"/>
</svg>
