<svg width="20" height="30" viewBox="0 0 20 30" fill="none" xmlns="http://www.w3.org/2000/svg">
<path d="M0 25C0 22.2386 2.2386 20 5 20H10V25C10 27.7614 7.7614 30 5 30C2.2386 30 0 27.7614 0 25Z" fill="#24CB71"/>
<path d="M10 0V10H15C17.7614 10 20 7.7614 20 5C20 2.2386 17.7614 0 15 0H10Z" fill="#FF7237"/>
<path d="M15 20C17.7614 20 20 17.7614 20 15C20 12.2386 17.7614 10 15 10C12.2386 10 10 12.2386 10 15C10 17.7614 12.2386 20 15 20Z" fill="#00B6FF"/>
<path d="M0 5C0 7.7614 2.2386 10 5 10H10V0H5C2.2386 0 0 2.2386 0 5Z" fill="#FF3737"/>
<path d="M0 15C0 17.7614 2.2386 20 5 20H10V10H5C2.2386 10 0 12.2386 0 15Z" fill="#874FFF"/>
</svg>
